<?xml version="1.0" standalone="no"?>
<!DOCTYPE svg PUBLIC "-//W3C//DTD SVG 1.1//EN" "http://www.w3.org/Graphics/SVG/1.1/DTD/svg11.dtd" >
<svg xmlns="http://www.w3.org/2000/svg">
<metadata>
This is a custom SVG webfont generated by Font Squirrel.
Designer    : Greater Albion Typefounders
Foundry     : Greater Albion Typefounders
</metadata>
<defs>
<font id="webfontYGVDhWxb" horiz-adv-x="260" >
<font-face units-per-em="1000" ascent="800" descent="-200" />
<missing-glyph horiz-adv-x="299" />
<glyph unicode=" "  horiz-adv-x="299" />
<glyph unicode="&#x09;" horiz-adv-x="299" />
<glyph unicode="&#xa0;" horiz-adv-x="299" />
<glyph unicode="!" horiz-adv-x="234" d="M30 36q0 22 14.5 37.5t35.5 15.5t35.5 -15.5t14.5 -37.5t-14.5 -37.5t-35.5 -15.5t-35.5 15.5t-14.5 37.5zM30 867q0 11 10 22t20 11q0 -13 10.5 -25t29 -21t44 -14t54.5 -5q6 -8 6 -17q0 -8 -5 -16q-17 -1 -29.5 -12.5t-21.5 -28t-13.5 -33.5t-4.5 -28l-8 -578 q-27 8 -48 8q-20 0 -36 -8z" />
<glyph unicode="&#x22;" horiz-adv-x="220" d="M129 866q0 22 10 28.5t21 6.5t20.5 -6.5t9.5 -28.5q0 -11 -2.5 -28.5t-7 -34.5t-9.5 -29.5t-11 -12.5t-11.5 12.5t-10 29.5t-7 34.5t-2.5 28.5zM30 866q0 22 10 28.5t21 6.5t20.5 -6.5t9.5 -28.5q0 -11 -2.5 -28.5t-7 -34.5t-9.5 -29.5t-11 -12.5t-11.5 12.5t-10 29.5 t-7 34.5t-2.5 28.5z" />
<glyph unicode="#" horiz-adv-x="964" d="M506 -20q17 66 32 131l29 131q-26 1 -53 1h-53h-75q-37 0 -75 -1q-20 -137 -33 -259q-14 6 -33 6q-22 0 -37 -6q16 64 30 128l29 130l-17 -1q-47 -2 -94.5 -3t-96.5 -3l-19 -1q2 10 2 18t-1 13l-4 20q-2 9 -7 17q63 -7 124 -11t122 -6q13 61 24 122t19 123 q-60 -1 -120.5 -3t-124.5 -5q3 7 3 18l-1 13q-3 19 -11 37q66 -7 131 -11.5t129 -6.5q9 68 16 135.5t12 136.5q7 -3 16.5 -4.5t19.5 -1.5q17 0 32 6q-16 -72 -29.5 -139.5t-25.5 -133.5q28 -1 56 -1h55h73q37 0 74 2q18 134 27 269q15 -6 36 -6q18 0 32 6l-29 -136l-25 -132 q66 3 130.5 7t129.5 10q-2 -5 -2 -18v-9q0 -4 1 -9q1 -17 10 -34q-66 4 -135 6l-141 4l-22 -125q-11 -60 -20 -120q69 2 137 6.5t137 10.5q-2 -5 -2 -18v-9q0 -4 1 -9l4 -17q2 -9 7 -17q-70 4 -142 6.5t-149 4.5q-20 -138 -33 -262q-6 3 -15 4.5t-18 1.5q-21 0 -37 -6z M359 530l-23 -126q-10 -62 -18 -122q32 -1 62 -1h63h67q33 0 66 1q24 122 42 248q-30 1 -60 1h-62z" />
<glyph unicode="$" horiz-adv-x="687" d="M88 -49l20 45l20 45q-42 26 -70 69.5t-28 110.5q0 22 7.5 44.5t21 40t32 28.5t39.5 11q16 0 32.5 -4.5t30 -12.5t23 -20t11.5 -27l19 50l20 51q-40 6 -71.5 20t-54 32t-34.5 39.5t-12 42.5q0 34 11 68t36 61.5t65.5 45t100.5 17.5q17 0 33 -2l31 -4l15 54l16 55 q13 -6 34 -6q19 0 34 6l-24 -59q-13 -28 -24 -57q5 -1 11 -1h11q7 0 11.5 3t7.5 13q6 5 16 5t23 -5q2 -45 12.5 -83t26.5 -73q-6 -6 -16 -6t-23 6q-5 10 -9 20.5t-10 20.5q-13 20 -32 38t-41 29l-26 -67l-26 -66q70 -3 125.5 -21.5t94 -54t59 -89t20.5 -127.5 q0 -38 -16.5 -82.5t-53 -82.5t-94.5 -63.5t-141 -25.5q-14 0 -33 1.5t-42 5t-48.5 9.5t-50.5 16l-10 -32l-10 -32q-12 6 -31 6q-23 0 -39 -6zM330 377h-14q-7 0 -14 1l-60 -169l-53 -159q38 -17 81.5 -26t81.5 -9q63 0 109.5 18t77 46t46 62.5t15.5 66.5q0 51 -21.5 84 t-58.5 52t-86 26t-104 7zM197 587q0 -32 30.5 -44t90.5 -13l24 74l22 74q-5 1 -8.5 1.5t-8.5 0.5q-21 0 -47.5 -6.5t-49 -18.5t-38 -29.5t-15.5 -38.5zM73 185q0 -34 19 -61.5t51 -48.5l24 57q12 27 23 56q-12 -8 -32 -8q1 5 1 14q0 19 -9.5 35t-36.5 16q-14 0 -22 -6 t-12 -15t-5 -19.5t-1 -19.5z" />
<glyph unicode="%" horiz-adv-x="713" d="M47 -17q141 213 266.5 426t230.5 434q12 -6 33 -6q18 0 35 6q-155 -248 -276 -460t-219 -400q-11 6 -30 6q-22 0 -40 -6zM209 843q18 0 44.5 -7t51.5 -23.5t42.5 -43t17.5 -65.5q0 -48 -14.5 -85.5t-38.5 -63t-56 -38.5t-68 -13q-29 0 -57.5 9.5t-51 27.5t-36 44 t-13.5 59q0 39 15 74.5t40 63.5t57.5 44.5t66.5 16.5zM102 693q0 -44 6.5 -71t20 -41.5t34.5 -19t50 -4.5q9 0 22.5 5.5t26 18t21.5 32t9 47.5q0 81 -27.5 114t-70.5 33q-10 0 -25.5 -6.5t-30.5 -20t-25.5 -35.5t-10.5 -52zM527 322q18 0 44.5 -7t51.5 -23.5t42.5 -43 t17.5 -65.5q0 -48 -14.5 -85.5t-38.5 -63t-56 -38.5t-68 -13q-29 0 -57.5 9.5t-51 27.5t-36 44t-13.5 59q0 39 15 74.5t40 63.5t57.5 44.5t66.5 16.5zM420 172q0 -44 6.5 -71t20 -41.5t34.5 -19t50 -4.5q9 0 22.5 5.5t26 18t21.5 32t9 47.5q0 81 -27.5 114t-70.5 33 q-10 0 -25.5 -6.5t-30.5 -20t-25.5 -35.5t-10.5 -52z" />
<glyph unicode="&#x26;" horiz-adv-x="1225" d="M560 518l-248 -431q51 -16 91 -22.5t55 -6.5q25 0 61 4t77.5 16t87.5 34.5t93 60t92 91t85 128.5l-57 -42q-28 -20 -63 -20q-13 0 -26 3.5t-23.5 10t-17.5 16t-7 22.5q0 26 15.5 47t37 36.5t45 25t39.5 13.5q5 -3 6 -7l-7 -5q-22 -14 -35.5 -27.5t-13.5 -41.5 q0 -11 4 -21t16 -12q3 -1 8 -1q19 0 45 15l56 34q30 18 66 33.5t76 15.5q10 0 23.5 -2t25.5 -6.5t20 -13.5t8 -22q0 -22 -9.5 -38.5t-24.5 -29t-32 -21.5t-32 -16l-7 -3q-7 2 -8 7q9 12 21 23t12 26q0 13 -6 21t-15 12.5t-19.5 6.5t-20.5 2q-25 0 -46 -9 q-45 -108 -103 -190.5t-125 -138t-140.5 -84t-149.5 -28.5q-49 0 -102 7.5t-104 24.5t-97 44t-81 66t-55.5 90.5t-20.5 117.5q0 19 4 48.5t15.5 61.5t33 64.5t57 58.5t87 42t122.5 16q22 0 48.5 -7.5t48.5 -21t37 -31.5t15 -39q0 -5 -0.5 -9t-1.5 -9l111 193l25 44 q14 25 14 47q0 8 -1 11q-1 4 -2 7.5t-1 8.5q0 10 4 17q14 -3 27.5 -4t27.5 -1t27.5 1t27.5 4q1 -5 1.5 -9t0.5 -9q0 -7 -2 -15q-9 -1 -21 -12t-24.5 -26t-24 -32.5t-19.5 -31.5l-104 -179zM62 330q0 -44 17.5 -79t46 -62.5t64.5 -48.5t74 -36l196 341q-24 -19 -59 -19 q-37 0 -65 17.5t-28 52.5q5 -1 14 -1q19 0 35 9.5t16 36.5q0 14 -6 22t-15 12t-19.5 5t-19.5 1q-64 0 -111.5 -22.5t-78.5 -58.5t-46 -81t-15 -89z" />
<glyph unicode="'" horiz-adv-x="121" d="M30 866q0 22 10 28.5t21 6.5t20.5 -6.5t9.5 -28.5q0 -11 -2.5 -28.5t-7 -34.5t-9.5 -29.5t-11 -12.5t-11.5 12.5t-10 29.5t-7 34.5t-2.5 28.5z" />
<glyph unicode="(" horiz-adv-x="199" d="M119 348q0 -98 5 -186t16 -162h-9q-45 66 -73 172.5t-28 236.5q0 70 8.5 135.5t24.5 121.5t38.5 101t49.5 76h18q-23 -84 -36.5 -212.5t-13.5 -282.5z" />
<glyph unicode=")" horiz-adv-x="199" d="M80 348q0 154 -13.5 282.5t-36.5 212.5h18q27 -31 49.5 -76t38.5 -101t24.5 -121.5t8.5 -135.5q0 -130 -28 -236.5t-73 -172.5h-9q11 74 16 162t5 186z" />
<glyph unicode="*" horiz-adv-x="317" d="M158 606q-9 0 -16.5 28t-9.5 73q-30 -14 -53.5 -22.5t-36.5 -8.5q-8 0 -11 4l-1 3q0 9 20.5 28t54.5 42q-34 23 -54.5 42t-20.5 29l1 3q2 4 10 4q13 0 37 -8.5t54 -23.5q2 45 9.5 73.5t16.5 28.5t16 -28.5t10 -73.5q30 16 54.5 24t37.5 8q7 0 10 -3l1 -3 q0 -10 -20.5 -29.5t-55.5 -42.5q7 -5 19.5 -13t24.5 -18t21 -21.5t10 -21.5q-3 -4 -11 -4q-13 0 -37 8.5t-54 23.5q-3 -45 -10 -73t-16 -28z" />
<glyph unicode="+" horiz-adv-x="533" d="M503 448q-3 -14 -3 -36q0 -19 3 -34q-101 11 -214 12q0 -51 2.5 -104t7.5 -110q-11 4 -31 4q-22 0 -37 -4q10 54 14.5 107.5t5.5 106.5q-52 -1 -106.5 -3t-114.5 -7q4 11 4 31q0 22 -4 37q56 -11 111 -15.5t110 -4.5q-2 56 -7 111t-13 110q13 -3 36 -3q19 0 34 3 q-12 -104 -12 -221q54 1 107 6t107 14z" />
<glyph unicode="," horiz-adv-x="160" d="M30 36q0 22 14.5 37.5t35.5 15.5t35.5 -15.5t14.5 -37.5q0 -13 -3 -29t-8.5 -31t-13 -27.5t-16.5 -17.5l-9 9q-5 5 -12 7q2 6 4 15.5t4 20.5q-20 2 -33 17t-13 36z" />
<glyph unicode="-" horiz-adv-x="533" d="M503 448q-3 -14 -3 -36q0 -19 3 -34q-111 12 -240 12q-54 0 -112 -2.5t-121 -7.5q4 11 4 31q0 22 -4 37q57 -11 113.5 -15.5t112.5 -4.5q63 0 124.5 5t122.5 15z" />
<glyph unicode="." horiz-adv-x="160" d="M30 36q0 22 14.5 37.5t35.5 15.5t35.5 -15.5t14.5 -37.5t-14.5 -37.5t-35.5 -15.5t-35.5 15.5t-14.5 37.5z" />
<glyph unicode="/" horiz-adv-x="625" d="M30 -17q141 213 266.5 426t230.5 434q12 -6 33 -6q18 0 35 6q-155 -248 -276 -460t-219 -400q-11 6 -30 6q-22 0 -40 -6z" />
<glyph unicode="0" horiz-adv-x="549" d="M30 235q0 78 25.5 137t62.5 99t79.5 60t77.5 20q43 0 86.5 -17t78.5 -48.5t57 -75.5t22 -98q0 -86 -25 -148t-62.5 -102.5t-81.5 -59.5t-82 -19q-37 0 -78.5 16t-77 47.5t-59 78.5t-23.5 110zM115 299q0 -74 11 -122t34.5 -75.5t59 -38t84.5 -10.5q15 0 36.5 12t42 35.5 t35 59t14.5 82.5q0 67 -14.5 114t-38.5 75.5t-55.5 41.5t-66.5 13q-17 0 -41 -5.5t-46.5 -25t-38.5 -56.5t-16 -100z" />
<glyph unicode="1" d="M40 28q15 1 23 12t12 26t4.5 32.5t0.5 31.5v269q0 11 -1 28t-5 33.5t-13.5 28t-25.5 12.5q-5 8 -5 16q0 9 6 17q21 4 42 14l43 18q22 10 46 17.5t52 7.5q3 -9 3 -18t-3 -15q-15 -1 -23 -15t-11.5 -33.5t-4 -40.5t-0.5 -35v-304q0 -16 1.5 -34t6.5 -33t14 -25t23 -10 q5 -8 5 -16q0 -10 -6 -17q-24 3 -46.5 4t-45.5 1t-45.5 -1t-46.5 -4q-3 9 -3 18t3 15z" />
<glyph unicode="2" horiz-adv-x="519" d="M30 30q0 61 26.5 101.5t66 69t86 50.5t86 45.5t66 54.5t26.5 78q0 39 -38.5 67t-101.5 28q-45 0 -71.5 -4.5t-40.5 -12t-19.5 -19t-9.5 -25.5l-8 -31q-4 -16 -16 -34q-12 -6 -20 -6q-5 0 -11.5 1.5t-8.5 4.5q13 35 22 73t11 83q10 5 19 5t14 -5q20 -7 48 -7 q23 0 45.5 2.5t42.5 2.5q121 0 183 -39t62 -116q0 -51 -24 -79t-60.5 -45.5t-80 -30t-82.5 -31t-68 -48.5t-37 -83q0 -2 -0.5 -3t-0.5 -2q0 -11 7 -17t17.5 -9.5t22.5 -4.5t21 -1q34 0 63 -5t64 -5q59 0 86 17.5t32 67.5q7 6 16 6q5 0 13 -3q2 -23 6 -44t4 -41q0 -18 -6 -36 q-22 -5 -48 -5q-40 0 -74 2l-68 4l-68 4q-35 2 -76 2q-29 0 -58.5 -1.5t-59.5 -5.5v30z" />
<glyph unicode="3" horiz-adv-x="499" d="M31 -193v5q0 20 13 34q14 17 30 17q17 0 29.5 -16.5t14.5 -39.5q1 -15 8.5 -21t18.5 -6q101 0 154 50t53 138q0 49 -15 81.5t-39 53t-55 31t-64 16.5h-14q-32 0 -57 3t-44 14q-1 2 -1 6q0 6 2 11.5t8 7.5q20 -10 47 -13t44 -3q39 0 69.5 7.5t52 29t33 59.5t11.5 99 q0 26 -5 53.5t-15.5 49.5t-26.5 36t-37 14q-48 0 -75.5 -4t-41.5 -12t-19 -19t-7.5 -25t-6.5 -31t-16 -35q-5 -3 -13.5 -4.5t-12.5 -1.5q-9 0 -16 6q12 35 19 73q5 30 5 63v20q10 5 20 5q7 0 15 -5q11 -4 24 -5.5t27 -1.5q24 0 47.5 2.5t45.5 2.5q57 0 94 -16t59 -42.5 t30.5 -61.5t8.5 -74q0 -58 -34 -107t-96 -75q28 -15 57.5 -28t53.5 -34t39.5 -54t15.5 -87q0 -61 -31.5 -103.5t-85 -69t-124 -38.5t-149.5 -12h-4q-16 0 -29 17t-15 40z" />
<glyph unicode="4" horiz-adv-x="577" d="M242 -214q15 1 23 12t12 26t4.5 32.5t0.5 31.5v121q-6 0 -13 0.5t-15 0.5q-30 0 -63 -1.5t-59 -1.5t-51 -1t-51 -3v45q0 26 4.5 47t13 40t20.5 37t27 38q32 42 63 76l59 66q29 32 57 68.5t56 84.5q15 26 37.5 36.5t47.5 10.5q-60 -72 -132 -177.5t-157 -242.5 q-14 -22 -14 -43t17 -33.5t52 -12.5q18 0 45.5 2t47.5 2h8v80q0 8 -0.5 25t-2 34t-4.5 30t-9 13q-5 0 -12 -6t-17 -20q-5 0 -5 7q0 11 6 26l47 76l44 70l45 66q22 32 48 65q3 -6 3 -14q0 -10 -3 -19q-15 -24 -23 -47t-12 -44t-4.5 -39.5t-0.5 -32.5v-275l8 -1q3 -1 6 -1h7 q16 0 34.5 6.5t34 21t26 37.5t10.5 55v17q7 6 15 6q10 0 18 -6q-3 -20 -3 -36q0 -26 4.5 -50t4.5 -47q0 -18 -6 -36q-8 -2 -20 -3.5t-23 -1.5q-29 0 -58 1t-58 3v-119q0 -16 1.5 -34t6.5 -33t14 -25t23 -10q5 -8 5 -16q0 -10 -6 -17q-24 3 -46.5 4t-45.5 1t-45.5 -1 t-46.5 -4q-3 9 -3 18t3 15z" />
<glyph unicode="5" horiz-adv-x="532" d="M175 483q-15 -16 -26 -41t-19 -56t-12 -67t-4 -74v-19q0 -9 2 -19q34 3 66 3q86 0 146.5 -14t99 -42.5t56.5 -71t18 -99.5q0 -44 -26.5 -86t-71 -74.5t-103.5 -52.5t-124 -20h-4q-66 0 -93.5 17t-29.5 40v7q0 20 11 34.5t28 14.5q18 0 32 -16.5t16 -39.5q2 -15 10.5 -21 t20.5 -6q56 0 96 18t66 43.5t38.5 54t12.5 49.5q0 64 -12 107t-38.5 69.5t-67.5 38t-99 11.5q-18 0 -37.5 -1.5t-40.5 -5.5h-6q-21 0 -32.5 21.5t-16.5 58.5q-1 8 -1 14v14q0 85 22.5 156.5t61.5 123.5q12 -1 24 -1h24h122q21 0 47 1.5t51 4.5t47 6.5t36 7.5q5 2 10.5 3 t10.5 1t8 -1t7 -3q-18 -23 -30 -46.5t-21 -46.5q-13 -5 -24 -5q-10 0 -12 5l3 11q2 9 -13 15.5t-39 10.5t-52.5 6t-52.5 2h-18q-20 0 -33 -8.5t-34 -31.5z" />
<glyph unicode="6" horiz-adv-x="549" d="M30 237q0 35 4.5 84.5t18 106t37.5 116t63 115.5t94.5 104t132.5 81q17 8 28 8q10 0 12 -8q-64 -51 -108.5 -96t-75 -88t-49.5 -86.5t-32 -91.5q10 16 27.5 27t37.5 17.5t40 9.5t37 3q30 0 68.5 -18.5t72.5 -51.5t57.5 -78t23.5 -99q0 -86 -30 -145t-73.5 -95.5 t-92 -52.5t-86.5 -16q-27 0 -62.5 16t-68 48t-54.5 79.5t-22 110.5zM115 301q0 -74 11 -122t34 -76t58.5 -39t84.5 -11q15 0 37 9t42.5 29t35 52t14.5 79q0 67 -14 115t-37.5 78.5t-55 44.5t-66.5 14q-17 0 -41.5 -3.5t-47 -20t-39 -51.5t-16.5 -98z" />
<glyph unicode="7" horiz-adv-x="532" d="M292 1q-8 -23 -11 -38.5t-3 -29.5q0 -20 3 -41t3 -56q0 -33 -14 -51t-32.5 -26t-38 -9.5t-29.5 -1.5q-9 0 -13 7.5t-4 18.5q0 13 5 28l224 612q11 30 16.5 48t5.5 29q0 14 -8.5 17t-24.5 3h-137q-21 0 -47.5 -5.5t-50.5 -19t-40 -36.5t-16 -58v-17q-9 -6 -20 -6t-23 6 q4 17 4 36q0 26 -5.5 50t-5.5 47q0 20 8 36q11 2 26 3.5t29 1.5q28 0 55 -2.5t55 -2.5h236h31q15 0 32 2q0 -17 -6 -30.5t-14 -27.5l-20 -32q-10 -17 -19 -42z" />
<glyph unicode="8" horiz-adv-x="550" d="M111 648q0 38 15 74t40 63.5t57.5 44.5t66.5 17q18 0 44.5 -7t51 -23t42.5 -42.5t18 -66.5q0 -68 -26 -109t-61 -63q28 -12 57 -32.5t52 -49t37.5 -63.5t14.5 -76q0 -86 -28.5 -148.5t-71 -103.5t-92 -60.5t-90.5 -19.5q-27 0 -63 16t-68 48t-54 79.5t-22 110.5 q0 36 9.5 78t29 82t49.5 74t71 55q-15 8 -29 19.5t-25 26.5t-18 34t-7 42zM116 301q0 -74 11 -122t34 -76t58.5 -39t84.5 -11q15 0 37 12.5t42.5 36.5t35 60t14.5 83q0 67 -14.5 113.5t-38.5 74.5t-56 40.5t-67 12.5q-17 0 -41 -5.5t-46 -24t-38 -55.5t-16 -100zM183 697 q0 -44 6.5 -71t20 -41.5t34.5 -19t50 -4.5q9 0 22.5 5.5t26 18t21.5 32t9 47.5q0 81 -27.5 114t-70.5 33q-10 0 -25.5 -6.5t-30.5 -20t-25.5 -35.5t-10.5 -52z" />
<glyph unicode="9" horiz-adv-x="570" d="M416 -2q-3 -14 -4 -24.5t-1 -19.5v-4q0 -32 4.5 -49t10.5 -29.5t10.5 -24.5t4.5 -34q0 -26 -13.5 -39.5t-31.5 -20t-36.5 -7.5t-28.5 -1q-14 0 -19.5 13t-5.5 27q0 1 0 0.5t1 6.5t4.5 24.5t11.5 54t20 96.5l31 152q-43 -32 -79 -45.5t-75 -13.5q-27 0 -60 13.5t-62 42 t-48.5 72.5t-19.5 105q0 38 16 83t49 84t83.5 65.5t119.5 26.5q25 0 45 -5.5t36.5 -15.5t31.5 -25l32 -35q2 18 5.5 31t13.5 21t28 11.5t50 3.5q0 -18 -4.5 -31.5t-10.5 -27.5l-13 -31q-7 -17 -12 -42zM115 357q0 -74 8.5 -119t28.5 -69t52.5 -31.5t81.5 -7.5q15 0 34 7.5 t36 26t28.5 49.5t11.5 78q0 67 -8 108t-25 63.5t-42.5 29.5t-60.5 7q-17 0 -41.5 -3t-47.5 -16.5t-39.5 -42.5t-16.5 -80z" />
<glyph unicode=":" horiz-adv-x="158" d="M27 499q0 22 14.5 37.5t35.5 15.5t35.5 -15.5t14.5 -37.5t-14.5 -37.5t-35.5 -15.5t-35.5 15.5t-14.5 37.5zM30 36q0 22 14.5 37.5t35.5 15.5t35.5 -15.5t14.5 -37.5t-14.5 -37.5t-35.5 -15.5t-35.5 15.5t-14.5 37.5z" />
<glyph unicode=";" horiz-adv-x="158" d="M27 499q0 22 14.5 37.5t35.5 15.5t35.5 -15.5t14.5 -37.5t-14.5 -37.5t-35.5 -15.5t-35.5 15.5t-14.5 37.5zM30 36q0 22 14.5 37.5t35.5 15.5t35.5 -15.5t14.5 -37.5q0 -13 -3 -29t-8.5 -31t-13 -27.5t-16.5 -17.5l-9 9q-5 5 -12 7q2 6 4 15.5t4 20.5q-20 2 -33 17 t-13 36z" />
<glyph unicode="&#x3c;" horiz-adv-x="495" d="M460 164q-9 -10 -13 -30t-8 -34q-89 66 -202 131q-93 54 -207 108q14 14 14 35q0 4 -0.5 7.5t-1.5 8.5q55 20 106.5 44t99.5 52q54 31 105 66.5t99 74.5q1 -22 1.5 -40t11.5 -29q-26 -11 -49 -22l-44 -24l-47 -26l-52 -30l-77 -47l-82 -52q33 -26 67 -48t69 -42 q54 -31 103 -56t107 -47z" />
<glyph unicode="=" horiz-adv-x="538" d="M503 357q-3 -14 -3 -36q0 -19 3 -34q-111 12 -240 12q-54 0 -112 -2.5t-121 -7.5q4 11 4 31q0 22 -4 37q57 -11 113.5 -15.5t112.5 -4.5q63 0 124.5 5t122.5 15zM508 569q-3 -14 -3 -36q0 -19 3 -34q-111 12 -240 12q-54 0 -112 -2.5t-121 -7.5q4 11 4 31q0 22 -4 37 q57 -11 113.5 -15.5t112.5 -4.5q63 0 124.5 5t122.5 15z" />
<glyph unicode="&#x3e;" horiz-adv-x="495" d="M35 164q58 22 107 47t103 56q35 20 69 42t67 48l-81 52l-78 47l-52 30l-46 26l-46 24l-48 22q11 11 11.5 29t1.5 40q48 -39 99 -74.5t105 -66.5q48 -28 99.5 -52t106.5 -44q-1 -5 -1.5 -8.5t-0.5 -7.5q0 -11 4 -20t10 -15q-114 -54 -207 -108q-113 -65 -202 -131 q-4 14 -8 34t-13 30z" />
<glyph unicode="?" horiz-adv-x="684" d="M199 36q0 22 14.5 37.5t35.5 15.5t35.5 -15.5t14.5 -37.5t-14.5 -37.5t-35.5 -15.5t-35.5 15.5t-14.5 37.5zM159 595q0 9 -1 14q17 0 34 -21t17 -58q0 -12 -7 -24.5t-18.5 -22t-27 -16t-32.5 -6.5q-42 0 -68 31t-26 76q0 86 29.5 139.5t74 83.5t97 40.5t98.5 10.5 q106 0 170.5 -29.5t98.5 -72.5t45 -91.5t11 -85.5q0 -78 -28 -125.5t-70 -77t-91 -45.5l-91 -30q-42 -14 -70 -31.5t-28 -49.5q0 -17 6.5 -38t26.5 -49q-49 17 -81 17t-45 -17q-10 20 -12.5 37t-2.5 31q0 28 16 46.5t41.5 32t58.5 25t67.5 25.5t68 33.5t59 49.5t41.5 72.5 t16 103.5q0 16 -1 40t-8 50.5t-21.5 52.5t-41.5 47t-68.5 34t-101.5 13q-43 0 -83 -15t-70.5 -42.5t-49 -65.5t-18.5 -83q0 -9 1 -19.5t5 -19.5t12 -15t22 -6q27 0 36.5 16t9.5 35z" />
<glyph unicode="@" horiz-adv-x="749" d="M191 312q0 34 18 63t51.5 53t81 41.5t107.5 28.5q-8 83 -98 83q-17 0 -26.5 -4t-14 -10t-6 -12.5t-1.5 -11.5q0 -12 14 -23q3 -2 3 -4q0 -7 -14 -14t-34 -7q-24 0 -38.5 11t-14.5 31q0 10 16 24.5t40 27.5t52.5 22t52.5 9q46 0 77 -12t49.5 -29t26 -37.5t7.5 -36.5v-201 q0 -11 0.5 -24t4 -24.5t10.5 -19.5t20 -8q22 0 33 12t15.5 30.5t5 40.5t2.5 43q0 48 -2.5 98t-11.5 97.5t-27 89t-49.5 73t-79 49.5t-114.5 18q-46 0 -87.5 -11.5t-72.5 -39t-49.5 -75t-18.5 -119.5q0 -48 4 -102.5t15 -107.5t30.5 -102.5t49.5 -86.5t73 -59.5t101 -22.5 q52 0 90 13q32 12 60 24t63 12q-48 -56 -109 -87.5t-130 -31.5q-72 0 -133.5 35.5t-106.5 95t-70.5 137.5t-25.5 164t28 163.5t75.5 136.5t111 93.5t135.5 34.5q94 0 159 -34.5t105 -93.5t57.5 -136.5t17.5 -163.5q0 -41 -7.5 -79t-25 -67.5t-44.5 -47.5t-66 -18 q-53 0 -78.5 10.5t-36.5 29.5q-30 -20 -67.5 -34.5t-69.5 -14.5q-24 0 -48 7.5t-43 22.5t-30.5 37t-11.5 51zM268 339q0 -37 28 -64t88 -27q13 0 25 5.5t21 19t14.5 36.5t5.5 58v86q-4 -2 -19.5 -4t-35.5 -5t-42.5 -8.5t-41 -15t-31 -23.5t-12.5 -35v-23z" />
<glyph unicode="A" horiz-adv-x="789" d="M32 28q10 1 20 12t19 26t16 32.5t12 31.5l195 566q5 14 9.5 32t4.5 35q0 15 -6 26t-22 13q-2 3 -3 5.5t-1 5.5t1 5q0 9 6 17q8 -1 18 -1.5t26 -1t40.5 -1t61.5 -1.5q11 0 28.5 0.5t36.5 2t37 2.5t30 3q3 -9 3 -18q-2 -5 -2.5 -8.5t-2.5 -6.5q-18 -1 -34 -4t-28 -10 t-19.5 -19t-7.5 -30q0 -14 8 -40l193 -570q6 -17 14.5 -35t19 -33t23.5 -24.5t27 -9.5q2 -3 3 -5.5t1 -5.5t-1 -5q0 -10 -6 -17q-24 3 -46.5 4t-45.5 1t-45.5 -1t-46.5 -4q-3 9 -3 18q2 5 2.5 8.5t2.5 6.5q7 0 10.5 9.5t3.5 18.5v8q0 16 -4 33t-9 33l-32 95h-336l-28 -81 q-3 -10 -8 -23t-9 -27t-7 -27t-3 -23q0 -18 12 -18q3 -4 3.5 -7.5t0.5 -8.5q0 -10 -4 -17q-17 3 -33 4t-32 1q-15 0 -30.5 -1t-32.5 -4q-1 5 -1.5 9t-0.5 9q0 7 2 15zM218 272h305l-151 446z" />
<glyph unicode="B" horiz-adv-x="678" d="M522 637q0 -24 -4 -42.5t-12 -32.5q21 -17 46 -46t46 -69t35.5 -90t14.5 -108q0 -39 -9.5 -83.5t-32 -82t-58.5 -63t-89 -25.5q-24 0 -60 1t-78.5 1.5t-91 1.5t-97.5 1q-23 0 -45.5 -1t-46.5 -4q-3 9 -3 18t3 15q15 1 23 12t12 26t4.5 32.5t0.5 31.5v570q0 11 -1 28 t-5 33.5t-13.5 28t-25.5 12.5q-5 8 -5 16q0 9 6 17q24 -3 46.5 -4t45.5 -1q16 0 40.5 1t51 1.5t51 1.5t40.5 1q28 0 64.5 -6t69 -26.5t55 -59.5t22.5 -106zM552 269q0 33 -4 67.5t-13 68t-23.5 64.5t-36.5 56q-16 -13 -40.5 -21t-53 -15t-58.5 -13.5t-57.5 -16t-50 -22.5 t-35.5 -33v-274q0 -15 11.5 -32t27.5 -31t34 -23.5t32 -10.5h149q44 0 68 23t35 58t13 76.5t2 78.5zM180 439q13 22 38.5 35t55.5 23l62 20q31 10 57 26.5t42.5 43.5t16.5 70q0 53 -15 82.5t-36 43.5t-44 16.5t-39 2.5h-5q-23 0 -47 -0.5t-43 -4.5t-31 -12t-12 -23v-323z " />
<glyph unicode="C" horiz-adv-x="590" d="M449 162q0 22 20 37.5t44 15.5q23 0 35 -14.5t12 -34.5q0 -33 -19.5 -65.5t-51 -58.5t-71.5 -42.5t-81 -16.5q-60 0 -115.5 35.5t-98 95t-68 137.5t-25.5 164t21 164t61 137.5t96.5 95t128.5 35.5q13 0 29 -5l34 -10l31 -11q15 -5 26 -5q10 0 16 2t11 16q5 3 10.5 4 t10.5 1q9 0 16 -5q-9 -32 -13 -64t-4 -65v-19q0 -9 1 -19q-12 -5 -20 -5q-10 0 -20 5q-18 22 -42.5 43t-52 37.5t-57 26t-57.5 9.5q-23 0 -48.5 -12t-47 -40.5t-36 -76.5t-14.5 -120q0 -233 76.5 -357t223.5 -124q6 0 16.5 6.5t20 16t16.5 19.5t7 18q0 4 -4 10 q-8 8 -12.5 18t-4.5 21z" />
<glyph unicode="D" horiz-adv-x="719" d="M254 835q50 0 102 -7t100.5 -25.5t91 -51.5t74 -86t49.5 -128.5t18 -177.5q0 -111 -30.5 -182t-83 -111.5t-122.5 -55.5t-149 -15q-43 0 -86 2.5t-86 2.5q-23 0 -45.5 -1t-46.5 -4q-3 9 -3 18t3 15q15 1 23 12t12 26t4.5 32.5t0.5 31.5v570q0 11 -1 28t-5 33.5t-13.5 28 t-25.5 12.5q-5 8 -5 16q0 9 6 17q20 0 39 -3t38 -3q36 0 70 3t71 3zM180 130q0 -34 2 -53.5t7 -29t14.5 -12t23.5 -2.5h29q36 0 76 5t79 19t74 39t62 65.5t43 98t16 136.5q0 84 -15.5 147t-42 108.5t-61.5 74.5t-74.5 46t-81.5 23.5t-81 6.5q-23 0 -37 -0.5t-21.5 -4.5 t-9.5 -12t-2 -23v-632z" />
<glyph unicode="E" horiz-adv-x="499" d="M206 534q18 0 35 1.5t31 7.5t22.5 17t8.5 31q7 5 16.5 9t20.5 4v-4q0 -54 17.5 -105t48.5 -85q-5 -8 -15.5 -10.5t-21.5 -2.5q-13 19 -27 37t-32 32.5t-41 23.5t-53 9h-36v-304q0 -61 18 -118.5t56 -102.5t97 -72t142 -27q17 0 38 3.5t41 12t37.5 22.5t26.5 35q11 8 23 8 q13 0 27 -8q2 -18 6 -35.5t4 -34.5q0 -19 -7 -36q-11 -2 -26.5 -3.5t-29.5 -1.5q-28 0 -54.5 2.5t-54.5 2.5q-71 0 -123 11.5t-90 29t-65 37.5l-50 38q-23 18 -43 29.5t-44 11.5h-19q-8 0 -15 -0.5t-15 -1.5t-20 -2q-3 9 -3 18t3 15q15 1 23 12t12 26t4.5 32.5t0.5 31.5v570 q0 11 -1 28t-5 33.5t-13.5 28t-25.5 12.5q-5 8 -5 16q0 9 6 17q24 -3 46.5 -4t45.5 -1h135q21 0 46.5 1.5t50 4.5t45.5 6.5t33 7.5q5 2 10 3t10 1t8.5 -1t7.5 -3q-11 -23 -17 -46.5t-9 -46.5q-11 -5 -22 -5q-10 0 -14 5v11q0 9 -13.5 15.5t-35 10.5t-47 6t-49.5 2h-17 q-23 0 -37 -0.5t-21.5 -4.5t-9.5 -12t-2 -23v-228h26z" />
<glyph unicode="F" horiz-adv-x="653" d="M293 534q18 0 35 1.5t31 7.5t22.5 17t8.5 31q7 5 16.5 9t20.5 4v-4q0 -54 17.5 -105t48.5 -85q-5 -8 -15.5 -10.5t-21.5 -2.5q-13 19 -27 37t-32 32.5t-41 23.5t-53 9h-123v-369q0 -16 1.5 -34t6.5 -33t14 -25t23 -10q5 -8 5 -16q0 -10 -6 -17q-24 3 -46.5 4t-45.5 1 t-45.5 -1t-46.5 -4q-3 9 -3 18t3 15q15 1 23 12t12 26t4.5 32.5t0.5 31.5v570q0 11 -1 28t-5 33.5t-13.5 28t-25.5 12.5q-5 8 -5 16q0 9 6 17q24 -3 46.5 -4t45.5 -1h284q21 0 46.5 1.5t50 4.5t45.5 6.5t33 7.5q5 2 10 3t10 1t8.5 -1t7.5 -3q-11 -23 -17 -46.5t-9 -46.5 q-11 -5 -22 -5q-10 0 -14 5v11q0 9 -13.5 15.5t-35 10.5t-47 6t-49.5 2h-79q-23 0 -50.5 -0.5t-51 -4.5t-39.5 -12t-16 -23v-228h113z" />
<glyph unicode="G" horiz-adv-x="574" d="M30 415q0 86 19.5 164t58.5 137.5t96.5 95t133.5 35.5q12 0 25 -5t26 -11.5t25.5 -11.5t23.5 -5q18 0 26 20q9 5 19 5q8 0 15 -5q-16 -63 -16 -129v-19q0 -9 1 -19q-10 -5 -18 -5t-18 5q-16 22 -37 43t-45 37.5t-49.5 26t-50.5 9.5q-12 0 -39 -12t-54.5 -40.5 t-48.5 -76.5t-21 -120q0 -48 4.5 -102.5t15 -107.5t27 -102.5t41.5 -86.5t59 -59.5t78 -22.5q17 0 33.5 7t29.5 25t21 49t8 78v192q0 11 -1 28t-5 33.5t-13.5 28t-25.5 12.5q-5 8 -5 16q0 9 6 17q24 -3 46.5 -4t45.5 -1t45.5 1t46.5 4q3 -9 3 -18t-3 -15q-15 -1 -23 -12 t-12 -26t-4.5 -32.5t-0.5 -31.5v-192q0 -16 1.5 -34t6.5 -33t14 -25t23 -10q5 -8 5 -16q0 -10 -6 -17q-17 3 -31 3q-34 0 -59 -15t-51.5 -33.5t-60 -33.5t-84.5 -15q-54 0 -99.5 35.5t-78 95t-51 137.5t-18.5 164z" />
<glyph unicode="H" horiz-adv-x="633" d="M413 28q15 1 23 12t12 26t4.5 32.5t0.5 31.5v369h-273v-369q0 -16 1.5 -34t6.5 -33t14 -25t23 -10q5 -8 5 -16q0 -10 -6 -17q-24 3 -46.5 4t-45.5 1t-45.5 -1t-46.5 -4q-3 9 -3 18t3 15q15 1 23 12t12 26t4.5 32.5t0.5 31.5v570q0 11 -1 28t-5 33.5t-13.5 28t-25.5 12.5 q-5 8 -5 16q0 9 6 17q24 -3 46.5 -4t45.5 -1t45.5 1t46.5 4q3 -9 3 -18t-3 -15q-15 -1 -23 -12t-12 -26t-4.5 -32.5t-0.5 -31.5v-166h273v268q0 11 -1 28t-5 33.5t-13.5 28t-25.5 12.5q-5 8 -5 16q0 9 6 17q24 -3 46.5 -4t45.5 -1t45.5 1t46.5 4q3 -9 3 -18t-3 -15 q-15 -1 -23 -12t-12 -26t-4.5 -32.5t-0.5 -31.5v-672q0 -16 1.5 -34t6.5 -33t14 -25t23 -10q5 -8 5 -16q0 -10 -6 -17q-24 3 -46.5 4t-45.5 1t-45.5 -1t-46.5 -4q-3 9 -3 18t3 15z" />
<glyph unicode="I" d="M40 28q15 1 23 12t12 26t4.5 32.5t0.5 31.5v672q0 11 -1 28t-5 33.5t-13.5 28t-25.5 12.5q-5 8 -5 16q0 9 6 17q24 -3 46.5 -4t45.5 -1t45.5 1t46.5 4q3 -9 3 -18t-3 -15q-15 -1 -23 -12t-12 -26t-4.5 -32.5t-0.5 -31.5v-672q0 -16 1.5 -34t6.5 -33t14 -25t23 -10 q5 -8 5 -16q0 -10 -6 -17q-24 3 -46.5 4t-45.5 1t-45.5 -1t-46.5 -4q-3 9 -3 18t3 15z" />
<glyph unicode="J" horiz-adv-x="508" d="M435 167q0 -86 -21 -139t-55 -82t-75.5 -39.5t-83.5 -10.5q-30 0 -60.5 8.5t-55 28t-39.5 50.5t-15 76q0 19 14.5 36t34.5 17q33 0 41.5 -16.5t8.5 -34.5q0 -16 -12 -30.5t-29 -14.5v-21q0 -11 5.5 -23t16.5 -22.5t27 -17t37 -6.5q25 0 53 9.5t52 36.5t40 75t16 125v528 q0 11 -1 28t-5 33.5t-13.5 28t-25.5 12.5q-5 8 -5 16q0 9 6 17q24 -3 46.5 -4t45.5 -1t45.5 1t46.5 4q3 -9 3 -18t-3 -15q-15 -1 -23 -12t-12 -26t-4.5 -32.5t-0.5 -31.5v-533z" />
<glyph unicode="K" horiz-adv-x="584" d="M362 618q0 -98 12 -183.5t30.5 -156.5t41.5 -126.5t45.5 -93.5t42 -58t31.5 -20q8 0 14 4t6 15q0 5 -1 10t-7 10h33q43 0 43 -58q0 -18 -6.5 -32t-17 -24t-23 -15t-24.5 -5q-53 0 -99 43.5t-80.5 128.5t-55.5 209t-24 286l-20 -36l-123 -213v-173q0 -16 1.5 -34t6.5 -33 t14 -25t23 -10q5 -8 5 -16q0 -10 -6 -17q-24 3 -46.5 4t-45.5 1t-45.5 -1t-46.5 -4q-3 9 -3 18t3 15q15 1 23 12t12 26t4.5 32.5t0.5 31.5v570q0 11 -1 28t-5 33.5t-13.5 28t-25.5 12.5q-5 8 -5 16q0 9 6 17q24 -3 46.5 -4t45.5 -1t45.5 1t46.5 4q3 -9 3 -18t-3 -15 q-15 -1 -23 -12t-12 -26t-4.5 -32.5t-0.5 -31.5v-293l228 394l25 44q14 25 14 47q0 8 -1 11q-1 4 -2 7.5t-1 8.5q0 10 4 17q14 -3 27.5 -4t27.5 -1t27.5 1t27.5 4q1 -5 1.5 -9t0.5 -9q0 -7 -2 -15q-9 -1 -21 -12t-24.5 -26t-24 -32.5t-19.5 -31.5l-104 -179z" />
<glyph unicode="L" horiz-adv-x="334" d="M180 195q0 -61 16.5 -118.5t53.5 -102.5t96.5 -72t146.5 -27q17 0 38 3.5t41 12t37.5 22.5t26.5 35q11 8 23 8q13 0 27 -8q2 -18 6 -35.5t4 -34.5q0 -19 -7 -36q-11 -2 -26.5 -3.5t-29.5 -1.5q-28 0 -54.5 2.5t-54.5 2.5q-71 0 -123 11.5t-90.5 29t-66.5 37.5l-51 38 q-23 18 -43.5 29.5t-44.5 11.5h-18q-7 0 -13.5 -0.5t-14 -1.5t-19.5 -2q-3 9 -3 18t3 15q15 1 23 12t12 26t4.5 32.5t0.5 31.5v570q0 11 -1 28t-5 33.5t-13.5 28t-25.5 12.5q-5 8 -5 16q0 9 6 17q24 -3 46.5 -4t45.5 -1t45.5 1t46.5 4q3 -9 3 -18t-3 -15q-15 -1 -23 -12 t-12 -26t-4.5 -32.5t-0.5 -31.5v-505z" />
<glyph unicode="M" horiz-adv-x="936" d="M379 392q15 10 15 33q0 15 -4.5 31t-9.5 29l-74 212l-136 -567q-5 -20 -9 -39.5t-4 -37.5v-9q0 -6 0.5 -10.5t4.5 -5.5q2 -4 2.5 -7.5t0.5 -8.5q0 -10 -4 -17q-17 3 -33 4t-32 1t-31.5 -1t-32.5 -4q-1 5 -1.5 9t-0.5 9q0 7 2 15q21 2 39.5 31t28.5 71l137 570q3 14 5 27 t2 27q0 19 -5 33t-19 15q-2 4 -3.5 7.5t-1.5 8.5q0 9 6 17q23 -3 45.5 -4t44.5 -1h9q21 0 41.5 1t43.5 4q3 -9 3 -18t-3 -15q-12 -1 -16.5 -7.5t-4.5 -17.5q0 -17 8 -39l13 -38l49 -142l49 142q10 28 10 55q0 19 -6.5 32.5t-20.5 14.5q-2 4 -3.5 7.5t-1.5 8.5q0 9 6 17 q23 -3 45.5 -4t44.5 -1h65q21 0 41.5 1t43.5 4q3 -9 3 -18t-3 -15q-32 -2 -44 -22.5t-12 -49.5q0 -20 4 -41.5t9 -40.5l122 -475q4 -18 11 -40.5t18 -43.5t27 -37.5t39 -22.5q2 -4 3.5 -7.5t1.5 -8.5q0 -10 -6 -17q-24 3 -46.5 4t-43.5 1q-23 0 -45.5 -1t-46.5 -4 q-3 9 -3 18t3 15q8 8 10.5 17t2.5 20q0 20 -7 42.5t-12 40.5l-140 548l-74 -209q-4 -11 -7.5 -27.5t-3.5 -32.5q0 -13 3.5 -23t11.5 -13q1 -4 2.5 -7.5t1.5 -8.5q0 -9 -5 -17q-15 3 -30 4t-30 1h-5q-14 0 -28 -1t-29 -4q-1 5 -1.5 9t-0.5 9q0 7 2 15z" />
<glyph unicode="N" horiz-adv-x="744" d="M588 209v489v117q0 34 9 56t21.5 34.5t27 17t25.5 4.5q19 0 34.5 -7t25.5 -18t15.5 -23.5t5.5 -24.5q0 -18 -7 -35t-21 -17q-6 62 -30 62q-8 0 -14.5 -5t-11.5 -12.5t-7.5 -16t-2.5 -15.5v-116v-569q0 -11 2 -28t7 -33.5t13 -28t20 -12.5q5 -7 10 -16q4 -10 4 -14 q0 -3 -2 -3q-68 0 -107.5 22.5t-63 54t-36.5 66.5t-29 59l-320 496v-563q0 -16 1 -34t4.5 -33t9.5 -25t16 -10q4 -7 4 -16q0 -10 -4 -17q-17 3 -33 4t-32 1t-31.5 -1t-32.5 -4q-1 5 -1.5 9t-0.5 9q0 7 2 15q10 1 16 12t8.5 26t3 32.5t0.5 31.5v570q0 11 -2 28t-7 33.5 t-13 28t-20 12.5q-5 7 -10 16q-2 3 -3 7t-1 10q19 -3 46.5 -4t43.5 -1h23q15 0 32 1t32.5 1.5t23.5 2.5q1 -5 1.5 -9t0.5 -9q0 -7 -2 -15q-3 -6 -3 -14q0 -15 8 -34.5t19.5 -40.5t24.5 -41l23 -36z" />
<glyph unicode="O" horiz-adv-x="659" d="M30 415q0 86 23.5 164t64 137.5t95 95t116.5 35.5q73 0 129 -35.5t94 -95t57.5 -137.5t19.5 -164t-24.5 -164t-66 -137.5t-97 -95t-117.5 -35.5q-51 0 -103.5 35.5t-95 95t-69 137.5t-26.5 164zM113 534q0 -48 2.5 -102.5t11.5 -107.5t27 -102.5t50 -86.5t80 -59.5 t116 -22.5q64 0 104 75t40 220q0 48 -3 99t-12.5 99t-29 91.5t-53 75.5t-82.5 51t-119 19q-23 0 -46.5 -12t-42.5 -40.5t-31 -76.5t-12 -120z" />
<glyph unicode="P" horiz-adv-x="611" d="M581 639q0 -47 -24.5 -82t-63 -62t-85.5 -49l-92 -42q-44 -21 -81 -43.5t-55 -51.5v-179q0 -16 1.5 -34t6.5 -33t14 -25t23 -10q5 -8 5 -16q0 -10 -6 -17q-24 3 -46.5 4t-45.5 1t-45.5 -1t-46.5 -4q-3 9 -3 18t3 15q15 1 23 12t12 26t4.5 32.5t0.5 31.5v570q0 11 -1 28 t-5 33.5t-13.5 28t-25.5 12.5q-5 8 -5 16q0 9 6 17q24 -3 46.5 -4t45.5 -1q32 0 60 2.5t60 2.5q79 0 141 -7.5t104.5 -29t65 -60t22.5 -99.5zM180 344q13 22 41.5 42t63.5 40l72 44q37 22 67.5 49.5t50 61.5t19.5 77q0 45 -17.5 73t-49.5 43.5t-76 21.5t-96 6h-5 q-23 0 -37 -0.5t-21.5 -4.5t-9.5 -12t-2 -23v-418z" />
<glyph unicode="Q" horiz-adv-x="581" d="M650 -53q0 20 15 34t37 14t37.5 -14t15.5 -34q0 -25 -18 -45t-44 -34t-55.5 -21.5t-53.5 -7.5q-34 0 -66 12.5t-62 34t-56 49.5t-48 60q-30 -12 -63 -12q-54 0 -101 35.5t-82.5 95t-55.5 137.5t-20 164t21 164t57 137.5t84 95t102 35.5t101 -35.5t81.5 -95t54.5 -137.5 t20 -164q0 -63 -11.5 -123.5t-32 -112.5t-48.5 -93.5t-62 -65.5q17 -23 38 -45.5t46 -39.5t54 -27.5t61 -10.5q44 0 75 11q-21 15 -21 39zM102 534q0 -44 5.5 -94t17 -100t28.5 -96.5t41 -85t54 -65t67 -35.5q-21 40 -32 78.5t-11 67.5q0 14 10 28.5t24 14.5q46 0 74 -22 t51 -53q0 -7 -5 -9q-12 5 -24 12.5t-25 7.5t-24.5 -12.5t-11.5 -26.5q0 -12 8.5 -36t25.5 -53q47 11 74.5 86.5t27.5 206.5q0 72 -17.5 149t-50.5 140.5t-80.5 104.5t-107.5 41q-20 0 -41.5 -12t-38.5 -40.5t-28 -76.5t-11 -120z" />
<glyph unicode="R" horiz-adv-x="561" d="M540 659q0 -37 -14 -62.5t-35 -43t-46.5 -28.5t-48.5 -18q0 -66 7.5 -130.5t20 -123t28.5 -108.5t32.5 -86.5t32 -57.5t27.5 -21q8 0 14 4t6 15q0 5 -1 10t-7 10h33q43 0 43 -58q0 -18 -6.5 -32t-17 -24t-23 -15t-24.5 -5q-37 0 -66.5 25.5t-52 69.5t-39 103.5t-26.5 127 t-15 140.5t-5 145q-18 -5 -43 -8l-50 -8q-25 -4 -47.5 -9.5t-36.5 -13.5v-327q0 -16 4 -34t12 -33t19.5 -25t25.5 -10q5 -8 5 -16q0 -10 -6 -17q-24 3 -54.5 4t-53.5 1t-45.5 -1t-46.5 -4q-3 9 -3 18t3 15q15 1 23 12t12 26t4.5 32.5t0.5 31.5v570q0 11 -1 28t-5 33.5 t-13.5 28t-25.5 12.5q-5 8 -5 16q0 9 6 17q24 -3 46.5 -4t45.5 -1q16 0 38.5 1t46.5 1.5t47 1.5t39 1q19 0 44 -1t52 -5.5t53 -15.5t46.5 -30.5t33 -49.5t12.5 -74zM180 488q23 12 54 18l62 14q32 7 63.5 16.5t56 26.5t39.5 45t15 71q0 45 -19.5 70t-46.5 36.5t-54.5 14 t-43.5 2.5h-5q-23 0 -45 -0.5t-39 -4.5t-27 -12t-10 -23v-274z" />
<glyph unicode="S" horiz-adv-x="792" d="M603 693q-5 10 -9 20.5t-10 20.5q-11 17 -27 32.5t-35 27t-39 18.5t-39 7q-21 0 -52.5 -10t-60 -29t-49 -47t-20.5 -63q0 -29 15.5 -49.5t40.5 -34t56.5 -20t63.5 -6.5q73 0 132.5 -27t102 -75.5t66 -114.5t23.5 -144q0 -74 -22 -139.5t-67.5 -114.5t-116.5 -77t-169 -28 q-19 0 -53.5 5t-74 20.5t-80.5 43t-74 72.5t-54 110t-21 154q0 22 7.5 48.5t23 48.5t40 37t59.5 15q17 0 34.5 -6t32 -18t23.5 -30.5t9 -42.5q0 -37 -17.5 -65t-52.5 -28q1 5 1 14q0 19 -17.5 35t-44.5 16q-14 0 -24.5 -6t-17 -15t-10 -19.5t-3.5 -19.5q0 -92 33 -156 t81 -104t102.5 -58.5t97.5 -18.5q63 0 120.5 16t101.5 51.5t70 92.5t26 138q0 37 -19.5 78.5t-54.5 77t-83.5 58.5t-107.5 23q-53 0 -103.5 16.5t-90 45t-63.5 66.5t-24 82q0 111 62.5 170.5t182.5 59.5q27 0 60.5 -7.5t59.5 -7.5q14 0 24.5 3.5t15.5 13.5q6 5 16 5t23 -5 q2 -45 12.5 -83t26.5 -73q-6 -6 -16 -6t-23 6z" />
<glyph unicode="T" horiz-adv-x="514" d="M418 130q0 -16 1.5 -34t6.5 -33t14 -25t23 -10q5 -8 5 -16q0 -10 -6 -17q-24 3 -46.5 4t-45.5 1h-10q-23 0 -45.5 -1t-46.5 -4q-6 7 -6 17q0 8 5 16q14 0 23 10t14 25t6.5 33t1.5 34v556q0 15 -2 35t-9.5 38t-21.5 30.5t-37 12.5h-55q-24 0 -43.5 -15t-34 -34.5 t-24.5 -40t-14 -30.5l-5 -12q-1 -4 -4.5 -4.5t-7.5 -0.5h-5q-10 0 -19 5l12 37l14 50.5t12.5 50.5t5.5 37q5 2 9 3t9 1q16 0 23 -3t13.5 -6.5t17.5 -6.5t36 -3q43 0 76.5 10.5t67.5 27.5l70 35q38 19 88 36.5t117.5 30.5t160.5 17q28 1 54.5 3t54.5 2q14 0 29.5 -1.5 t26.5 -3.5q7 -17 7 -36q0 -17 -4 -34.5t-6 -35.5q-14 -8 -27 -8q-12 0 -23 8q-9 21 -26.5 35t-37.5 22.5t-41 12t-38 3.5q-97 0 -158 -14.5t-95.5 -44.5t-47 -75t-12.5 -106v-584z" />
<glyph unicode="U" horiz-adv-x="582" d="M532 130q0 -16 1 -34t4.5 -33t9.5 -25t16 -10q4 -7 4 -16q0 -10 -4 -17q-16 8 -36.5 11.5t-43.5 3.5q-38 0 -76.5 -5t-66.5 -5q-68 0 -117 16.5t-80.5 45t-47 66t-15.5 79.5v493q0 11 -1 28t-5 33.5t-13.5 28t-25.5 12.5q-5 8 -5 16q0 9 6 17q24 -3 46.5 -4t45.5 -1 t45.5 1t46.5 4q3 -9 3 -18t-3 -15q-15 -1 -23 -12t-12 -26t-4.5 -32.5t-0.5 -31.5v-495q0 -29 6 -59t23 -55.5t47 -41.5t77 -16q27 0 50.5 10t41 30.5t27.5 52t10 74.5v500q0 11 -0.5 28t-3.5 33.5t-9.5 28t-18.5 12.5q-3 7 -3 16q0 10 4 17q17 -3 33 -4t32 -1t31.5 1 t32.5 4q1 -5 1.5 -9t0.5 -9q0 -7 -2 -15q-11 -1 -16.5 -12t-8 -26t-3 -32.5t-0.5 -31.5v-570z" />
<glyph unicode="V" horiz-adv-x="781" d="M316 28q12 1 16.5 7.5t4.5 17.5q0 17 -7 39l-14 38l-197 570q-4 10 -11.5 27t-18 33.5t-24.5 28.5t-30 13q-2 4 -3.5 7.5t-1.5 8.5q0 9 6 17q24 -3 46.5 -4t43.5 -1q23 0 45.5 1t46.5 4q3 -9 3 -18t-3 -15q-7 -2 -10 -11t-3 -21q0 -16 4.5 -34.5t9.5 -35.5l196 -567 l226 651q15 42 30 71t32 47t37 26t45 8q1 -5 1.5 -9t0.5 -9q0 -7 -2 -15q-11 -1 -21 -12t-19 -26t-16 -32.5t-12 -31.5l-233 -671q-10 -28 -10 -55q0 -19 6.5 -32.5t20.5 -14.5q2 -4 3.5 -7.5t1.5 -8.5q0 -10 -6 -17q-23 3 -45.5 4t-44.5 1h-9q-21 0 -41.5 -1t-43.5 -4 q-3 9 -3 18t3 15z" />
<glyph unicode="W" horiz-adv-x="1047" d="M582 28q12 1 16.5 7.5t4.5 17.5q0 17 -7 39l-14 38l-49 142l-49 -142q-10 -28 -10 -55q0 -19 6.5 -32.5t20.5 -14.5q2 -4 3.5 -7.5t1.5 -8.5q0 -10 -6 -17q-23 3 -45.5 4t-44.5 1h-9q-21 0 -41.5 -1t-43.5 -4q-3 9 -3 18t3 15q12 1 16.5 7.5t4.5 17.5q0 17 -7 39l-14 38 l-197 570q-4 10 -11.5 27t-18 33.5t-24.5 28.5t-30 13q-2 4 -3.5 7.5t-1.5 8.5q0 9 6 17q24 -3 46.5 -4t43.5 -1q23 0 45.5 1t46.5 4q3 -9 3 -18t-3 -15q-7 -2 -10 -11t-3 -21q0 -16 4.5 -34.5t9.5 -35.5l196 -567l83 240l-113 327q-4 10 -11.5 27t-18 33.5t-24.5 28.5 t-30 13q-2 4 -3.5 7.5t-1.5 8.5q0 9 6 17q24 -3 46.5 -4t43.5 -1q23 0 45.5 1t46.5 4q3 -9 3 -18t-3 -15q-7 -2 -10 -11t-3 -21q0 -16 4.5 -34.5t9.5 -35.5l63 -183l82 236q5 15 11 38.5t6 41.5q0 19 -9 22q-2 4 -2.5 7.5t-0.5 8.5q0 10 4 17q17 -3 33 -4t32 -1t31.5 1 t32.5 4q1 -5 1.5 -9t0.5 -9q0 -7 -2 -15q-11 -1 -21 -12t-19 -26t-16 -32.5t-12 -31.5l-117 -337l98 -283l228 668q5 15 11 38.5t6 41.5q0 19 -9 22q-2 4 -2.5 7.5t-0.5 8.5q0 10 4 17q17 -3 33 -4t32 -1t31.5 1t32.5 4q1 -5 1.5 -9t0.5 -9q0 -7 -2 -15q-11 -1 -21 -12 t-19 -26t-16 -32.5t-12 -31.5l-229 -671q-10 -28 -10 -55q0 -19 6.5 -32.5t20.5 -14.5q2 -4 3.5 -7.5t1.5 -8.5q0 -10 -6 -17q-23 3 -45.5 4t-44.5 1h-9q-21 0 -41.5 -1t-43.5 -4q-3 9 -3 18t3 15z" />
<glyph unicode="X" horiz-adv-x="649" d="M31 28q11 1 22.5 12t22.5 26t20.5 32.5t15.5 31.5l152 343l-100 227q-5 11 -15 28t-23 33.5t-28.5 28t-31.5 12.5q-2 4 -3 7.5t-2 8.5q0 8 7 17q23 -3 46 -4t46 -1t44 1t46 4q1 -5 2 -9t1 -9q-2 -11 -4 -15q-8 -3 -8 -19q0 -17 6.5 -40t15.5 -43l84 -190l127 292l8 18 q5 12 9 24t7 24t3 21q0 12 -6 15q-3 6 -3 16q0 5 0.5 9t2.5 8q18 -3 33.5 -4t31.5 -1t32 1t32 4q2 -5 2 -9v-9v-5q0 -7 -1 -10q-11 -1 -22.5 -12t-22.5 -26t-20.5 -32.5t-15.5 -31.5l-162 -371l134 -301q7 -16 18 -34t24 -33t27.5 -25t28.5 -10q2 -4 3 -7.5t2 -8.5 q0 -8 -7 -17q-68 0 -103 12.5t-53 33.5t-26 48.5t-21 57.5l-110 248l-118 -265q-11 -24 -19.5 -51t-8.5 -41q0 -10 5 -10q2 -3 3 -6.5t1 -9.5q0 -5 -0.5 -9t-2.5 -8q-18 3 -32.5 4t-30.5 1t-32 -1t-32 -4q-2 5 -2 9v9v5q0 7 1 10z" />
<glyph unicode="Y" horiz-adv-x="653" d="M252 28q15 1 23 12t12 26t4.5 32.5t0.5 31.5v208l-159 362q-5 11 -14.5 28t-22.5 33.5t-29 28t-32 12.5q-2 4 -3 7.5t-2 8.5q0 8 7 17q23 -3 46 -4t46 -1t44 1t46 4q1 -5 2 -9t1 -9q-2 -11 -4 -15q-8 -3 -8 -19q0 -17 6.5 -40t15.5 -43l119 -271l165 372q18 39 34.5 65 t34.5 41.5t37.5 22t43.5 6.5q2 -5 2 -9v-9v-5q0 -7 -1 -10q-11 -1 -22.5 -12t-22.5 -26t-20.5 -32.5t-15.5 -31.5l-194 -436v-235q0 -16 1.5 -34t6.5 -33t14 -25t23 -10q5 -8 5 -16q0 -10 -6 -17q-24 3 -46.5 4t-45.5 1t-45.5 -1t-46.5 -4q-3 9 -3 18t3 15z" />
<glyph unicode="Z" horiz-adv-x="653" d="M256 195q-23 -52 -23 -105q0 -30 16 -57.5t41.5 -51.5t59 -43.5t68 -33.5t68 -21.5t59.5 -7.5q17 0 39.5 3.5t46.5 12t47.5 22.5t42.5 35q13 8 26 8t24 -8q-6 -18 -10 -35.5t-12 -34.5q-8 -20 -23 -36q-12 -2 -28 -3.5t-30 -1.5q-28 0 -53.5 2.5t-53.5 2.5 q-71 0 -127.5 11.5t-101 29t-80.5 37.5l-64 38q-30 18 -54.5 29.5t-48.5 11.5h-17q-6 0 -10.5 -0.5t-11 -1.5t-19.5 -2q1 5 2 9t3 9q5 10 10 15q15 1 28 12t24 26t19.5 32.5t14.5 31.5l254 570q6 14 14.5 36t8.5 40q0 11 -4.5 18t-17.5 8h-79q-24 0 -50.5 -2t-49.5 -6 t-39.5 -10.5t-20.5 -15.5l-5 -11q-6 -5 -17 -5q-10 0 -19 5q7 23 11 47q4 19 4 38v8q5 2 9 3t9 1t9 -1t9 -3q10 -4 29.5 -7.5t43 -6.5t48 -4.5t45.5 -1.5h169q22 0 45 1t48 4q0 -8 -5 -18q-3 -9 -9 -15q-16 -1 -29 -12t-23.5 -26t-19 -32.5t-14.5 -31.5z" />
<glyph unicode="[" horiz-adv-x="296" d="M266 858q-23 9 -58 14t-61 6q-16 -114 -21.5 -219.5t-5.5 -218.5q0 -128 8.5 -245t23.5 -242q26 2 58 7t53 13q-1 -7 -1 -16v-20v-17q0 -9 1 -17q-23 6 -59.5 9t-62.5 3q-22 0 -54 -5t-57 -10q11 123 16.5 253t5.5 271q0 117 -4.5 240.5t-12.5 266.5q25 -5 56.5 -10 t52.5 -5q26 0 62.5 3t59.5 9q-1 -8 -1 -16v-18v-20q0 -9 1 -16z" />
<glyph unicode="\" horiz-adv-x="625" d="M595 -17q-18 6 -40 6q-20 0 -30 -6q-98 188 -219 400l-276 460q16 -6 35 -6q21 0 33 6q105 -221 230.5 -434t266.5 -426z" />
<glyph unicode="]" horiz-adv-x="296" d="M30 858q1 7 1 16v20v18q0 8 -1 16q23 -6 59.5 -9t62.5 -3q21 0 52.5 5t56.5 10q-8 -143 -12.5 -266.5t-4.5 -240.5q0 -141 5.5 -271t16.5 -253q-25 5 -57 10t-54 5q-26 0 -62.5 -3t-59.5 -9q1 8 1 17v17v20q0 9 -1 16q21 -8 53 -13t58 -7q15 125 23.5 242t8.5 245 q0 113 -5.5 218.5t-21.5 219.5q-26 -1 -61 -6t-58 -14z" />
<glyph unicode="^" horiz-adv-x="542" d="M190 643q-11 -20 -22.5 -37t-26 -29t-33.5 -19t-44 -7h-34l152 260q9 17 19.5 28.5t30.5 11.5h82q12 0 19.5 -3.5t12 -9.5t7.5 -13t7 -14l152 -260h-28q-26 0 -44 4.5t-31.5 14t-24.5 24.5t-22 35l-90 156z" />
<glyph unicode="_" horiz-adv-x="379" d="M-1 -72h381v-37h-381v37z" />
<glyph unicode="`" horiz-adv-x="163" d="M37 866q-7 14 -7 22t5 10.5t13 2.5q11 0 24.5 -6.5t25.5 -28.5q5 -9 11 -22t11.5 -27.5t9 -27.5t3.5 -20q0 -8 -4 -8q-6 0 -18.5 12.5t-27 29.5t-27.5 34.5t-19 28.5z" />
<glyph unicode="a" horiz-adv-x="478" d="M17 140q0 45 20 84.5t57 71t90.5 55t119.5 37.5q-8 111 -109 111q-18 0 -29 -5.5t-16 -13t-6.5 -16.5t-1.5 -15q0 -18 16 -31q3 -3 3 -6q0 -8 -15.5 -18t-38.5 -10q-26 0 -42 14.5t-16 41.5q0 14 17.5 33t44.5 36.5t58 29.5t58 12q51 0 85.5 -15.5t55 -39t29 -50 t8.5 -48.5v-268q0 -14 0.5 -31.5t4.5 -32.5t12 -26t23 -12q3 -6 3 -15t-3 -18q-58 0 -87 14t-41 40q-33 -28 -75 -47t-77 -19q-27 0 -53.5 10t-47.5 30t-34 49t-13 68zM103 177q0 -25 7.5 -47t23.5 -38.5t40.5 -26.5t57.5 -10q15 0 28 7.5t23 25.5t16 48.5t6 77.5v115 q-5 -3 -22 -5.5t-39 -6.5t-47 -11.5t-45.5 -20t-34.5 -31.5t-14 -47v-30z" />
<glyph unicode="b" horiz-adv-x="562" d="M180 470l34 30q17 15 35 26t39.5 18t48.5 7q30 0 64 -17t63.5 -47.5t48.5 -74t19 -97.5q0 -86 -24.5 -148.5t-61.5 -103.5t-80.5 -60.5t-81.5 -19.5q-27 0 -62.5 17.5t-67 50.5t-53 82t-21.5 112v455q0 11 -1 28t-5 33.5t-13.5 28t-25.5 12.5q-5 8 -5 16q0 9 6 17 q59 0 86.5 19.5t27.5 45.5q10 0 20 -11t10 -22v-397zM180 260q1 -69 9.5 -110t28.5 -62.5t52 -28t80 -6.5q15 0 31.5 12.5t30.5 36.5t23.5 60t9.5 83q0 67 -9.5 113.5t-28.5 74.5t-46 40.5t-62 12.5q-17 0 -37.5 -9.5t-38.5 -33t-30.5 -64.5t-12.5 -104v-15z" />
<glyph unicode="c" horiz-adv-x="483" d="M356 360q-5 5 -8.5 10t-3.5 15l11 9q10 9 10 18q0 8 -1.5 18.5t-8.5 16.5q-18 16 -43.5 27.5t-52.5 11.5q-43 0 -70.5 -5.5t-44 -24t-23 -55.5t-6.5 -100q0 -50 4 -95t24.5 -79t62.5 -54t117 -20q10 0 21.5 7t21 16t15.5 19t6 16t-6 9l-7 4v5q0 11 13 21 q16 -14 32.5 -21.5t33.5 -11.5q-10 -26 -31.5 -50t-48.5 -43t-57.5 -30t-58.5 -11q-27 0 -66 16t-74.5 48t-61 79.5t-25.5 110.5q0 78 22 137t57.5 98t79.5 59t88 20q54 0 100 -37t72 -93q3 -6 3 -13q-27 -7 -50 -19.5t-46 -28.5z" />
<glyph unicode="d" horiz-adv-x="561" d="M30 189q0 78 15.5 144.5t44 114.5t69 75.5t89.5 27.5q12 0 30 -3.5t36.5 -10t36.5 -17.5t30 -26v206q0 11 -1 28t-5 33.5t-13.5 28t-25.5 12.5q-5 8 -5 16q0 9 6 17q59 0 86.5 19.5t27.5 45.5q10 0 20 -11t10 -22v-737q0 -16 1.5 -34t6.5 -33t14 -25t23 -10q5 -8 5 -16 q0 -10 -6 -17q-24 3 -46.5 4t-45.5 1q-19 0 -32 19t-18 67q-18 -20 -40.5 -39t-47.5 -33t-51.5 -22.5t-53.5 -8.5q-20 0 -47.5 8.5t-52.5 31.5t-42.5 63t-17.5 103zM115 253q0 -70 7 -110t23.5 -60t43.5 -25t67 -5q14 0 35.5 14t41.5 38t34 57.5t14 72.5v8q0 67 -14 113.5 t-37.5 75.5t-54.5 41.5t-65 12.5q-46 0 -70.5 -53.5t-24.5 -179.5z" />
<glyph unicode="e" horiz-adv-x="502" d="M122 212q17 -90 66 -124.5t130 -34.5q10 0 22 7t22.5 16t17.5 19t7 16t-6 9l-7 4v5q0 11 13 21q16 -14 32.5 -21.5t33.5 -11.5q-10 -26 -32 -50t-50 -43t-59.5 -30t-59.5 -11q-27 0 -65 16t-73 48t-59.5 79.5t-24.5 110.5q0 78 28.5 137t67.5 98t80 59t66 20 q37 0 72.5 -16t63 -46t45 -73t19.5 -97q-43 0 -88.5 -8.5t-91 -23.5t-88.5 -34.5t-82 -40.5zM115 301q0 -32 3 -57q57 32 129 60.5t142 42.5q-5 67 -43.5 103t-91.5 36q-17 0 -40.5 -5.5t-45.5 -24t-37.5 -55.5t-15.5 -100z" />
<glyph unicode="f" horiz-adv-x="510" d="M-30 -220q25 0 44 17.5t32 43.5t20 55.5t7 54.5v704q0 55 12 101.5t37.5 80t65 52.5t93.5 19q56 0 94 -15.5t61 -43t33.5 -65t10.5 -81.5v-27l-20 12q-9 6 -20 11q-21 8 -38 12q-2 5 -2 14v7q0 3 2 6h4q16 0 16 27q0 11 -3.5 30t-15.5 37.5t-35 32t-61 13.5t-63.5 -19.5 t-41 -51.5t-22.5 -73t-7 -84v-116h26q18 0 35 1.5t31 5t22.5 11t8.5 19.5q7 5 16.5 9t20.5 4v-4q0 -27 1 -46t5.5 -34t13.5 -29t24 -31q-5 -8 -15.5 -10.5t-21.5 -2.5q-13 19 -23.5 32.5t-24.5 22.5t-33.5 13t-49.5 4h-36v-553q0 -33 -12 -68t-35 -63.5t-55.5 -46.5 t-74.5 -18q-30 0 -62 8.5t-58 28t-42.5 50.5t-16.5 76q0 19 14.5 36t34.5 17q33 0 41.5 -16.5t8.5 -34.5q0 -16 -12 -30.5t-29 -14.5v-21q0 -11 7 -23t20 -22.5t30 -17t38 -6.5z" />
<glyph unicode="g" horiz-adv-x="472" d="M522 -77q0 -27 -16.5 -57t-48.5 -56t-78.5 -43t-105.5 -17h-60q-30 0 -67 7t-69 22.5t-54 41t-22 62.5q0 44 32.5 72.5t79.5 44.5q-25 0 -45.5 3.5t-35.5 13.5t-23 27.5t-8 46.5q0 36 20 60t49 32q-25 23 -41 54.5t-16 69.5q0 55 24 100t59 77t74.5 49.5t71.5 17.5 q20 0 36 -4.5t30 -11.5t26 -15l24 -14q3 23 10.5 38t22.5 21q17 7 25 13.5t8 20.5q10 0 20 -11t11 -22v-203q0 -60 -24 -105t-60 -75.5t-78.5 -45.5t-80.5 -15q-23 0 -51.5 9t-55.5 26q-35 -3 -44 -16t-9 -29q0 -13 10 -21t23.5 -12.5t28 -6.5t24.5 -2h33q35 0 74.5 -2.5 t78.5 -8.5t75 -16t63 -26.5t43.5 -39.5t16.5 -54zM98 352q0 -52 9.5 -84t30.5 -49t55 -23t83 -6q15 0 31 7t29.5 22t22.5 38.5t9 56.5q0 47 -13 80t-35.5 53.5t-52.5 29.5t-65 9q-17 0 -35 -4.5t-33.5 -18.5t-25.5 -40.5t-10 -70.5zM87 -98q0 -21 19 -34.5t47 -22t60.5 -12 t59.5 -3.5h74q51 0 79.5 24t28.5 74q0 17 -16 29.5t-41.5 20.5t-58 12.5t-66 6.5t-65 2.5t-55.5 0.5q-41 -21 -53.5 -44t-12.5 -54z" />
<glyph unicode="h" horiz-adv-x="578" d="M396 28q12 1 18.5 12t9.5 26t3.5 32.5t0.5 31.5v169q0 55 -12 91t-33 57.5t-50 30t-64 8.5q-20 0 -44.5 -4t-44.5 -29v-323q0 -16 1.5 -34t6.5 -33t14 -25t23 -10q5 -8 5 -16q0 -10 -6 -17q-24 3 -46.5 4t-45.5 1t-45.5 -1t-46.5 -4q-3 9 -3 18t3 15q15 1 23 12t12 26 t4.5 32.5t0.5 31.5v570q0 11 -1 28t-5 33.5t-13.5 28t-25.5 12.5q-5 8 -5 16q0 9 6 17q59 0 86.5 19.5t27.5 45.5q10 0 20 -11t10 -22v-359q29 22 61.5 32.5t65.5 10.5q30 0 65 -7t65 -25.5t50.5 -52t20.5 -86.5v-250q0 -16 1.5 -34t5 -33t10.5 -25t19 -10q2 -4 3 -7.5 t1 -8.5q0 -9 -5 -17q-20 3 -38 4t-36 1t-36 -1t-37 -4q-3 9 -3 18t3 15z" />
<glyph unicode="i" d="M80 782q0 22 14.5 37.5t35.5 15.5t35.5 -15.5t14.5 -37.5t-14.5 -37.5t-35.5 -15.5t-35.5 15.5t-14.5 37.5zM40 28q15 1 23 12t12 26t4.5 32.5t0.5 31.5v268q0 11 -1 28t-5 33.5t-13.5 28t-25.5 12.5q-5 8 -5 16q0 9 6 17q59 0 86.5 19.5t27.5 45.5q10 0 20 -11t10 -22 v-435q0 -16 1.5 -34t6.5 -33t14 -25t23 -10q5 -8 5 -16q0 -10 -6 -17q-24 3 -46.5 4t-45.5 1t-45.5 -1t-46.5 -4q-3 9 -3 18t3 15z" />
<glyph unicode="j" horiz-adv-x="257" d="M80 782q0 22 14.5 37.5t35.5 15.5t35.5 -15.5t14.5 -37.5t-14.5 -37.5t-35.5 -15.5t-35.5 15.5t-14.5 37.5zM180 -57q0 -33 -12 -68t-35 -63.5t-55.5 -46.5t-74.5 -18q-30 0 -62 8.5t-58 28t-42.5 50.5t-16.5 76q0 19 14.5 36t34.5 17q33 0 41.5 -16.5t8.5 -34.5 q0 -16 -12 -30.5t-29 -14.5v-21q0 -11 7 -23t20 -22.5t30 -17t38 -6.5q25 0 44 17.5t32 43.5t20 55.5t7 54.5v450q0 11 -1 28t-5 33.5t-13.5 28t-25.5 12.5q-5 8 -5 16q0 9 6 17q59 0 86.5 19.5t27.5 45.5q10 0 20 -11t10 -22v-622z" />
<glyph unicode="k" horiz-adv-x="561" d="M40 28q15 1 23 12t12 26t4.5 32.5t0.5 31.5v570q0 11 -1 28t-5 33.5t-13.5 28t-25.5 12.5q-5 8 -5 16q0 9 6 17q59 0 86.5 19.5t27.5 45.5q10 0 20 -11t10 -22v-562l81 93l48 53q23 25 47 43.5t49 29t54 10.5q2 -5 3 -6t1 -10q0 -6 -2.5 -9.5t-5.5 -6.5 q-10 -1 -24.5 -10.5t-30.5 -23.5t-32 -30l-29 -30l99 -273q6 -16 15 -34t20.5 -33t25 -25t27.5 -10q5 -8 5 -16q-1 -5 -2 -9t-5 -8q-40 3 -69.5 12t-52.5 28.5t-42 52.5t-38 86l-54 148l-88 -100v-97q0 -16 1.5 -34t6.5 -33t14 -25t23 -10q5 -8 5 -16q0 -10 -6 -17 q-24 3 -46.5 4t-45.5 1t-45.5 -1t-46.5 -4q-3 9 -3 18t3 15z" />
<glyph unicode="l" d="M40 28q15 1 23 12t12 26t4.5 32.5t0.5 31.5v570q0 11 -1 28t-5 33.5t-13.5 28t-25.5 12.5q-5 8 -5 16q0 9 6 17q59 0 86.5 19.5t27.5 45.5q10 0 20 -11t10 -22v-737q0 -16 1.5 -34t6.5 -33t14 -25t23 -10q5 -8 5 -16q0 -10 -6 -17q-24 3 -46.5 4t-45.5 1t-45.5 -1 t-46.5 -4q-3 9 -3 18t3 15z" />
<glyph unicode="m" horiz-adv-x="850" d="M668 28q12 1 18.5 12t9.5 26t3.5 32.5t0.5 31.5v169q0 55 -7 91t-22 57.5t-39 30t-59 8.5q-9 0 -24 -1t-31 -4t-30 -8.5t-23 -15.5q11 -33 11 -77v-250q0 -16 1.5 -34t5 -33t10.5 -25t19 -10q2 -4 3 -7.5t1 -8.5q0 -9 -5 -17q-20 3 -38 4t-36 1t-36 -1t-37 -4q-3 9 -3 18 t3 15q12 1 18.5 12t9.5 26t3.5 32.5t0.5 31.5v169q0 55 -7 91t-22 57.5t-39 30t-59 8.5q-20 0 -44.5 -4t-44.5 -29v-323q0 -16 1.5 -34t6.5 -33t14 -25t23 -10q5 -8 5 -16q0 -10 -6 -17q-24 3 -46.5 4t-45.5 1t-45.5 -1t-46.5 -4q-3 9 -3 18t3 15q15 1 23 12t12 26t4.5 32.5 t0.5 31.5v268q0 11 -1 28t-5 33.5t-13.5 28t-25.5 12.5q-5 8 -5 16q0 9 6 17q59 0 86.5 19.5t27.5 45.5q10 0 20 -11t10 -22v-57q29 22 61.5 32.5t65.5 10.5q17 0 36 -2t37 -7.5t33.5 -14.5t26.5 -22q11 13 30 21.5t40 14t42.5 8t36.5 2.5q30 0 63.5 -7t62 -25.5t47 -52 t18.5 -86.5v-250q0 -16 1.5 -34t5 -33t10.5 -25t19 -10q2 -4 3 -7.5t1 -8.5q0 -9 -5 -17q-20 3 -38 4t-36 1t-36 -1t-37 -4q-3 9 -3 18t3 15z" />
<glyph unicode="n" horiz-adv-x="578" d="M396 28q12 1 18.5 12t9.5 26t3.5 32.5t0.5 31.5v169q0 55 -12 91t-33 57.5t-50 30t-64 8.5h-21q-12 0 -23.5 -2t-23 -8.5t-21.5 -18.5v-327q0 -16 1.5 -34t6.5 -33t14 -25t23 -10q5 -8 5 -16q0 -10 -6 -17q-24 3 -46.5 4t-45.5 1t-45.5 -1t-46.5 -4q-3 9 -3 18t3 15 q15 1 23 12t12 26t4.5 32.5t0.5 31.5v268q0 11 -1 28t-5 33.5t-13.5 28t-25.5 12.5q-5 8 -5 16q0 9 6 17q59 0 86.5 19.5t27.5 45.5q10 0 20 -11t10 -22v-53q29 22 61.5 30.5t65.5 8.5q30 0 65 -7t65 -25.5t50.5 -52t20.5 -86.5v-250q0 -16 1.5 -34t5 -33t10.5 -25t19 -10 q2 -4 3 -7.5t1 -8.5q0 -9 -5 -17q-20 3 -38 4t-36 1t-36 -1t-37 -4q-3 9 -3 18t3 15z" />
<glyph unicode="o" horiz-adv-x="502" d="M30 237q0 78 25 137t61.5 98t78.5 59t77 20q30 0 65 -16.5t65 -47t50 -73.5t20 -97q0 -86 -26 -149t-64.5 -104t-83.5 -61t-83 -20q-27 0 -59.5 16t-60 48t-46.5 79.5t-19 110.5zM115 301q0 -74 7.5 -122t26.5 -76t51 -39t81 -11q15 0 33 12.5t33.5 37.5t26.5 61t11 83 q0 67 -10.5 113t-30 74t-47.5 40t-63 12q-17 0 -37.5 -5.5t-38.5 -24t-30.5 -55.5t-12.5 -100z" />
<glyph unicode="p" horiz-adv-x="525" d="M35 501q-5 8 -5 16q0 9 6 17q59 0 86.5 19.5t27.5 45.5q10 0 20 -11t12 -22v-63q15 8 32.5 16.5t36 15.5t35.5 11.5t31 4.5q38 0 70.5 -16.5t56.5 -47t37.5 -73.5t13.5 -97q0 -48 -15.5 -90.5t-35.5 -74.5q-27 -45 -55 -72.5t-54.5 -45.5t-50 -28.5t-43.5 -21.5 t-35.5 -24.5t-23.5 -37.5v-93q0 -13 -5 -33.5t-15.5 -40.5t-26.5 -36t-39 -21q-14 -3 -27 -2.5t-27 -1.5q-3 9 -3 18t3 15q14 1 22 11t11.5 24.5t4 31t0.5 30.5v575q0 11 -1 28t-5 33.5t-13.5 28t-25.5 12.5zM182 1q7 18 29 27.5t50 20.5t58.5 29t55.5 53q14 21 23.5 49.5 t9.5 66.5q0 67 -4 113t-17.5 74t-39 40t-68.5 12q-8 0 -21 -3t-26.5 -8.5t-27 -12.5t-22.5 -15v-446z" />
<glyph unicode="q" horiz-adv-x="545" d="M465 -171q0 -16 1.5 -34t6.5 -33t14 -25t23 -10q5 -8 5 -16q0 -10 -6 -17q-36 0 -63 4t-45 23t-27 57t-9 106v168q-17 -14 -35.5 -26t-37.5 -22t-37.5 -15.5t-34.5 -5.5q-27 0 -60 16t-62 48t-48.5 79.5t-19.5 110.5q0 62 17.5 118.5t49 100t75.5 69.5t98 26 q10 0 22.5 -4.5t25.5 -11.5t26 -15l25 -15q3 23 10.5 38.5t22.5 21.5q17 7 25 13.5t8 20.5q10 0 20 -11t10 -22v-737zM115 301q0 -74 8.5 -122t28.5 -76t52.5 -39t81.5 -11q18 0 41.5 23.5t37.5 56.5v257q-18 46 -53 71t-80 25q-21 0 -42 -5.5t-37.5 -24t-27 -55.5 t-10.5 -100z" />
<glyph unicode="r" horiz-adv-x="472" d="M180 512q29 22 67 30.5t71 8.5q17 0 39.5 -1t39.5 -7q20 -7 32.5 -24t12.5 -39q0 -14 -4 -28t-11.5 -25t-18.5 -18.5t-24 -7.5q-23 0 -38.5 10t-15.5 18q0 3 3 6q16 13 16 31q0 13 -10.5 23t-32.5 10q-10 0 -27 -2t-36 -6.5t-36 -13t-27 -20.5v-327q0 -16 1.5 -34 t6.5 -33t14 -25t23 -10q5 -8 5 -16q0 -10 -6 -17q-24 3 -46.5 4t-45.5 1t-45.5 -1t-46.5 -4q-3 9 -3 18t3 15q15 1 23 12t12 26t4.5 32.5t0.5 31.5v268q0 11 -1 28t-5 33.5t-13.5 28t-25.5 12.5q-5 8 -5 16q0 9 6 17q59 0 86.5 19.5t27.5 45.5q10 0 20 -11t10 -22v-53z" />
<glyph unicode="s" horiz-adv-x="510" d="M412 140q0 43 -25.5 67.5t-64.5 39t-83.5 24.5t-83.5 24.5t-64.5 38t-25.5 65.5q0 27 18.5 54t48 49t66.5 35.5t74 13.5q40 0 67.5 -10t47 -27t33.5 -41t27 -52q3 -6 3 -13q-27 -7 -50 -19.5t-46 -28.5q-5 5 -8.5 10t-3.5 15l11 9q10 9 10 18q0 28 -28 51t-82 23 q-42 0 -64.5 -8.5t-33 -20.5t-12 -26t-1.5 -26q0 -19 25 -31t63 -22l81 -24q44 -12 81.5 -32.5t62.5 -52.5t25 -81q0 -41 -25 -74.5t-61 -56.5t-75.5 -35.5t-68.5 -12.5q-39 0 -78 14.5t-70.5 40t-51.5 61.5t-20 80q18 0 45 2.5t46 11.5q7 -7 7 -19q0 -2 -2 -10l-8 -2 q-2 -8 -2 -13q0 -19 13.5 -34.5t33.5 -27.5t44.5 -20.5t47 -13.5t39.5 -7.5t23 -2.5q26 0 44 11.5t29.5 27t16.5 32t5 26.5z" />
<glyph unicode="t" horiz-adv-x="408" d="M205 499v-548q0 -20 4.5 -44t13.5 -47q5 -14 10.5 -22.5t11.5 -8.5t15 12q12 17 28 17q17 0 28 -15.5t11 -38.5q0 -12 -6 -22t-15 -17t-20 -11t-21 -4q-42 0 -72 18t-49.5 46.5t-29 63.5t-9.5 68v553h-56q-11 8 -15 17t-4 18h75v166q0 11 -1 28t-5 33.5t-13.5 28 t-25.5 12.5q-5 8 -5 16q0 9 6 17q59 0 86.5 19.5t27.5 45.5q10 0 20 -11t10 -22v-333q17 0 33.5 1.5t29.5 5.5t21 11t8 19q7 5 16.5 9t20.5 4v-4q0 -27 1 -46t5.5 -34t13.5 -29t24 -31q-5 -8 -15.5 -10.5t-21.5 -2.5q-13 19 -23.5 32.5t-24.5 22.5t-33.5 13t-49.5 4h-5z" />
<glyph unicode="u" horiz-adv-x="573" d="M180 177q0 -72 26.5 -114t68.5 -42q27 0 53.5 8t47.5 26t34 46.5t13 69.5v227q0 11 -0.5 28t-4 33.5t-11 28t-20.5 12.5q-2 4 -3 7.5t-1 8.5q0 9 5 17q47 0 69 19.5t22 45.5q8 0 16 -11t8 -22v-435q0 -16 1.5 -34t5.5 -33t11 -25t18 -10q2 -4 3 -7.5t1 -8.5q0 -9 -5 -17 q-48 4 -72 21t-33 40q-29 -29 -76.5 -51t-106.5 -22q-32 0 -62.5 9t-54.5 31.5t-38.5 60.5t-14.5 96v219q0 11 -1 28t-5 33.5t-13.5 28t-25.5 12.5q-5 8 -5 16q0 9 6 17q24 -3 46.5 -4t45.5 -1t45.5 1t46.5 4q3 -9 3 -18t-3 -15q-15 -1 -23 -12t-12 -26t-4.5 -32.5 t-0.5 -31.5v-222z" />
<glyph unicode="v" horiz-adv-x="571" d="M229 28q14 0 14 22q0 18 -7 42t-12 39l-99 273q-4 11 -12.5 27t-20 31t-26 25.5t-30.5 11.5q-5 8 -5 16q1 5 2 9t5 8q23 -3 45.5 -4t45.5 -1q22 0 44.5 1t47.5 4q1 -5 1.5 -9t0.5 -9q0 -9 -3 -15q-20 -1 -20 -23q0 -17 8.5 -35.5t15.5 -36.5l93 -257l91 251q5 13 11 33.5 t6 37.5q0 13 -2 21.5t-16 9.5q-6 7 -6 16t6 17q29 0 49 6t32.5 16t20 22.5t12.5 25.5q10 0 16 -11q4 -7 4 -13q0 -5 -2 -9l-158 -435q-7 -19 -13.5 -40t-6.5 -37q0 -11 4.5 -20.5t16.5 -9.5q5 -8 5 -16q0 -11 -5 -17q-25 3 -40.5 4t-38.5 1q-21 0 -35.5 -1t-37.5 -4 q-4 8 -4 18q0 9 3 15z" />
<glyph unicode="w" horiz-adv-x="858" d="M228 28q14 0 14 22q0 18 -7 42t-12 39l-99 273q-4 11 -12.5 27t-20 31t-26 25.5t-30.5 11.5q-5 8 -5 16q1 5 2 9t5 8q23 -3 45.5 -4t45.5 -1q22 0 44.5 1t47.5 4q1 -5 1.5 -9t0.5 -9q0 -9 -3 -15q-20 -1 -20 -23q0 -17 8.5 -35.5t15.5 -36.5l93 -257l91 251q2 6 3 10 q-5 12 -13 27.5t-19.5 29.5t-25 24t-29.5 11q-5 8 -5 16q1 5 2 9t5 8q23 -3 45.5 -4t45.5 -1q22 0 44.5 1t47.5 4q1 -5 1.5 -9t0.5 -9q0 -9 -3 -15q-20 -1 -20 -23q0 -17 8.5 -35.5t15.5 -36.5l93 -257l91 251q5 13 11 33.5t6 37.5q0 13 -2 21.5t-16 9.5q-6 7 -6 16t6 17 q29 0 49 6t32.5 16t20 22.5t12.5 25.5q10 0 16 -11q4 -7 4 -13q0 -5 -2 -9l-158 -435q-7 -19 -13.5 -40t-6.5 -37q0 -11 4.5 -20.5t16.5 -9.5q5 -8 5 -16q0 -11 -5 -17q-25 3 -40.5 4t-38.5 1q-21 0 -35.5 -1t-37.5 -4q-4 8 -4 18q0 9 3 15q14 0 14 22q0 18 -7 42t-12 39 l-66 181l-65 -178q-7 -19 -13.5 -40t-6.5 -37q0 -11 4.5 -20.5t16.5 -9.5q5 -8 5 -16q0 -11 -5 -17q-25 3 -40.5 4t-38.5 1q-21 0 -35.5 -1t-37.5 -4q-4 8 -4 18q0 9 3 15z" />
<glyph unicode="x" horiz-adv-x="632" d="M403 28q15 1 15 14q0 8 -5 18.5t-13 22.5t-17 24t-16 23l-70 101l-71 -101l-19 -26l-19 -27q-8 -13 -13.5 -24t-5.5 -17q0 -8 9 -8q2 -4 3 -7.5t1 -8.5q0 -10 -4 -17q-18 3 -35.5 4t-35.5 1t-36.5 -1t-38.5 -4q-1 5 -1.5 9t-0.5 9q0 7 2 15q12 1 28 12t32 26t30.5 32.5 t24.5 31.5l110 158l-81 116q-8 11 -22.5 27.5t-31.5 31.5t-36 26t-36 12q-5 8 -5 16q0 5 2 9l4 8q24 -3 47 -4t46 -1t45 1t46 4q3 -9 3 -18t-3 -15q-14 -1 -14 -12q0 -8 6 -18t14 -21l17 -23l18 -23l62 -90l60 85q6 9 16 21l18 26q10 13 16.5 25t6.5 20q0 10 -11 10 q-2 4 -3 7.5t-1 8.5q0 9 5 17q23 0 46 5t42.5 14t35.5 21t25 25q8 0 8 -12q0 -9 -7 -21l-217 -309l89 -127q11 -16 26 -34t31.5 -33t33 -25t30.5 -10q5 -8 5 -16q0 -5 -2 -9l-4 -8q-24 3 -47 4t-46 1t-45 -1t-46 -4q-3 9 -3 18t3 15z" />
<glyph unicode="y" horiz-adv-x="575" d="M35 -192q0 26 17.5 43.5t43.5 17.5q17 0 30 -8t22 -20q4 -7 14 -7q15 0 33 19q18 23 32 48.5t22 46.5l18 51l-144 400q-4 11 -12 28t-19.5 33.5t-26 28t-30.5 12.5q-5 8 -5 16q1 5 2 9t5 8q23 -3 45.5 -4t45.5 -1q22 0 44.5 1t47.5 4q1 -5 1.5 -9t0.5 -9q0 -9 -3 -15 q-11 -1 -15.5 -7.5t-4.5 -16.5q0 -17 8 -39l15 -39l95 -263l95 262l12 36q8 21 8 39q0 11 -4.5 18.5t-17.5 8.5q-4 5 -4.5 9.5t-0.5 9.5q0 7 5 14q29 0 49 4t33 11.5t20.5 18t12.5 23.5q10 0 16 -11q4 -7 4 -13q0 -5 -2 -9l-226 -622q-12 -33 -32 -66.5t-48 -60.5t-63 -44 t-78 -17q-26 0 -43.5 17.5t-17.5 43.5z" />
<glyph unicode="z" horiz-adv-x="536" d="M36 -5q-6 7 -6 15q0 9 7 18q14 13 22 21.5t15.5 18t17.5 23.5l28 39l194 274q4 6 11.5 15.5t14.5 21t12 23t5 21.5q0 16 -15 21h-48q-24 0 -49.5 -1t-47 -3t-37.5 -6t-21 -11l-8 -11q-8 -5 -18 -5q-11 0 -18 5q13 23 17 40l9 40q5 2 9.5 3t9.5 1t8.5 -1t8.5 -3 q9 -4 27.5 -7.5t41 -6.5t46.5 -4.5t45 -1.5h138h17q7 0 12 0.5t10 1.5t12 2q0 -5 -2 -9l-3 -9q-5 -14 -16.5 -29.5t-24.5 -30.5l-25 -30q-13 -14 -21 -26l-195 -274q-3 -4 -9 -13.5t-12 -21.5t-11 -25t-5 -22q0 -15 14 -15h78q16 0 44 1.5t56.5 7t52.5 16.5t32 30 q13 10 22 10q10 0 16 -11l-9 -26q-4 -12 -10 -25q-6 -17 -23 -36q-11 -2 -27.5 -3.5t-30.5 -1.5q-28 0 -53.5 2.5t-53.5 2.5z" />
<glyph unicode="{" horiz-adv-x="292" d="M217 571q-3 -33 -8.5 -55.5t-15 -40.5t-24 -32.5t-36.5 -30.5v-10q45 -23 62.5 -57.5t18.5 -68.5q2 -77 6.5 -151t12.5 -125h-9q-33 48 -57.5 120t-35.5 160q-2 15 -8.5 28t-18.5 27t-30 29l-44 36v14q51 35 75.5 79t30.5 82q14 88 42 156.5t66 111.5h18 q-16 -59 -26.5 -123.5t-18.5 -148.5z" />
<glyph unicode="|" horiz-adv-x="130" d="M100 -17q-14 6 -36 6q-19 0 -34 -6q12 204 12 437q0 100 -2.5 204.5t-7.5 218.5q12 -6 31 -6q20 0 37 6q-11 -104 -15.5 -206t-4.5 -204q0 -114 5 -226t15 -224z" />
<glyph unicode="}" horiz-adv-x="292" d="M75 571q-8 84 -18.5 148.5t-26.5 123.5h18q38 -43 66 -111.5t42 -156.5q6 -38 30.5 -82t75.5 -79v-14q-26 -20 -44 -35.5t-30 -29.5t-18.5 -27t-8.5 -28q-11 -88 -35.5 -160t-57.5 -120h-9q8 51 12.5 125t6.5 151q1 34 18.5 68.5t62.5 57.5v10q-22 16 -36.5 30.5 t-24 32.5t-15 40.5t-8.5 55.5z" />
<glyph unicode="~" horiz-adv-x="972" d="M30 655q16 43 44 78t63 59.5t75.5 37.5t83.5 13q46 0 80.5 -15t63 -37.5t54 -48.5t53.5 -48.5t60.5 -37.5t76.5 -15q36 0 68.5 13.5t55.5 40.5q10 12 17.5 22t15 17.5t15.5 12t20 4.5q18 0 48 -12l18 -6q-17 -44 -44.5 -78.5t-62.5 -59t-75.5 -37.5t-83.5 -13 q-45 0 -79.5 15t-64 37.5t-56 48.5t-54.5 48.5t-60.5 37.5t-73.5 15q-36 0 -68.5 -13.5t-55.5 -40.5q-11 -12 -18 -22.5t-14.5 -18t-15.5 -11.5t-20 -4q-18 0 -48 12z" />
<glyph unicode="&#xa1;" horiz-adv-x="234" d="M30 847q0 22 14.5 37.5t35.5 15.5t35.5 -15.5t14.5 -37.5t-14.5 -37.5t-35.5 -15.5t-35.5 15.5t-14.5 37.5zM38 761q16 -8 36 -8q21 0 48 8l8 -578q0 -11 4.5 -28t13.5 -33.5t21.5 -28t29.5 -12.5q5 -8 5 -16q0 -10 -6 -17q-29 0 -54.5 -5t-44 -14t-29 -21t-10.5 -25 q-10 0 -20 11t-10 22z" />
<glyph unicode="&#xa2;" horiz-adv-x="483" d="M72 -60l25 52l24 51q-38 32 -64.5 80t-26.5 114q0 78 22 137t57.5 98t79.5 59t88 20q9 0 17.5 -1.5t17.5 -3.5q2 10 4.5 19.5t5.5 19.5q12 -4 34 -4q9 0 17.5 1t16.5 3q-8 -16 -14 -31l-14 -30q56 -36 87 -103q3 -6 3 -13q-27 -7 -50 -19.5t-46 -28.5q-5 5 -8.5 10 t-3.5 15l11 9q10 9 10 18q0 8 -1.5 18.5t-8.5 16.5q-10 8 -20 14q-45 -103 -81 -197l-67 -182q23 -14 56 -21.5t80 -7.5q10 0 21.5 7t21 16t15.5 19t6 16t-6 9l-7 4v5q0 11 13 21q16 -14 32.5 -21.5t33.5 -11.5q-10 -26 -31.5 -50t-48.5 -43t-57.5 -30t-58.5 -11 q-19 0 -43.5 7.5t-50.5 22.5l-12 -37q-6 -18 -11 -36q-13 5 -30 5q-20 0 -38 -5zM115 301q0 -56 5.5 -104.5t32.5 -83.5q41 91 76 182.5t64 185.5q-18 5 -34 5q-43 0 -70.5 -5.5t-44 -24t-23 -55.5t-6.5 -100z" />
<glyph unicode="&#xa3;" horiz-adv-x="620" d="M309 815q-35 0 -65 -15t-52 -40t-35 -58t-13 -68q0 -50 10 -95l22 -91q33 7 66 18q40 12 71 25.5t69 32.5q-2 -5 -3 -12.5t-1 -18.5q0 -6 1.5 -11t2.5 -10q-35 -5 -64 -12t-69 -19q-17 -5 -33 -11l-34 -11q6 -30 9 -62q25 6 55 15q40 12 78 27.5t79 34.5q-3 -8 -3 -21v-5 q0 -13 3 -25q-35 -6 -73.5 -15t-78.5 -22q-15 -5 -30 -9.5t-29 -9.5q-1 -29 -6 -53t-12 -48l-14 -51q-8 -26 -13 -58q-2 -9 -2 -17v-15q0 -21 9 -33t33 -12h7q3 0 7 1q10 2 18 2h17h29q36 0 66.5 -2.5t67.5 -7.5q4 -1 8 -1h7q20 0 43 6.5t42 21t31.5 37.5t12.5 55v17 q10 6 19 6q11 0 22 -6q-4 -17 -4 -36q0 -26 5 -50t5 -47q0 -18 -6 -36q-22 -5 -47 -5h-6l-354 12q-9 0 -27 -0.5t-39 -2.5l-43 -2q-22 -2 -38 -4v4q0 55 8 96.5t18 76.5t18 68.5t8 72.5q0 34 -5.5 69t-12 70.5t-12 72.5t-5.5 75q0 55 16.5 99t48.5 75.5t81.5 48.5t115.5 17 q54 0 101 -9t82.5 -29.5t56 -53t20.5 -80.5q0 -33 -13 -55.5t-32.5 -36.5t-43 -20t-44.5 -6q-17 0 -32.5 6.5t-27 16t-18.5 22t-7 24.5q0 37 17 58t34 21q-1 -5 -1 -14q0 -19 10 -35t36 -16q9 0 16.5 6t12.5 15t8 19.5t3 19.5q0 22 -16.5 43.5t-42.5 38.5t-57.5 27t-61.5 10 z" />
<glyph unicode="&#xa4;" horiz-adv-x="438" d="M312 264q-20 -17 -44 -26t-51 -9q-26 0 -49 8.5t-43 23.5l-59 -59l-36 36l61 61q-12 20 -19 42.5t-7 48.5q0 51 27 92l-60 61l36 36l59 -59q19 14 41.5 22.5t48.5 8.5t49.5 -9t43.5 -25l60 60l36 -36l-63 -63q25 -39 25 -88q0 -24 -6.5 -46t-17.5 -41l64 -63l-36 -36z M104 390q0 -24 9 -46t24 -38t35.5 -25.5t44.5 -9.5t44.5 9.5t35.5 25.5t23.5 38t8.5 46t-8.5 46t-23.5 38t-35.5 25.5t-44.5 9.5t-44.5 -9.5t-35.5 -25.5t-24 -38t-9 -46z" />
<glyph unicode="&#xa5;" horiz-adv-x="653" d="M566 222q-3 -14 -3 -36q0 -19 3 -34q-41 5 -84 7.5t-88 3.5q0 -18 2 -41t6.5 -44t13 -35.5t21.5 -14.5q5 -8 5 -16q0 -10 -6 -17q-24 3 -46.5 4t-45.5 1t-45.5 -1t-46.5 -4q-3 9 -3 18t3 15q13 1 21.5 16t13 36t6 44t1.5 40q-48 -1 -97.5 -3t-103.5 -7q4 11 4 31 q0 22 -4 37q51 -10 100.5 -14.5t98.5 -5.5v127q-46 -1 -95 -3t-101 -7q4 11 4 31q0 22 -4 37q46 -9 91.5 -13.5t91.5 -6.5l-146 333q-5 11 -14.5 28t-22.5 33.5t-29 28t-32 12.5q-2 4 -3 7.5t-2 8.5q0 8 7 17q23 -3 46 -4t46 -1t44 1t46 4q1 -5 2 -9t1 -9q-2 -11 -4 -15 q-8 -3 -8 -19q0 -17 6.5 -40t15.5 -43l119 -271l120 271l8 18q5 12 9 24t7 24t3 21q0 12 -6 15q-3 6 -3 16q0 5 0.5 9t2.5 8q18 -3 33.5 -4t31.5 -1t32 1t32 4q2 -5 2 -9v-9v-5q0 -7 -1 -10q-11 -1 -22.5 -12t-22.5 -26t-20.5 -32.5t-15.5 -31.5l-148 -332q45 2 88.5 6.5 t87.5 12.5q-3 -14 -3 -36q0 -19 3 -34q-42 5 -86 7.5t-90 3.5v-125q44 2 87 7t86 12z" />
<glyph unicode="&#xa6;" horiz-adv-x="130" d="M100 -5q-14 3 -36 3q-19 0 -34 -3q12 93 12 197q0 45 -2.5 92t-7.5 98q6 -1 14 -1.5t17 -0.5q10 0 19.5 0.5t17.5 1.5q-11 -47 -15.5 -92.5t-4.5 -91.5q0 -51 5 -101.5t15 -101.5zM98 443q-14 3 -36 3q-19 0 -34 -3q12 93 12 197q0 45 -2.5 92t-7.5 98q6 -1 14 -1.5 t17 -0.5q10 0 19.5 0.5t17.5 1.5q-11 -47 -15.5 -92.5t-4.5 -91.5q0 -51 5 -101.5t15 -101.5z" />
<glyph unicode="&#xa7;" horiz-adv-x="510" d="M412 140q0 43 -25.5 70.5t-64.5 46.5t-83.5 34.5t-83.5 34t-64.5 45.5t-25.5 69q0 19 11 38.5t29 37t42 32t50 25.5q-27 7 -51 16.5t-42 23t-28.5 32.5t-10.5 46t18.5 54t48 49t66.5 35.5t74 13.5q40 0 67.5 -10t47 -27t33.5 -41t27 -52q3 -6 3 -13q-27 -7 -50 -19.5 t-46 -28.5q-5 5 -8.5 10t-3.5 15l11 9q10 9 10 18q0 28 -28 51t-82 23q-42 0 -64.5 -8.5t-33 -20.5t-12 -26t-1.5 -26q0 -19 25 -31t63 -22l81 -24q44 -12 81.5 -32.5t62.5 -52.5t25 -81q0 -23 -11.5 -41.5t-31 -33t-44.5 -26t-52 -19.5q27 -14 52.5 -30t44.5 -37t30.5 -47 t11.5 -58q0 -41 -25 -74.5t-61 -56.5t-75.5 -35.5t-68.5 -12.5q-39 0 -78 14.5t-70.5 40t-51.5 61.5t-20 80q18 0 45 2.5t46 11.5q7 -7 7 -19q0 -2 -2 -10l-8 -2q-2 -8 -2 -13q0 -19 13.5 -34.5t33.5 -27.5t44.5 -20.5t47 -13.5t39.5 -7.5t23 -2.5q26 0 44 11.5t29.5 27 t16.5 32t5 26.5zM261 369q25 1 52 7.5t49 15.5t36 20t14 20q0 19 -3.5 34.5t-16.5 29.5t-37 27t-66 28q-43 -11 -71 -24.5t-45 -27.5t-24 -27.5t-7 -25.5t9.5 -22t25.5 -19t38 -18z" />
<glyph unicode="&#xa8;" horiz-adv-x="300" d="M170 776q0 22 14.5 37.5t35.5 15.5t35.5 -15.5t14.5 -37.5t-14.5 -37.5t-35.5 -15.5t-35.5 15.5t-14.5 37.5zM30 777q0 22 14.5 37.5t35.5 15.5t35.5 -15.5t14.5 -37.5t-14.5 -37.5t-35.5 -15.5t-35.5 15.5t-14.5 37.5z" />
<glyph unicode="&#xa9;" horiz-adv-x="778" d="M30 403q0 77 28 144.5t77 118t114.5 79.5t139.5 29t139.5 -29t114 -79.5t77 -118t28.5 -144.5t-28.5 -144.5t-77 -117.5t-114 -79t-139.5 -29t-139.5 29t-114.5 79t-77 117.5t-28 144.5zM84 403q0 -65 24 -122.5t65.5 -100t97 -67t118.5 -24.5t118.5 24.5t97 67t65.5 100 t24 122.5t-24 122.5t-65.5 100t-97 67.5t-118.5 25t-118.5 -25t-97 -67.5t-65.5 -100t-24 -122.5zM437 279q0 11 9 19t20 8q10 0 15.5 -7t5.5 -18q0 -16 -8.5 -32.5t-23 -29.5t-32.5 -21t-36 -8q-27 0 -52 17.5t-44.5 47.5t-31 69t-11.5 82t10.5 81.5t29.5 68t45.5 47 t58.5 17.5q11 0 25 -8.5t24 -8.5q8 0 12 12q4 3 9 3t8 -3q-5 -16 -6.5 -31.5t-1.5 -32.5v-19q-5 -3 -9 -3q-5 0 -9 3q-16 23 -39.5 39.5t-49.5 16.5q-10 0 -22.5 -5.5t-23 -20t-18 -38t-7.5 -59.5t9 -78t26 -78t42.5 -60t58.5 -24q3 0 7.5 3.5t9 8t7.5 9.5t3 9q0 1 -2 5 q-8 8 -8 19z" />
<glyph unicode="&#xaa;" horiz-adv-x="297" d="M30 658q0 41 42 70t116 41q-5 50 -60 50q-20 0 -24.5 -8t-4.5 -14q0 -9 9 -14q1 -1 1 -3q0 -4 -8.5 -8t-21.5 -4q-31 0 -31 25q0 6 9.5 15t24 16.5t31.5 13t32 5.5q28 0 47 -7t30.5 -17.5t16 -22.5t4.5 -22v-121q0 -13 2.5 -28.5t19.5 -17.5q2 -2 2 -6t-2 -8 q-32 0 -47.5 6.5t-22.5 17.5q-18 -13 -41 -21.5t-43 -8.5q-15 0 -29.5 4.5t-26 13.5t-18.5 22t-7 31zM77 674q0 -22 17 -38t54 -16q17 0 28.5 14.5t11.5 56.5v52q-4 -2 -22 -3.5t-37.5 -7t-35.5 -15.5t-16 -29v-14z" />
<glyph unicode="&#xab;" horiz-adv-x="570" d="M535 164q-9 -10 -13 -30t-8 -34q-45 33 -95 63t-107 68q-45 30 -63 61.5t-18 61.5q0 21 8 41t20.5 37.5t29 31t34.5 22.5q55 29 105.5 65.5t98.5 75.5q1 -22 1.5 -40t11.5 -29q-22 -21 -62 -41t-79 -44t-68 -54.5t-29 -73.5q0 -36 28 -62.5t66.5 -47t77.5 -37t61 -34.5z M334 164q-9 -10 -13 -30t-8 -34q-45 33 -95 63t-107 68q-45 30 -63 61.5t-18 61.5q0 21 8 41t20.5 37.5t29 31t34.5 22.5q55 29 105.5 65.5t98.5 75.5q1 -22 1.5 -40t11.5 -29q-22 -21 -62 -41t-79 -44t-68 -54.5t-29 -73.5q0 -36 28 -62.5t66.5 -47t77.5 -37t61 -34.5z" />
<glyph unicode="&#xac;" horiz-adv-x="533" d="M503 448q-1 -2 -1.5 -3.5t-2.5 -3.5q-9 -30 -9 -65q0 -33 10 -69q-6 0 -14.5 1.5t-17.5 1.5q-10 0 -19 -1.5t-17 -1.5q11 17 15.5 33.5t4.5 33.5q0 6 -1 9q-23 2 -44.5 3.5t-44.5 1.5l-46 2h-53q-54 0 -112 -2.5t-121 -7.5q4 11 4 31q0 22 -4 37q57 -11 113.5 -15.5 t112.5 -4.5q58 0 115.5 4.5t114.5 12.5q9 3 17 3z" />
<glyph unicode="&#xad;" horiz-adv-x="533" d="M503 448q-3 -14 -3 -36q0 -19 3 -34q-111 12 -240 12q-54 0 -112 -2.5t-121 -7.5q4 11 4 31q0 22 -4 37q57 -11 113.5 -15.5t112.5 -4.5q63 0 124.5 5t122.5 15z" />
<glyph unicode="&#xae;" horiz-adv-x="778" d="M30 403q0 77 28 144.5t77 118t114.5 79.5t139.5 29t139.5 -29t114 -79.5t77 -118t28.5 -144.5t-28.5 -144.5t-77 -117.5t-114 -79t-139.5 -29t-139.5 29t-114.5 79t-77 117.5t-28 144.5zM84 403q0 -65 24 -122.5t65.5 -100t97 -67t118.5 -24.5t118.5 24.5t97 67t65.5 100 t24 122.5t-24 122.5t-65.5 100t-97 67.5t-118.5 25t-118.5 -25t-97 -67.5t-65.5 -100t-24 -122.5zM492 533q0 -32 -17 -48t-40 -26l70 -189q6 -16 18 -32t26 -16q2 -6 2 -8q0 -5 -3 -9q-29 5 -57 24.5t-44 61.5l-56 153q-18 -6 -33 -14.5t-25 -22.5v-137q0 -16 4.5 -33.5 t18.5 -17.5q2 -4 2 -8q0 -5 -3 -8q-12 2 -23 2h-23h-23q-11 0 -23 -2q-1 3 -1 9q0 5 1 7q7 1 11.5 6.5t6 13t2 16t0.5 15.5v285q0 6 -0.5 14.5t-2.5 16.5t-6.5 14t-12.5 6q-3 4 -3 8t3 9q24 -3 46 -3q17 0 30.5 1.5t29.5 1.5q14 0 35.5 -2t41.5 -10.5t34 -26.5t14 -51z M333 425q10 17 30.5 25t41.5 18t36.5 26t15.5 49q0 24 -10.5 36.5t-24.5 18.5t-28.5 7t-22.5 1h-3q-23 0 -29 -2.5t-6 -17.5v-161z" />
<glyph unicode="&#xaf;" horiz-adv-x="310" d="M30 843h250v-41h-250v41z" />
<glyph unicode="&#xb0;" horiz-adv-x="307" d="M30 779q0 25 9.5 47.5t26.5 39t39 26t48 9.5q25 0 48 -9.5t39.5 -26t26.5 -39t10 -47.5q0 -26 -10 -48t-26.5 -38.5t-39.5 -26t-48 -9.5q-26 0 -48 9.5t-39 26t-26.5 38.5t-9.5 48zM80 779q0 -31 21 -52t52 -21q30 0 52 21t22 52t-22 52t-52 21q-31 0 -52 -21t-21 -52z " />
<glyph unicode="&#xb1;" horiz-adv-x="533" d="M498 146q-3 -14 -3 -36q0 -19 3 -34q-111 12 -240 12q-54 0 -112 -2.5t-121 -7.5q4 11 4 31q0 22 -4 37q57 -11 113.5 -15.5t112.5 -4.5q63 0 124.5 5t122.5 15zM503 448q-3 -14 -3 -36q0 -19 3 -34q-101 11 -214 12q0 -51 2.5 -104t7.5 -110q-11 4 -31 4q-22 0 -37 -4 q10 54 14.5 107.5t5.5 106.5q-52 -1 -106.5 -3t-114.5 -7q4 11 4 31q0 22 -4 37q56 -11 111 -15.5t110 -4.5q-2 56 -7 111t-13 110q13 -3 36 -3q19 0 34 3q-12 -104 -12 -221q54 1 107 6t107 14z" />
<glyph unicode="&#xb2;" horiz-adv-x="378" d="M30 463q0 67 19.5 104t48.5 56.5t62.5 27.5t62.5 17.5t48.5 26.5t19.5 54q0 16 -8 30.5t-21.5 25.5t-31.5 18t-38 7q-37 0 -54.5 -3t-25 -8t-9.5 -12t-8 -15l-5 -10l-6 -9q-8 -2 -12 -2q-5 0 -9 2q9 16 14.5 33.5t6.5 37.5q4 1 7 1.5t6 0.5t9 -2q12 -4 31 -4q15 0 29 1.5 t28 1.5q78 0 116 -29.5t38 -79.5q0 -32 -17 -48t-43.5 -25t-58.5 -15.5t-61.5 -20.5t-52.5 -39t-32 -70q-1 -5 -1 -8v-7q0 -9 5 -14.5t19 -5.5h9q9 2 19 2h24q21 0 39 -1.5t39 -3.5h9q12 0 25 3t24 9.5t18.5 16.5t7.5 25v7q6 3 11 3q7 0 13 -3q-2 -4 -2 -8v-8q0 -12 3 -22 t3 -21q0 -9 -4 -17q-6 -1 -14.5 -1.5t-16.5 -0.5q-52 0 -103 3t-104 3q-19 0 -38 -1t-38 -3z" />
<glyph unicode="&#xb3;" horiz-adv-x="328" d="M116 674q24 0 43.5 3.5t33.5 13.5t21.5 27.5t7.5 44.5q0 12 -3 24t-9.5 21.5t-18 16t-29.5 6.5q-37 0 -54 -3t-24 -8.5t-8.5 -12.5t-6.5 -14q-3 -5 -4.5 -9.5t-4.5 -9.5q-6 -3 -12 -3q-5 0 -9 3q7 16 11 33q3 14 3 29v8q6 3 12 3q4 0 10 -3q13 -3 31 -3q14 0 28.5 1 t28.5 1q35 0 57.5 -7t36 -19t18.5 -28t5 -33q0 -26 -18 -48t-56 -33q17 -6 33.5 -15t29.5 -21.5t21 -30.5t8 -42q0 -27 -19 -48t-51.5 -34.5t-76 -20.5t-91.5 -7h-2q-11 0 -18 8q-9 10 -9 23q0 8 5 13q6 7 16 7t17.5 -7t9.5 -18q1 -12 17 -12q62 0 98.5 27.5t36.5 67.5 q0 22 -9 40t-25 31t-36.5 20t-42.5 7h-7q-11 0 -25.5 -2t-25.5 -6q-6 2 -6 9v3q12 5 27.5 6t34.5 1z" />
<glyph unicode="&#xb4;" horiz-adv-x="163" d="M126 866q-6 -11 -20 -28l-27 -35q-14 -17 -26.5 -29.5t-18.5 -12.5q-4 0 -4 8q0 7 3.5 20t8.5 27.5t11.5 27.5t11.5 22q12 22 25.5 28.5t24.5 6.5q8 0 13 -2.5t5 -10.5t-7 -22z" />
<glyph unicode="&#xb5;" horiz-adv-x="573" d="M180 -125q0 -36 -4.5 -60.5t-12.5 -38.5t-21 -20t-29 -6h-17q-26 0 -37.5 19t-11.5 51v28q0 33 5 53t11.5 38.5t11.5 42.5t5 65v352q0 11 -1 28t-5 33.5t-13.5 28t-25.5 12.5q-5 8 -5 16q0 9 6 17q24 -3 46.5 -4t45.5 -1t45.5 1t46.5 4q3 -9 3 -18t-3 -15q-15 -1 -23 -12 t-12 -26t-4.5 -32.5t-0.5 -31.5v-222q0 -72 26.5 -114t68.5 -42q27 0 53.5 8t47.5 26t34 46.5t13 69.5v227q0 11 -0.5 28t-4 33.5t-11 28t-20.5 12.5q-2 4 -3 7.5t-1 8.5q0 9 5 17q47 0 69 19.5t22 45.5q8 0 16 -11t8 -22v-435q0 -16 1.5 -34t5.5 -33t11 -25t18 -10 q2 -4 3 -7.5t1 -8.5q0 -9 -5 -17q-48 4 -72 21t-33 40q-29 -29 -76.5 -51t-106.5 -22q-37 0 -70 12v-120z" />
<glyph unicode="&#xb6;" horiz-adv-x="465" d="M30 685q0 30 11.5 56.5t32 46t47.5 31t57 11.5h257v-39h-79v-789h-43v789h-92v-789h-43v538q-30 0 -57 11.5t-47.5 31t-32 46t-11.5 56.5z" />
<glyph unicode="&#xb7;" horiz-adv-x="160" d="M30 447q0 22 14.5 37.5t35.5 15.5t35.5 -15.5t14.5 -37.5t-14.5 -37.5t-35.5 -15.5t-35.5 15.5t-14.5 37.5z" />
<glyph unicode="&#xb8;" horiz-adv-x="225" d="M30 -168v36h75q23 0 40 5t17 19q0 19 -12 24.5t-30 5.5q-24 0 -44 17.5t-21 60.5h36q0 -23 10 -38t27 -15q35 0 51 -16t16 -39q0 -18 -7 -29.5t-19 -18.5t-28 -9.5t-34 -2.5h-77z" />
<glyph unicode="&#xb9;" horiz-adv-x="170" d="M35 474q17 2 19.5 17.5t2.5 28.5v224q0 5 -0.5 12.5t-2.5 15t-7 12.5t-14 5q-3 4 -3 8t3 7q12 2 23 8l24 14q12 6 25.5 11.5t28.5 5.5q2 -2 2 -8q0 -5 -2 -6q-17 -2 -19.5 -17.5t-2.5 -28.5v-263q0 -14 4.5 -30t20.5 -16q3 -3 3 -7t-3 -7q-14 1 -26 1.5t-25 0.5 q-12 0 -24.5 -0.5t-26.5 -1.5q-1 2 -1 8q0 5 1 6z" />
<glyph unicode="&#xba;" horiz-adv-x="304" d="M30 701q0 35 14 61.5t34 44.5t43.5 27t42.5 9q16 0 35.5 -7.5t36 -21t27.5 -33.5t11 -44q0 -39 -14.5 -67t-35.5 -46.5t-46 -27.5t-46 -9q-15 0 -32.5 7.5t-33 21.5t-26 35.5t-10.5 49.5zM77 730q0 -33 4 -54.5t14.5 -34t28 -17.5t44.5 -5q8 0 18 5.5t19 17t15 27.5t6 37 q0 61 -22.5 84.5t-60.5 23.5q-9 0 -20.5 -2.5t-21.5 -11t-17 -25.5t-7 -45z" />
<glyph unicode="&#xbb;" horiz-adv-x="570" d="M35 164q14 12 37 23l49 23q26 12 52 25.5t47.5 30t34.5 36t13 43.5q0 43 -29 73.5t-68 54.5t-79 44t-62 41q11 11 11.5 29t1.5 40q48 -39 98.5 -75.5t105.5 -65.5q18 -9 34.5 -22.5t29 -31t20.5 -37.5t8 -41q0 -30 -18 -61.5t-63 -61.5q-57 -38 -107 -68t-95 -63 q-4 14 -8 34t-13 30zM236 164q14 12 37 23l49 23q26 12 52 25.5t47.5 30t34.5 36t13 43.5q0 43 -29 73.5t-68 54.5t-79 44t-62 41q11 11 11.5 29t1.5 40q48 -39 98.5 -75.5t105.5 -65.5q18 -9 34.5 -22.5t29 -31t20.5 -37.5t8 -41q0 -30 -18 -61.5t-63 -61.5 q-57 -38 -107 -68t-95 -63q-4 14 -8 34t-13 30z" />
<glyph unicode="&#xbc;" horiz-adv-x="715" d="M49 -17q141 213 266.5 426t230.5 434q12 -6 33 -6q18 0 35 6q-155 -248 -276 -460t-219 -400q-11 6 -30 6q-22 0 -40 -6zM37 362q10 1 16 7.5t8.5 15.5t3 19.5t0.5 19.5v297q0 7 -0.5 17t-3.5 20t-9.5 17t-18.5 7q-3 4 -3 10t4 10q15 3 30 12l30 17q15 9 32 16t37 7 q2 -6 2 -10q0 -5 -2 -9q-11 -1 -16.5 -7.5t-8 -15.5t-3 -19.5t-0.5 -19.5v-349q0 -10 1 -21t4.5 -20t9.5 -15t16 -6q4 -4 4 -9q0 -6 -4 -10q-35 3 -65 3q-31 0 -64 -3q-2 6 -2 10q0 5 2 9zM472 19q10 1 16 7.5t8.5 15.5t3 19t0.5 19v49h-20q-21 0 -44 -1t-41 -1h-36 q-18 0 -35 -2v27q0 31 12 52t33 45q22 25 51 54l58 59q30 31 57 62t47 60q11 15 26.5 21.5t32.5 6.5q-21 -22 -51 -58l-66 -78l-69 -88l-64 -86q-10 -13 -10 -25q0 -28 48 -28q13 0 32 1t33 1h6v48v15q0 10 -1 20.5t-3.5 18.5t-6.5 8q-6 0 -21 -16q-3 0 -3 4q0 8 4 16l64 88 q29 39 65 78q2 -4 2 -8t-2 -12q-21 -29 -24.5 -55t-3.5 -43v-165h6q2 -1 9 -1q11 0 24 4t24 13t18 22.5t7 32.5v10q5 4 11 4q8 0 12 -4q-1 -5 -1.5 -10.5t-0.5 -10.5q0 -16 3 -30t3 -28q0 -13 -4 -22q-5 -2 -13.5 -2.5t-16.5 -0.5q-20 0 -40.5 0.5t-40.5 1.5v-47q0 -9 1 -20 t4.5 -20t9.5 -15t16 -6q4 -4 4 -10t-4 -10q-35 3 -65 3q-31 0 -64 -3q-1 3 -1.5 5.5t-0.5 5.5t2 9z" />
<glyph unicode="&#xbd;" horiz-adv-x="841" d="M61 -17q141 213 266.5 426t230.5 434q12 -6 33 -6q18 0 35 6q-155 -248 -276 -460t-219 -400q-11 6 -30 6q-22 0 -40 -6zM37 362q10 1 16 7.5t8.5 15.5t3 19.5t0.5 19.5v297q0 7 -0.5 17t-3.5 20t-9.5 17t-18.5 7q-3 4 -3 10t4 10q15 3 30 12l30 17q15 9 32 16t37 7 q2 -6 2 -10q0 -5 -2 -9q-11 -1 -16.5 -7.5t-8 -15.5t-3 -19.5t-0.5 -19.5v-349q0 -10 1 -21t4.5 -20t9.5 -15t16 -6q4 -4 4 -9q0 -6 -4 -10q-35 3 -65 3q-31 0 -64 -3q-2 6 -2 10q0 5 2 9zM407 0q0 67 14.5 110.5t37.5 71.5t53 43t61 24.5t61 17.5t53 20.5t37.5 34 t14.5 58.5q0 21 -10 41t-27.5 35t-40.5 24t-49 9q-47 0 -69 -4t-31.5 -11t-12.5 -16.5t-10 -19.5q-4 -6 -6.5 -12.5t-6.5 -12.5q-9 -3 -16 -3q-8 0 -11 3q11 21 18 44.5t9 49.5q9 3 16 3q6 0 11 -3q9 -2 19 -3t21 -1q19 0 37 1.5t35 1.5q100 0 148 -39.5t48 -105.5 q0 -43 -22 -64t-55.5 -33.5t-74 -21t-78 -27t-66.5 -51.5t-40 -94q-3 -12 -3 -20q0 -12 7 -19.5t25 -7.5q7 0 10 1q13 2 26 2h29q27 0 50 -1.5t50 -4.5q4 -1 11 -1q15 0 32 4t31 13t23.5 22.5t9.5 32.5v10q7 4 14 4q9 0 16 -4q-2 -5 -2 -11v-10q0 -16 3.5 -30t3.5 -28 q0 -13 -5 -22q-8 -2 -18.5 -2.5t-20.5 -0.5q-66 0 -131 3.5t-133 3.5q-23 0 -47.5 -1t-48.5 -3z" />
<glyph unicode="&#xbe;" horiz-adv-x="870" d="M180 -17q141 213 266.5 426t230.5 434q12 -6 33 -6q18 0 35 6q-155 -248 -276 -460t-219 -400q-11 6 -30 6q-22 0 -40 -6zM141 618q30 0 54.5 5t42 18t27.5 36t10 59q0 16 -3.5 32t-12 29t-23.5 21.5t-38 8.5q-47 0 -69 -4t-30.5 -11t-10.5 -16.5t-8 -19.5 q-3 -6 -5.5 -12.5t-5.5 -12.5q-10 -4 -15 -4q-6 0 -12 4q9 21 14 44q5 17 5 36q0 7 -1 14l8 2q4 1 8 1q5 0 11 -3q20 -5 40 -5q19 0 37 1.5t35 1.5q45 0 74 -9.5t46 -25.5t23.5 -37t6.5 -44q0 -35 -23.5 -64t-71.5 -44q21 -9 42.5 -20.5t38 -28.5t27 -40.5t10.5 -55.5 q0 -37 -24.5 -64.5t-66 -46t-96.5 -27.5t-116 -9h-3q-13 0 -23 10.5t-12 24.5v5q0 11 7 19q8 9 21 9t22.5 -9.5t11.5 -23.5q1 -9 7 -13t14 -4q39 0 71 10t54.5 27t35 40.5t12.5 49.5q0 30 -12 54t-32 41t-46 26t-55 9h-8q-14 0 -32.5 -2t-32.5 -7q-8 1 -8 11q0 2 1 4 q14 6 34 8t45 2zM627 21q10 1 16 7.5t8.5 15.5t3 19t0.5 19v49h-20q-21 0 -44 -1t-41 -1h-36q-18 0 -35 -2v27q0 31 12 52t33 45q22 25 51 54l59 59l56 62t47 60q11 15 26.5 21.5t32.5 6.5q-21 -22 -52 -58l-64 -78l-70 -88l-64 -86q-10 -13 -10 -25q0 -28 48 -28q13 0 32 1 t33 1h6v48v15q0 10 -1 20.5t-3.5 18.5t-6.5 8q-6 0 -21 -16q-3 0 -3 4q0 8 4 16l64 88q29 39 65 78q2 -4 2 -8t-2 -12q-21 -29 -24.5 -55t-3.5 -43v-165h6q2 -1 9 -1q11 0 24 4t24 13t18 22.5t7 32.5v10q5 4 11 4q8 0 12 -4q-1 -5 -1.5 -10.5t-0.5 -10.5q0 -16 3 -30t3 -28 q0 -13 -4 -22q-5 -2 -13.5 -2.5t-16.5 -0.5q-20 0 -40.5 0.5t-40.5 1.5v-47q0 -9 1 -20t4.5 -20t9.5 -15t16 -6q4 -4 4 -10t-4 -10q-35 3 -65 3q-31 0 -64 -3q-1 3 -1.5 5.5t-0.5 5.5t2 9z" />
<glyph unicode="&#xbf;" horiz-adv-x="684" d="M385 789q0 22 14.5 37.5t35.5 15.5t35.5 -15.5t14.5 -37.5t-14.5 -37.5t-35.5 -15.5t-35.5 15.5t-14.5 37.5zM525 230q0 -9 1 -14q-17 0 -34 21t-17 58q0 12 7 24.5t18.5 22t27 16t32.5 6.5q42 0 68 -31t26 -76q0 -86 -29.5 -139.5t-74 -83.5t-97 -40.5t-98.5 -10.5 q-71 0 -122.5 14t-88 36.5t-58.5 52t-34.5 60.5t-17 61t-4.5 55q0 78 28 125.5t70 77t91 45.5l91 30q42 14 70 31.5t28 49.5q0 17 -6.5 38t-26.5 49q49 -17 81 -17t45 17q10 -20 12.5 -37t2.5 -31q0 -28 -16 -46.5t-41.5 -32t-59 -25t-68 -25.5t-67.5 -33.5t-58.5 -49.5 t-41.5 -72.5t-16 -103.5q0 -16 1 -40t8 -50.5t21.5 -52.5t41.5 -47t68 -34t102 -13q43 0 83 15t70.5 42.5t49 65.5t18.5 83q0 9 -1 19.5t-5 19.5t-12 15t-22 6q-27 0 -36.5 -16t-9.5 -35z" />
<glyph unicode="&#xc0;" horiz-adv-x="789" d="M350 1220q-7 14 -7 22t5 10.5t13 2.5q11 0 24.5 -6.5t25.5 -28.5q5 -9 11 -22t11.5 -27.5t9 -27.5t3.5 -20q0 -8 -4 -8q-6 0 -18.5 12.5t-27 29.5t-27.5 34.5t-19 28.5zM32 28q10 1 20 12t19 26t16 32.5t12 31.5l195 566q5 14 9.5 32t4.5 35q0 15 -6 26t-22 13 q-2 3 -3 5.5t-1 5.5t1 5q0 9 6 17q8 -1 18 -1.5t26 -1t40.5 -1t61.5 -1.5q11 0 28.5 0.5t36.5 2t37 2.5t30 3q3 -9 3 -18q-2 -5 -2.5 -8.5t-2.5 -6.5q-18 -1 -34 -4t-28 -10t-19.5 -19t-7.5 -30q0 -14 8 -40l193 -570q6 -17 14.5 -35t19 -33t23.5 -24.5t27 -9.5q2 -3 3 -5.5 t1 -5.5t-1 -5q0 -10 -6 -17q-24 3 -46.5 4t-45.5 1t-45.5 -1t-46.5 -4q-3 9 -3 18q2 5 2.5 8.5t2.5 6.5q7 0 10.5 9.5t3.5 18.5v8q0 16 -4 33t-9 33l-32 95h-336l-28 -81q-3 -10 -8 -23t-9 -27t-7 -27t-3 -23q0 -18 12 -18q3 -4 3.5 -7.5t0.5 -8.5q0 -10 -4 -17q-17 3 -33 4 t-32 1q-15 0 -30.5 -1t-32.5 -4q-1 5 -1.5 9t-0.5 9q0 7 2 15zM218 272h305l-151 446z" />
<glyph unicode="&#xc1;" horiz-adv-x="789" d="M439 1220q-6 -11 -20 -28l-27 -35q-14 -17 -26.5 -29.5t-18.5 -12.5q-4 0 -4 8q0 7 3.5 20t8.5 27.5t11.5 27.5t11.5 22q12 22 25.5 28.5t24.5 6.5q8 0 13 -2.5t5 -10.5t-7 -22zM32 28q10 1 20 12t19 26t16 32.5t12 31.5l195 566q5 14 9.5 32t4.5 35q0 15 -6 26t-22 13 q-2 3 -3 5.5t-1 5.5t1 5q0 9 6 17q8 -1 18 -1.5t26 -1t40.5 -1t61.5 -1.5q11 0 28.5 0.5t36.5 2t37 2.5t30 3q3 -9 3 -18q-2 -5 -2.5 -8.5t-2.5 -6.5q-18 -1 -34 -4t-28 -10t-19.5 -19t-7.5 -30q0 -14 8 -40l193 -570q6 -17 14.5 -35t19 -33t23.5 -24.5t27 -9.5q2 -3 3 -5.5 t1 -5.5t-1 -5q0 -10 -6 -17q-24 3 -46.5 4t-45.5 1t-45.5 -1t-46.5 -4q-3 9 -3 18q2 5 2.5 8.5t2.5 6.5q7 0 10.5 9.5t3.5 18.5v8q0 16 -4 33t-9 33l-32 95h-336l-28 -81q-3 -10 -8 -23t-9 -27t-7 -27t-3 -23q0 -18 12 -18q3 -4 3.5 -7.5t0.5 -8.5q0 -10 -4 -17q-17 3 -33 4 t-32 1q-15 0 -30.5 -1t-32.5 -4q-1 5 -1.5 9t-0.5 9q0 7 2 15zM218 272h305l-151 446z" />
<glyph unicode="&#xc2;" horiz-adv-x="789" d="M354 1101q-11 -20 -24 -33t-39 -13h-17l76 130q5 8 10 14t15 6h41q12 0 16 -7l7 -13l76 -130h-14q-26 0 -38 9.5t-23 29.5l-45 78zM32 28q10 1 20 12t19 26t16 32.5t12 31.5l195 566q5 14 9.5 32t4.5 35q0 15 -6 26t-22 13q-2 3 -3 5.5t-1 5.5t1 5q0 9 6 17q8 -1 18 -1.5 t26 -1t40.5 -1t61.5 -1.5q11 0 28.5 0.5t36.5 2t37 2.5t30 3q3 -9 3 -18q-2 -5 -2.5 -8.5t-2.5 -6.5q-18 -1 -34 -4t-28 -10t-19.5 -19t-7.5 -30q0 -14 8 -40l193 -570q6 -17 14.5 -35t19 -33t23.5 -24.5t27 -9.5q2 -3 3 -5.5t1 -5.5t-1 -5q0 -10 -6 -17q-24 3 -46.5 4 t-45.5 1t-45.5 -1t-46.5 -4q-3 9 -3 18q2 5 2.5 8.5t2.5 6.5q7 0 10.5 9.5t3.5 18.5v8q0 16 -4 33t-9 33l-32 95h-336l-28 -81q-3 -10 -8 -23t-9 -27t-7 -27t-3 -23q0 -18 12 -18q3 -4 3.5 -7.5t0.5 -8.5q0 -10 -4 -17q-17 3 -33 4t-32 1q-15 0 -30.5 -1t-32.5 -4 q-1 5 -1.5 9t-0.5 9q0 7 2 15zM218 272h305l-151 446z" />
<glyph unicode="&#xc3;" horiz-adv-x="789" d="M32 28q10 1 20 12t19 26t16 32.5t12 31.5l195 566q5 14 9.5 32t4.5 35q0 15 -6 26t-22 13q-2 3 -3 5.5t-1 5.5t1 5q0 9 6 17q8 -1 18 -1.5t26 -1t40.5 -1t61.5 -1.5q11 0 28.5 0.5t36.5 2t37 2.5t30 3q3 -9 3 -18q-2 -5 -2.5 -8.5t-2.5 -6.5q-18 -1 -34 -4t-28 -10 t-19.5 -19t-7.5 -30q0 -14 8 -40l193 -570q6 -17 14.5 -35t19 -33t23.5 -24.5t27 -9.5q2 -3 3 -5.5t1 -5.5t-1 -5q0 -10 -6 -17q-24 3 -46.5 4t-45.5 1t-45.5 -1t-46.5 -4q-3 9 -3 18q2 5 2.5 8.5t2.5 6.5q7 0 10.5 9.5t3.5 18.5v8q0 16 -4 33t-9 33l-32 95h-336l-28 -81 q-3 -10 -8 -23t-9 -27t-7 -27t-3 -23q0 -18 12 -18q3 -4 3.5 -7.5t0.5 -8.5q0 -10 -4 -17q-17 3 -33 4t-32 1q-15 0 -30.5 -1t-32.5 -4q-1 5 -1.5 9t-0.5 9q0 7 2 15zM218 272h305l-151 446zM166 1110q17 44 53.5 69t79.5 25q23 0 40.5 -7.5t31.5 -18.5t27 -24.5t26.5 -24.5 t30 -18.5t38.5 -7.5q18 0 34.5 6.5t27.5 20.5q11 12 16.5 20t17.5 8q9 0 24 -6l9 -3q-17 -44 -53.5 -69t-79.5 -25q-34 0 -56.5 16t-43 34.5t-42 34.5t-52.5 16q-18 0 -34.5 -6.5t-27.5 -20.5q-11 -12 -16.5 -20t-17.5 -8q-9 0 -24 6z" />
<glyph unicode="&#xc4;" horiz-adv-x="789" d="M414 1130q0 22 14.5 37.5t35.5 15.5t35.5 -15.5t14.5 -37.5t-14.5 -37.5t-35.5 -15.5t-35.5 15.5t-14.5 37.5zM274 1131q0 22 14.5 37.5t35.5 15.5t35.5 -15.5t14.5 -37.5t-14.5 -37.5t-35.5 -15.5t-35.5 15.5t-14.5 37.5zM32 28q10 1 20 12t19 26t16 32.5t12 31.5 l195 566q5 14 9.5 32t4.5 35q0 15 -6 26t-22 13q-2 3 -3 5.5t-1 5.5t1 5q0 9 6 17q8 -1 18 -1.5t26 -1t40.5 -1t61.5 -1.5q11 0 28.5 0.5t36.5 2t37 2.5t30 3q3 -9 3 -18q-2 -5 -2.5 -8.5t-2.5 -6.5q-18 -1 -34 -4t-28 -10t-19.5 -19t-7.5 -30q0 -14 8 -40l193 -570 q6 -17 14.5 -35t19 -33t23.5 -24.5t27 -9.5q2 -3 3 -5.5t1 -5.5t-1 -5q0 -10 -6 -17q-24 3 -46.5 4t-45.5 1t-45.5 -1t-46.5 -4q-3 9 -3 18q2 5 2.5 8.5t2.5 6.5q7 0 10.5 9.5t3.5 18.5v8q0 16 -4 33t-9 33l-32 95h-336l-28 -81q-3 -10 -8 -23t-9 -27t-7 -27t-3 -23 q0 -18 12 -18q3 -4 3.5 -7.5t0.5 -8.5q0 -10 -4 -17q-17 3 -33 4t-32 1q-15 0 -30.5 -1t-32.5 -4q-1 5 -1.5 9t-0.5 9q0 7 2 15zM218 272h305l-151 446z" />
<glyph unicode="&#xc5;" horiz-adv-x="789" d="M270 853q0 25 9 47t24 38.5t36 26t45 9.5t45 -9.5t36.5 -26t25 -38.5t9.5 -47q0 -26 -9.5 -47.5t-25.5 -38.5q2 -16 5 -33.5t8 -31.5l193 -570q6 -17 14.5 -35t19 -33t23.5 -24.5t27 -9.5q2 -3 3 -5.5t1 -5.5t-1 -5q0 -10 -6 -17q-24 3 -46.5 4t-45.5 1t-45.5 -1 t-46.5 -4q-3 9 -3 18q2 5 2.5 8.5t2.5 6.5q7 0 10.5 9.5t3.5 18.5v8q0 16 -4 33t-9 33l-32 95h-336l-28 -81q-3 -10 -8 -23t-9 -27t-7 -27t-3 -23q0 -18 12 -18q3 -4 3.5 -7.5t0.5 -8.5q0 -10 -4 -17q-17 3 -33 4t-32 1q-15 0 -30.5 -1t-32.5 -4q-1 5 -1.5 9t-0.5 9 q0 7 2 15q10 1 20 12t19 26t16 32.5t12 31.5l195 566q5 14 9.5 31.5t4.5 34.5q-38 35 -38 91zM218 272h305l-151 446zM316 853q0 -30 19.5 -51t48.5 -21t49.5 21t20.5 51q0 31 -20.5 51.5t-49.5 20.5t-48.5 -20.5t-19.5 -51.5z" />
<glyph unicode="&#xc6;" horiz-adv-x="834" d="M501 534q18 0 35 1.5t31 7.5t22.5 17t8.5 31q7 5 16.5 9t20.5 4v-4q0 -54 17.5 -105t48.5 -85q-5 -8 -15.5 -10.5t-21.5 -2.5q-13 19 -27 37t-32 32.5t-41 23.5t-53 9h-36v-369q0 -34 2 -53.5t7 -29t14.5 -12t23.5 -2.5h79q21 0 47.5 5.5t50 19t39.5 36.5t16 58v17 q10 6 20 6q12 0 23 -6q-4 -17 -4 -36q0 -26 5.5 -50t5.5 -47q0 -19 -7 -36q-11 -2 -26.5 -3.5t-29.5 -1.5q-28 0 -54.5 2.5t-54.5 2.5h-205q-13 0 -32 -0.5t-33 -4.5q8 29 10.5 63.5t2.5 67.5v99h-172l-28 -81q-3 -10 -8 -23t-9 -27t-7 -27t-3 -23q0 -18 12 -18 q3 -4 3.5 -7.5t0.5 -8.5q0 -10 -4 -17q-17 3 -33 4t-32 1q-15 0 -30.5 -1t-32.5 -4q-1 5 -1.5 9t-0.5 9q0 7 2 15q10 1 20 12t19 26t16 32.5t12 31.5l195 566q5 14 9.5 32t4.5 35q0 15 -6 26t-22 13q-2 3 -3 5.5t-1 5.5t1 5q0 10 6 18q14 -2 35.5 -3t56.5 -1h183 q21 0 46.5 1.5t50 4.5t45.5 6.5t33 7.5q5 2 10.5 3t10.5 1t8 -1t7 -3q-11 -23 -17 -46.5t-9 -46.5q-11 -5 -22 -5q-10 0 -14 5v11q0 9 -13.5 15.5t-35 10.5t-47 6t-49.5 2h-17q-23 0 -37 -0.5t-21.5 -4.5t-9.5 -12t-2 -23v-228h26zM218 270h157v437l-3 9z" />
<glyph unicode="&#xc7;" horiz-adv-x="538" d="M269 -168v36h75q23 0 40 5t17 19q0 19 -12 24.5t-30 5.5q-22 0 -40.5 14t-23.5 48q-53 4 -100.5 40.5t-84.5 95.5t-58.5 135t-21.5 160q0 86 20.5 163.5t58.5 136.5t90.5 93.5t117.5 34.5q11 0 24.5 -5.5t26.5 -11.5l26 -12q12 -5 21 -5t14.5 5.5t9.5 19.5q9 5 19 5 q8 0 15 -5q-16 -63 -16 -129v-19q0 -9 1 -19q-10 -5 -18 -5t-18 5q-16 22 -36.5 42.5t-43.5 36t-48 24.5t-50 9q-20 0 -45 -11.5t-46.5 -39t-36 -75t-14.5 -119.5q0 -48 8 -102.5t23.5 -107.5t38 -102.5t53 -86.5t67.5 -59.5t81 -22.5q6 0 15 6.5t17.5 16t15 19.5t6.5 18 q0 4 -4 10q-15 18 -15 39q0 22 18 37.5t39 15.5q20 0 31.5 -14.5t11.5 -34.5q0 -30 -15 -60t-40 -55t-56.5 -43t-65.5 -23q3 -17 12.5 -27.5t23.5 -10.5q35 0 51 -16t16 -39q0 -18 -7 -29.5t-19 -18.5t-28 -9.5t-34 -2.5h-77z" />
<glyph unicode="&#xc8;" horiz-adv-x="499" d="M205 1220q-7 14 -7 22t5 10.5t13 2.5q11 0 24.5 -6.5t25.5 -28.5q5 -9 11 -22t11.5 -27.5t9 -27.5t3.5 -20q0 -8 -4 -8q-6 0 -18.5 12.5t-27 29.5t-27.5 34.5t-19 28.5zM206 534q18 0 35 1.5t31 7.5t22.5 17t8.5 31q7 5 16.5 9t20.5 4v-4q0 -54 17.5 -105t48.5 -85 q-5 -8 -15.5 -10.5t-21.5 -2.5q-13 19 -27 37t-32 32.5t-41 23.5t-53 9h-36v-304q0 -61 18 -118.5t56 -102.5t97 -72t142 -27q17 0 38 3.5t41 12t37.5 22.5t26.5 35q11 8 23 8q13 0 27 -8q2 -18 6 -35.5t4 -34.5q0 -19 -7 -36q-11 -2 -26.5 -3.5t-29.5 -1.5q-28 0 -54.5 2.5 t-54.5 2.5q-71 0 -123 11.5t-90 29t-65 37.5l-50 38q-23 18 -43 29.5t-44 11.5h-19q-8 0 -15 -0.5t-15 -1.5t-20 -2q-3 9 -3 18t3 15q15 1 23 12t12 26t4.5 32.5t0.5 31.5v570q0 11 -1 28t-5 33.5t-13.5 28t-25.5 12.5q-5 8 -5 16q0 9 6 17q24 -3 46.5 -4t45.5 -1h135 q21 0 46.5 1.5t50 4.5t45.5 6.5t33 7.5q5 2 10 3t10 1t8.5 -1t7.5 -3q-11 -23 -17 -46.5t-9 -46.5q-11 -5 -22 -5q-10 0 -14 5v11q0 9 -13.5 15.5t-35 10.5t-47 6t-49.5 2h-17q-23 0 -37 -0.5t-21.5 -4.5t-9.5 -12t-2 -23v-228h26z" />
<glyph unicode="&#xc9;" horiz-adv-x="499" d="M294 1220q-6 -11 -20 -28l-27 -35q-14 -17 -26.5 -29.5t-18.5 -12.5q-4 0 -4 8q0 7 3.5 20t8.5 27.5t11.5 27.5t11.5 22q12 22 25.5 28.5t24.5 6.5q8 0 13 -2.5t5 -10.5t-7 -22zM206 534q18 0 35 1.5t31 7.5t22.5 17t8.5 31q7 5 16.5 9t20.5 4v-4q0 -54 17.5 -105 t48.5 -85q-5 -8 -15.5 -10.5t-21.5 -2.5q-13 19 -27 37t-32 32.5t-41 23.5t-53 9h-36v-304q0 -61 18 -118.5t56 -102.5t97 -72t142 -27q17 0 38 3.5t41 12t37.5 22.5t26.5 35q11 8 23 8q13 0 27 -8q2 -18 6 -35.5t4 -34.5q0 -19 -7 -36q-11 -2 -26.5 -3.5t-29.5 -1.5 q-28 0 -54.5 2.5t-54.5 2.5q-71 0 -123 11.5t-90 29t-65 37.5l-50 38q-23 18 -43 29.5t-44 11.5h-19q-8 0 -15 -0.5t-15 -1.5t-20 -2q-3 9 -3 18t3 15q15 1 23 12t12 26t4.5 32.5t0.5 31.5v570q0 11 -1 28t-5 33.5t-13.5 28t-25.5 12.5q-5 8 -5 16q0 9 6 17q24 -3 46.5 -4 t45.5 -1h135q21 0 46.5 1.5t50 4.5t45.5 6.5t33 7.5q5 2 10 3t10 1t8.5 -1t7.5 -3q-11 -23 -17 -46.5t-9 -46.5q-11 -5 -22 -5q-10 0 -14 5v11q0 9 -13.5 15.5t-35 10.5t-47 6t-49.5 2h-17q-23 0 -37 -0.5t-21.5 -4.5t-9.5 -12t-2 -23v-228h26z" />
<glyph unicode="&#xca;" horiz-adv-x="499" d="M209 1101q-11 -20 -24 -33t-39 -13h-17l76 130q5 8 10 14t15 6h41q12 0 16 -7l7 -13l76 -130h-14q-26 0 -38 9.5t-23 29.5l-45 78zM206 534q18 0 35 1.5t31 7.5t22.5 17t8.5 31q7 5 16.5 9t20.5 4v-4q0 -54 17.5 -105t48.5 -85q-5 -8 -15.5 -10.5t-21.5 -2.5 q-13 19 -27 37t-32 32.5t-41 23.5t-53 9h-36v-304q0 -61 18 -118.5t56 -102.5t97 -72t142 -27q17 0 38 3.5t41 12t37.5 22.5t26.5 35q11 8 23 8q13 0 27 -8q2 -18 6 -35.5t4 -34.5q0 -19 -7 -36q-11 -2 -26.5 -3.5t-29.5 -1.5q-28 0 -54.5 2.5t-54.5 2.5q-71 0 -123 11.5 t-90 29t-65 37.5l-50 38q-23 18 -43 29.5t-44 11.5h-19q-8 0 -15 -0.5t-15 -1.5t-20 -2q-3 9 -3 18t3 15q15 1 23 12t12 26t4.5 32.5t0.5 31.5v570q0 11 -1 28t-5 33.5t-13.5 28t-25.5 12.5q-5 8 -5 16q0 9 6 17q24 -3 46.5 -4t45.5 -1h135q21 0 46.5 1.5t50 4.5t45.5 6.5 t33 7.5q5 2 10 3t10 1t8.5 -1t7.5 -3q-11 -23 -17 -46.5t-9 -46.5q-11 -5 -22 -5q-10 0 -14 5v11q0 9 -13.5 15.5t-35 10.5t-47 6t-49.5 2h-17q-23 0 -37 -0.5t-21.5 -4.5t-9.5 -12t-2 -23v-228h26z" />
<glyph unicode="&#xcb;" horiz-adv-x="499" d="M269 1130q0 22 14.5 37.5t35.5 15.5t35.5 -15.5t14.5 -37.5t-14.5 -37.5t-35.5 -15.5t-35.5 15.5t-14.5 37.5zM129 1131q0 22 14.5 37.5t35.5 15.5t35.5 -15.5t14.5 -37.5t-14.5 -37.5t-35.5 -15.5t-35.5 15.5t-14.5 37.5zM206 534q18 0 35 1.5t31 7.5t22.5 17t8.5 31 q7 5 16.5 9t20.5 4v-4q0 -54 17.5 -105t48.5 -85q-5 -8 -15.5 -10.5t-21.5 -2.5q-13 19 -27 37t-32 32.5t-41 23.5t-53 9h-36v-304q0 -61 18 -118.5t56 -102.5t97 -72t142 -27q17 0 38 3.5t41 12t37.5 22.5t26.5 35q11 8 23 8q13 0 27 -8q2 -18 6 -35.5t4 -34.5 q0 -19 -7 -36q-11 -2 -26.5 -3.5t-29.5 -1.5q-28 0 -54.5 2.5t-54.5 2.5q-71 0 -123 11.5t-90 29t-65 37.5l-50 38q-23 18 -43 29.5t-44 11.5h-19q-8 0 -15 -0.5t-15 -1.5t-20 -2q-3 9 -3 18t3 15q15 1 23 12t12 26t4.5 32.5t0.5 31.5v570q0 11 -1 28t-5 33.5t-13.5 28 t-25.5 12.5q-5 8 -5 16q0 9 6 17q24 -3 46.5 -4t45.5 -1h135q21 0 46.5 1.5t50 4.5t45.5 6.5t33 7.5q5 2 10 3t10 1t8.5 -1t7.5 -3q-11 -23 -17 -46.5t-9 -46.5q-11 -5 -22 -5q-10 0 -14 5v11q0 9 -13.5 15.5t-35 10.5t-47 6t-49.5 2h-17q-23 0 -37 -0.5t-21.5 -4.5 t-9.5 -12t-2 -23v-228h26z" />
<glyph unicode="&#xcc;" d="M85 1220q-7 14 -7 22t5 10.5t13 2.5q11 0 24.5 -6.5t25.5 -28.5q5 -9 11 -22t11.5 -27.5t9 -27.5t3.5 -20q0 -8 -4 -8q-6 0 -18.5 12.5t-27 29.5t-27.5 34.5t-19 28.5zM40 28q15 1 23 12t12 26t4.5 32.5t0.5 31.5v672q0 11 -1 28t-5 33.5t-13.5 28t-25.5 12.5q-5 8 -5 16 q0 9 6 17q24 -3 46.5 -4t45.5 -1t45.5 1t46.5 4q3 -9 3 -18t-3 -15q-15 -1 -23 -12t-12 -26t-4.5 -32.5t-0.5 -31.5v-672q0 -16 1.5 -34t6.5 -33t14 -25t23 -10q5 -8 5 -16q0 -10 -6 -17q-24 3 -46.5 4t-45.5 1t-45.5 -1t-46.5 -4q-3 9 -3 18t3 15z" />
<glyph unicode="&#xcd;" d="M174 1220q-6 -11 -20 -28l-27 -35q-14 -17 -26.5 -29.5t-18.5 -12.5q-4 0 -4 8q0 7 3.5 20t8.5 27.5t11.5 27.5t11.5 22q12 22 25.5 28.5t24.5 6.5q8 0 13 -2.5t5 -10.5t-7 -22zM40 28q15 1 23 12t12 26t4.5 32.5t0.5 31.5v672q0 11 -1 28t-5 33.5t-13.5 28t-25.5 12.5 q-5 8 -5 16q0 9 6 17q24 -3 46.5 -4t45.5 -1t45.5 1t46.5 4q3 -9 3 -18t-3 -15q-15 -1 -23 -12t-12 -26t-4.5 -32.5t-0.5 -31.5v-672q0 -16 1.5 -34t6.5 -33t14 -25t23 -10q5 -8 5 -16q0 -10 -6 -17q-24 3 -46.5 4t-45.5 1t-45.5 -1t-46.5 -4q-3 9 -3 18t3 15z" />
<glyph unicode="&#xce;" d="M90 1101q-11 -20 -24 -33t-39 -13h-17l76 130q5 8 10 14t15 6h41q12 0 16 -7l7 -13l76 -130h-14q-26 0 -38 9.5t-23 29.5l-45 78zM40 28q15 1 23 12t12 26t4.5 32.5t0.5 31.5v672q0 11 -1 28t-5 33.5t-13.5 28t-25.5 12.5q-5 8 -5 16q0 9 6 17q24 -3 46.5 -4t45.5 -1 t45.5 1t46.5 4q3 -9 3 -18t-3 -15q-15 -1 -23 -12t-12 -26t-4.5 -32.5t-0.5 -31.5v-672q0 -16 1.5 -34t6.5 -33t14 -25t23 -10q5 -8 5 -16q0 -10 -6 -17q-24 3 -46.5 4t-45.5 1t-45.5 -1t-46.5 -4q-3 9 -3 18t3 15z" />
<glyph unicode="&#xcf;" d="M150 1130q0 22 14.5 37.5t35.5 15.5t35.5 -15.5t14.5 -37.5t-14.5 -37.5t-35.5 -15.5t-35.5 15.5t-14.5 37.5zM10 1131q0 22 14.5 37.5t35.5 15.5t35.5 -15.5t14.5 -37.5t-14.5 -37.5t-35.5 -15.5t-35.5 15.5t-14.5 37.5zM40 28q15 1 23 12t12 26t4.5 32.5t0.5 31.5v672 q0 11 -1 28t-5 33.5t-13.5 28t-25.5 12.5q-5 8 -5 16q0 9 6 17q24 -3 46.5 -4t45.5 -1t45.5 1t46.5 4q3 -9 3 -18t-3 -15q-15 -1 -23 -12t-12 -26t-4.5 -32.5t-0.5 -31.5v-672q0 -16 1.5 -34t6.5 -33t14 -25t23 -10q5 -8 5 -16q0 -10 -6 -17q-24 3 -46.5 4t-45.5 1t-45.5 -1 t-46.5 -4q-3 9 -3 18t3 15z" />
<glyph unicode="&#xd0;" horiz-adv-x="601" d="M281 835q50 0 91.5 -25.5t73.5 -67.5t55.5 -96t39 -112t23 -115.5t7.5 -105.5q0 -52 -8 -108.5t-33 -103t-72.5 -76.5t-126.5 -30q-43 0 -86 2.5t-86 2.5q-23 0 -45.5 -1t-46.5 -4q-3 9 -3 18t3 15q15 1 23 12t12 26t4.5 32.5t0.5 31.5v272q-19 -1 -38 -3t-39 -5 q3 12 3 31q0 20 -3 37q39 -14 77 -18v256q0 11 -1 28t-5 33.5t-13.5 28t-25.5 12.5q-5 8 -5 16q0 9 6 17q20 0 39 -3t38 -3q36 0 70 3t71 3zM291 462q-2 -7 -2 -16v-20v-18q0 -8 2 -16q-20 4 -41 6l-43 4v-272q0 -34 2 -53.5t7 -29t14.5 -12t23.5 -2.5h29q54 0 96 28.5 t70.5 73t43.5 99t15 106.5q0 42 -6 92.5t-18.5 102t-31.5 99.5t-45 85.5t-58.5 60t-71.5 22.5q-23 0 -37 -0.5t-21.5 -4.5t-9.5 -12t-2 -23v-317q21 2 42 6.5t42 10.5z" />
<glyph unicode="&#xd1;" horiz-adv-x="744" d="M588 209v489v117q0 34 9 56t21.5 34.5t27 17t25.5 4.5q19 0 34.5 -7t25.5 -18t15.5 -23.5t5.5 -24.5q0 -18 -7 -35t-21 -17q-6 62 -30 62q-8 0 -14.5 -5t-11.5 -12.5t-7.5 -16t-2.5 -15.5v-116v-569q0 -11 2 -28t7 -33.5t13 -28t20 -12.5q5 -7 10 -16q4 -10 4 -14 q0 -3 -2 -3q-68 0 -107.5 22.5t-63 54t-36.5 66.5t-29 59l-320 496v-563q0 -16 1 -34t4.5 -33t9.5 -25t16 -10q4 -7 4 -16q0 -10 -4 -17q-17 3 -33 4t-32 1t-31.5 -1t-32.5 -4q-1 5 -1.5 9t-0.5 9q0 7 2 15q10 1 16 12t8.5 26t3 32.5t0.5 31.5v570q0 11 -2 28t-7 33.5 t-13 28t-20 12.5q-5 7 -10 16q-2 3 -3 7t-1 10q19 -3 46.5 -4t43.5 -1h23q15 0 32 1t32.5 1.5t23.5 2.5q1 -5 1.5 -9t0.5 -9q0 -7 -2 -15q-3 -6 -3 -14q0 -15 8 -34.5t19.5 -40.5t24.5 -41l23 -36zM144 1110q17 44 53.5 69t79.5 25q23 0 40.5 -7.5t31.5 -18.5t27 -24.5 t26.5 -24.5t30 -18.5t38.5 -7.5q18 0 34.5 6.5t27.5 20.5q11 12 16.5 20t17.5 8q9 0 24 -6l9 -3q-17 -44 -53.5 -69t-79.5 -25q-34 0 -56.5 16t-43 34.5t-42 34.5t-52.5 16q-18 0 -34.5 -6.5t-27.5 -20.5q-11 -12 -16.5 -20t-17.5 -8q-9 0 -24 6z" />
<glyph unicode="&#xd2;" horiz-adv-x="659" d="M285 1220q-7 14 -7 22t5 10.5t13 2.5q11 0 24.5 -6.5t25.5 -28.5q5 -9 11 -22t11.5 -27.5t9 -27.5t3.5 -20q0 -8 -4 -8q-6 0 -18.5 12.5t-27 29.5t-27.5 34.5t-19 28.5zM30 415q0 86 23.5 164t64 137.5t95 95t116.5 35.5q73 0 129 -35.5t94 -95t57.5 -137.5t19.5 -164 t-24.5 -164t-66 -137.5t-97 -95t-117.5 -35.5q-51 0 -103.5 35.5t-95 95t-69 137.5t-26.5 164zM113 534q0 -48 2.5 -102.5t11.5 -107.5t27 -102.5t50 -86.5t80 -59.5t116 -22.5q64 0 104 75t40 220q0 48 -3 99t-12.5 99t-29 91.5t-53 75.5t-82.5 51t-119 19q-23 0 -46.5 -12 t-42.5 -40.5t-31 -76.5t-12 -120z" />
<glyph unicode="&#xd3;" horiz-adv-x="659" d="M374 1220q-6 -11 -20 -28l-27 -35q-14 -17 -26.5 -29.5t-18.5 -12.5q-4 0 -4 8q0 7 3.5 20t8.5 27.5t11.5 27.5t11.5 22q12 22 25.5 28.5t24.5 6.5q8 0 13 -2.5t5 -10.5t-7 -22zM30 415q0 86 23.5 164t64 137.5t95 95t116.5 35.5q73 0 129 -35.5t94 -95t57.5 -137.5 t19.5 -164t-24.5 -164t-66 -137.5t-97 -95t-117.5 -35.5q-51 0 -103.5 35.5t-95 95t-69 137.5t-26.5 164zM113 534q0 -48 2.5 -102.5t11.5 -107.5t27 -102.5t50 -86.5t80 -59.5t116 -22.5q64 0 104 75t40 220q0 48 -3 99t-12.5 99t-29 91.5t-53 75.5t-82.5 51t-119 19 q-23 0 -46.5 -12t-42.5 -40.5t-31 -76.5t-12 -120z" />
<glyph unicode="&#xd4;" horiz-adv-x="659" d="M289 1101q-11 -20 -24 -33t-39 -13h-17l76 130q5 8 10 14t15 6h41q12 0 16 -7l7 -13l76 -130h-14q-26 0 -38 9.5t-23 29.5l-45 78zM30 415q0 86 23.5 164t64 137.5t95 95t116.5 35.5q73 0 129 -35.5t94 -95t57.5 -137.5t19.5 -164t-24.5 -164t-66 -137.5t-97 -95 t-117.5 -35.5q-51 0 -103.5 35.5t-95 95t-69 137.5t-26.5 164zM113 534q0 -48 2.5 -102.5t11.5 -107.5t27 -102.5t50 -86.5t80 -59.5t116 -22.5q64 0 104 75t40 220q0 48 -3 99t-12.5 99t-29 91.5t-53 75.5t-82.5 51t-119 19q-23 0 -46.5 -12t-42.5 -40.5t-31 -76.5 t-12 -120z" />
<glyph unicode="&#xd5;" horiz-adv-x="659" d="M30 415q0 86 23.5 164t64 137.5t95 95t116.5 35.5q73 0 129 -35.5t94 -95t57.5 -137.5t19.5 -164t-24.5 -164t-66 -137.5t-97 -95t-117.5 -35.5q-51 0 -103.5 35.5t-95 95t-69 137.5t-26.5 164zM113 534q0 -48 2.5 -102.5t11.5 -107.5t27 -102.5t50 -86.5t80 -59.5 t116 -22.5q64 0 104 75t40 220q0 48 -3 99t-12.5 99t-29 91.5t-53 75.5t-82.5 51t-119 19q-23 0 -46.5 -12t-42.5 -40.5t-31 -76.5t-12 -120zM101 1110q17 44 53.5 69t79.5 25q23 0 40.5 -7.5t31.5 -18.5t27 -24.5t26.5 -24.5t30 -18.5t38.5 -7.5q18 0 34.5 6.5t27.5 20.5 q11 12 16.5 20t17.5 8q9 0 24 -6l9 -3q-17 -44 -53.5 -69t-79.5 -25q-34 0 -56.5 16t-43 34.5t-42 34.5t-52.5 16q-18 0 -34.5 -6.5t-27.5 -20.5q-11 -12 -16.5 -20t-17.5 -8q-9 0 -24 6z" />
<glyph unicode="&#xd6;" horiz-adv-x="659" d="M349 1130q0 22 14.5 37.5t35.5 15.5t35.5 -15.5t14.5 -37.5t-14.5 -37.5t-35.5 -15.5t-35.5 15.5t-14.5 37.5zM209 1131q0 22 14.5 37.5t35.5 15.5t35.5 -15.5t14.5 -37.5t-14.5 -37.5t-35.5 -15.5t-35.5 15.5t-14.5 37.5zM30 415q0 86 23.5 164t64 137.5t95 95 t116.5 35.5q73 0 129 -35.5t94 -95t57.5 -137.5t19.5 -164t-24.5 -164t-66 -137.5t-97 -95t-117.5 -35.5q-51 0 -103.5 35.5t-95 95t-69 137.5t-26.5 164zM113 534q0 -48 2.5 -102.5t11.5 -107.5t27 -102.5t50 -86.5t80 -59.5t116 -22.5q64 0 104 75t40 220q0 48 -3 99 t-12.5 99t-29 91.5t-53 75.5t-82.5 51t-119 19q-23 0 -46.5 -12t-42.5 -40.5t-31 -76.5t-12 -120z" />
<glyph unicode="&#xd7;" horiz-adv-x="444" d="M365 605q8 -13 23 -28q6 -6 13 -11l13 -11l-78 -67l-82 -76l75 -71q39 -36 84 -73q-12 -5 -25 -19q-7 -7 -13 -14t-10 -15q-32 45 -66.5 86.5t-71.5 79.5q-71 -74 -149 -164q-5 12 -19 25q-7 7 -14 13t-15 10q47 32 89.5 68t81.5 74l-83 74q-43 36 -88 69q13 8 28 23 q6 6 12 13l10 13q64 -81 147 -165q38 39 72 80t66 86z" />
<glyph unicode="&#xd8;" horiz-adv-x="625" d="M30 -17l46 69l44 69q-32 60 -50 135t-18 159q0 86 21 163.5t57 136.5t84 93.5t102 34.5q47 0 88.5 -26.5t74.5 -72.5l48 99q12 -6 33 -6q18 0 35 6l-45 -73l-43 -70q31 -58 48.5 -131t17.5 -154q0 -86 -21.5 -164t-58 -137.5t-85 -95t-102.5 -35.5q-45 0 -85 24.5 t-72 68.5l-25 -47l-24 -46q-11 6 -30 6q-22 0 -40 -6zM124 534q0 -36 3.5 -76.5t10.5 -81t18 -80.5t26 -76l127 211l118 212q-33 60 -79.5 98t-104.5 38q-20 0 -41.5 -11.5t-38.5 -39t-28 -75t-11 -119.5zM499 348q0 63 -13.5 129t-38.5 124l-129 -220l-115 -205 q30 -55 71.5 -89t97.5 -34t91.5 75t35.5 220z" />
<glyph unicode="&#xd9;" horiz-adv-x="582" d="M246 1220q-7 14 -7 22t5 10.5t13 2.5q11 0 24.5 -6.5t25.5 -28.5q5 -9 11 -22t11.5 -27.5t9 -27.5t3.5 -20q0 -8 -4 -8q-6 0 -18.5 12.5t-27 29.5t-27.5 34.5t-19 28.5zM532 130q0 -16 1 -34t4.5 -33t9.5 -25t16 -10q4 -7 4 -16q0 -10 -4 -17q-16 8 -36.5 11.5t-43.5 3.5 q-38 0 -76.5 -5t-66.5 -5q-68 0 -117 16.5t-80.5 45t-47 66t-15.5 79.5v493q0 11 -1 28t-5 33.5t-13.5 28t-25.5 12.5q-5 8 -5 16q0 9 6 17q24 -3 46.5 -4t45.5 -1t45.5 1t46.5 4q3 -9 3 -18t-3 -15q-15 -1 -23 -12t-12 -26t-4.5 -32.5t-0.5 -31.5v-495q0 -29 6 -59 t23 -55.5t47 -41.5t77 -16q27 0 50.5 10t41 30.5t27.5 52t10 74.5v500q0 11 -0.5 28t-3.5 33.5t-9.5 28t-18.5 12.5q-3 7 -3 16q0 10 4 17q17 -3 33 -4t32 -1t31.5 1t32.5 4q1 -5 1.5 -9t0.5 -9q0 -7 -2 -15q-11 -1 -16.5 -12t-8 -26t-3 -32.5t-0.5 -31.5v-570z" />
<glyph unicode="&#xda;" horiz-adv-x="582" d="M335 1220q-6 -11 -20 -28l-27 -35q-14 -17 -26.5 -29.5t-18.5 -12.5q-4 0 -4 8q0 7 3.5 20t8.5 27.5t11.5 27.5t11.5 22q12 22 25.5 28.5t24.5 6.5q8 0 13 -2.5t5 -10.5t-7 -22zM532 130q0 -16 1 -34t4.5 -33t9.5 -25t16 -10q4 -7 4 -16q0 -10 -4 -17q-16 8 -36.5 11.5 t-43.5 3.5q-38 0 -76.5 -5t-66.5 -5q-68 0 -117 16.5t-80.5 45t-47 66t-15.5 79.5v493q0 11 -1 28t-5 33.5t-13.5 28t-25.5 12.5q-5 8 -5 16q0 9 6 17q24 -3 46.5 -4t45.5 -1t45.5 1t46.5 4q3 -9 3 -18t-3 -15q-15 -1 -23 -12t-12 -26t-4.5 -32.5t-0.5 -31.5v-495 q0 -29 6 -59t23 -55.5t47 -41.5t77 -16q27 0 50.5 10t41 30.5t27.5 52t10 74.5v500q0 11 -0.5 28t-3.5 33.5t-9.5 28t-18.5 12.5q-3 7 -3 16q0 10 4 17q17 -3 33 -4t32 -1t31.5 1t32.5 4q1 -5 1.5 -9t0.5 -9q0 -7 -2 -15q-11 -1 -16.5 -12t-8 -26t-3 -32.5t-0.5 -31.5v-570z " />
<glyph unicode="&#xdb;" horiz-adv-x="582" d="M250 1101q-11 -20 -24 -33t-39 -13h-17l76 130q5 8 10 14t15 6h41q12 0 16 -7l7 -13l76 -130h-14q-26 0 -38 9.5t-23 29.5l-45 78zM532 130q0 -16 1 -34t4.5 -33t9.5 -25t16 -10q4 -7 4 -16q0 -10 -4 -17q-16 8 -36.5 11.5t-43.5 3.5q-38 0 -76.5 -5t-66.5 -5 q-68 0 -117 16.5t-80.5 45t-47 66t-15.5 79.5v493q0 11 -1 28t-5 33.5t-13.5 28t-25.5 12.5q-5 8 -5 16q0 9 6 17q24 -3 46.5 -4t45.5 -1t45.5 1t46.5 4q3 -9 3 -18t-3 -15q-15 -1 -23 -12t-12 -26t-4.5 -32.5t-0.5 -31.5v-495q0 -29 6 -59t23 -55.5t47 -41.5t77 -16 q27 0 50.5 10t41 30.5t27.5 52t10 74.5v500q0 11 -0.5 28t-3.5 33.5t-9.5 28t-18.5 12.5q-3 7 -3 16q0 10 4 17q17 -3 33 -4t32 -1t31.5 1t32.5 4q1 -5 1.5 -9t0.5 -9q0 -7 -2 -15q-11 -1 -16.5 -12t-8 -26t-3 -32.5t-0.5 -31.5v-570z" />
<glyph unicode="&#xdc;" horiz-adv-x="582" d="M311 1130q0 22 14.5 37.5t35.5 15.5t35.5 -15.5t14.5 -37.5t-14.5 -37.5t-35.5 -15.5t-35.5 15.5t-14.5 37.5zM171 1131q0 22 14.5 37.5t35.5 15.5t35.5 -15.5t14.5 -37.5t-14.5 -37.5t-35.5 -15.5t-35.5 15.5t-14.5 37.5zM532 130q0 -16 1 -34t4.5 -33t9.5 -25t16 -10 q4 -7 4 -16q0 -10 -4 -17q-16 8 -36.5 11.5t-43.5 3.5q-38 0 -76.5 -5t-66.5 -5q-68 0 -117 16.5t-80.5 45t-47 66t-15.5 79.5v493q0 11 -1 28t-5 33.5t-13.5 28t-25.5 12.5q-5 8 -5 16q0 9 6 17q24 -3 46.5 -4t45.5 -1t45.5 1t46.5 4q3 -9 3 -18t-3 -15q-15 -1 -23 -12 t-12 -26t-4.5 -32.5t-0.5 -31.5v-495q0 -29 6 -59t23 -55.5t47 -41.5t77 -16q27 0 50.5 10t41 30.5t27.5 52t10 74.5v500q0 11 -0.5 28t-3.5 33.5t-9.5 28t-18.5 12.5q-3 7 -3 16q0 10 4 17q17 -3 33 -4t32 -1t31.5 1t32.5 4q1 -5 1.5 -9t0.5 -9q0 -7 -2 -15 q-11 -1 -16.5 -12t-8 -26t-3 -32.5t-0.5 -31.5v-570z" />
<glyph unicode="&#xdd;" horiz-adv-x="653" d="M371 1220q-6 -11 -20 -28l-27 -35q-14 -17 -26.5 -29.5t-18.5 -12.5q-4 0 -4 8q0 7 3.5 20t8.5 27.5t11.5 27.5t11.5 22q12 22 25.5 28.5t24.5 6.5q8 0 13 -2.5t5 -10.5t-7 -22zM252 28q15 1 23 12t12 26t4.5 32.5t0.5 31.5v208l-159 362q-5 11 -14.5 28t-22.5 33.5 t-29 28t-32 12.5q-2 4 -3 7.5t-2 8.5q0 8 7 17q23 -3 46 -4t46 -1t44 1t46 4q1 -5 2 -9t1 -9q-2 -11 -4 -15q-8 -3 -8 -19q0 -17 6.5 -40t15.5 -43l119 -271l165 372q18 39 34.5 65t34.5 41.5t37.5 22t43.5 6.5q2 -5 2 -9v-9v-5q0 -7 -1 -10q-11 -1 -22.5 -12t-22.5 -26 t-20.5 -32.5t-15.5 -31.5l-194 -436v-235q0 -16 1.5 -34t6.5 -33t14 -25t23 -10q5 -8 5 -16q0 -10 -6 -17q-24 3 -46.5 4t-45.5 1t-45.5 -1t-46.5 -4q-3 9 -3 18t3 15z" />
<glyph unicode="&#xde;" horiz-adv-x="562" d="M40 28q15 1 23 12t12 26t4.5 32.5t0.5 31.5v571q0 11 -1 28t-5 33.5t-13.5 28t-25.5 12.5q-5 8 -5 16q0 9 6 17q59 0 86.5 19.5t27.5 45.5q10 0 20 -11t10 -22v-216l34 30q17 15 35 26t39.5 18t48.5 7q30 0 64 -17t63.5 -47.5t48.5 -74t19 -97.5q0 -86 -24.5 -148.5 t-61.5 -103.5t-80.5 -60.5t-81.5 -19.5q-22 0 -49.5 11t-54.5 34v-80q0 -16 1.5 -34t6.5 -33t14 -25t23 -10q5 -8 5 -16q0 -10 -6 -17q-24 3 -46.5 4t-45.5 1t-45.5 -1t-46.5 -4q-3 9 -3 18t3 15zM299 668q-16 0 -36.5 -9t-38.5 -31.5t-30.5 -61t-13.5 -97.5v-27 q1 -69 9.5 -110t28.5 -62.5t52 -28t80 -6.5q15 0 31.5 12.5t30.5 36.5t23.5 60t9.5 83q0 67 -9.5 113.5t-28.5 74.5t-46 40.5t-62 12.5z" />
<glyph unicode="&#xdf;" horiz-adv-x="633" d="M507 272q0 62 -14.5 127.5t-52.5 116.5q-18 -13 -40 -21l-46 -17q-24 -8 -47.5 -19.5t-43.5 -31.5q0 22 12 36.5t28 24.5t33 17.5t28 17.5q12 8 22 18.5t17.5 26.5t12 38t4.5 53q0 53 -21 82t-49 42.5t-57 16t-45 2.5h-5q-23 0 -37 -10t-21.5 -25t-9.5 -32.5t-2 -32.5 v-550q0 -26 -2 -52.5t-15.5 -48.5t-42 -37.5t-80.5 -18.5q-3 9 -3 18t3 15q15 1 23 12t12 26t4.5 32.5t0.5 31.5v540q0 12 5 39t24 55t55.5 49.5t99.5 21.5q28 0 68 -5.5t76.5 -25.5t62.5 -59t26 -106q0 -53 -17 -84q21 -19 44 -48.5t42 -68t31.5 -85.5t12.5 -101 q0 -39 -9.5 -83.5t-32 -82t-58.5 -63t-89 -25.5q-35 0 -74 2l-97 3v8q0 20 9 27t23 7q15 0 32 -4.5t30 -4.5h52q44 0 68 23t35 58t13 76.5t2 78.5z" />
<glyph unicode="&#xe0;" horiz-adv-x="478" d="M17 140q0 45 20 84.5t57 71t90.5 55t119.5 37.5q-8 111 -109 111q-18 0 -29 -5.5t-16 -13t-6.5 -16.5t-1.5 -15q0 -18 16 -31q3 -3 3 -6q0 -8 -15.5 -18t-38.5 -10q-26 0 -42 14.5t-16 41.5q0 14 17.5 33t44.5 36.5t58 29.5t58 12q51 0 85.5 -15.5t55 -39t29 -50 t8.5 -48.5v-268q0 -14 0.5 -31.5t4.5 -32.5t12 -26t23 -12q3 -6 3 -15t-3 -18q-58 0 -87 14t-41 40q-33 -28 -75 -47t-77 -19q-27 0 -53.5 10t-47.5 30t-34 49t-13 68zM103 177q0 -25 7.5 -47t23.5 -38.5t40.5 -26.5t57.5 -10q15 0 28 7.5t23 25.5t16 48.5t6 77.5v115 q-5 -3 -22 -5.5t-39 -6.5t-47 -11.5t-45.5 -20t-34.5 -31.5t-14 -47v-30zM194 866q-7 14 -7 22t5 10.5t13 2.5q11 0 24.5 -6.5t25.5 -28.5q5 -9 11 -22t11.5 -27.5t9 -27.5t3.5 -20q0 -8 -4 -8q-6 0 -18.5 12.5t-27 29.5t-27.5 34.5t-19 28.5z" />
<glyph unicode="&#xe1;" horiz-adv-x="478" d="M283 866q-6 -11 -20 -28l-27 -35q-14 -17 -26.5 -29.5t-18.5 -12.5q-4 0 -4 8q0 7 3.5 20t8.5 27.5t11.5 27.5t11.5 22q12 22 25.5 28.5t24.5 6.5q8 0 13 -2.5t5 -10.5t-7 -22zM17 140q0 45 20 84.5t57 71t90.5 55t119.5 37.5q-8 111 -109 111q-18 0 -29 -5.5t-16 -13 t-6.5 -16.5t-1.5 -15q0 -18 16 -31q3 -3 3 -6q0 -8 -15.5 -18t-38.5 -10q-26 0 -42 14.5t-16 41.5q0 14 17.5 33t44.5 36.5t58 29.5t58 12q51 0 85.5 -15.5t55 -39t29 -50t8.5 -48.5v-268q0 -14 0.5 -31.5t4.5 -32.5t12 -26t23 -12q3 -6 3 -15t-3 -18q-58 0 -87 14t-41 40 q-33 -28 -75 -47t-77 -19q-27 0 -53.5 10t-47.5 30t-34 49t-13 68zM103 177q0 -25 7.5 -47t23.5 -38.5t40.5 -26.5t57.5 -10q15 0 28 7.5t23 25.5t16 48.5t6 77.5v115q-5 -3 -22 -5.5t-39 -6.5t-47 -11.5t-45.5 -20t-34.5 -31.5t-14 -47v-30z" />
<glyph unicode="&#xe2;" horiz-adv-x="478" d="M198 747q-11 -20 -24 -33t-39 -13h-17l76 130q5 8 10 14t15 6h41q12 0 16 -7l7 -13l76 -130h-14q-26 0 -38 9.5t-23 29.5l-45 78zM17 140q0 45 20 84.5t57 71t90.5 55t119.5 37.5q-8 111 -109 111q-18 0 -29 -5.5t-16 -13t-6.5 -16.5t-1.5 -15q0 -18 16 -31q3 -3 3 -6 q0 -8 -15.5 -18t-38.5 -10q-26 0 -42 14.5t-16 41.5q0 14 17.5 33t44.5 36.5t58 29.5t58 12q51 0 85.5 -15.5t55 -39t29 -50t8.5 -48.5v-268q0 -14 0.5 -31.5t4.5 -32.5t12 -26t23 -12q3 -6 3 -15t-3 -18q-58 0 -87 14t-41 40q-33 -28 -75 -47t-77 -19q-27 0 -53.5 10 t-47.5 30t-34 49t-13 68zM103 177q0 -25 7.5 -47t23.5 -38.5t40.5 -26.5t57.5 -10q15 0 28 7.5t23 25.5t16 48.5t6 77.5v115q-5 -3 -22 -5.5t-39 -6.5t-47 -11.5t-45.5 -20t-34.5 -31.5t-14 -47v-30z" />
<glyph unicode="&#xe3;" horiz-adv-x="478" d="M17 140q0 45 20 84.5t57 71t90.5 55t119.5 37.5q-8 111 -109 111q-18 0 -29 -5.5t-16 -13t-6.5 -16.5t-1.5 -15q0 -18 16 -31q3 -3 3 -6q0 -8 -15.5 -18t-38.5 -10q-26 0 -42 14.5t-16 41.5q0 14 17.5 33t44.5 36.5t58 29.5t58 12q51 0 85.5 -15.5t55 -39t29 -50 t8.5 -48.5v-268q0 -14 0.5 -31.5t4.5 -32.5t12 -26t23 -12q3 -6 3 -15t-3 -18q-58 0 -87 14t-41 40q-33 -28 -75 -47t-77 -19q-27 0 -53.5 10t-47.5 30t-34 49t-13 68zM103 177q0 -25 7.5 -47t23.5 -38.5t40.5 -26.5t57.5 -10q15 0 28 7.5t23 25.5t16 48.5t6 77.5v115 q-5 -3 -22 -5.5t-39 -6.5t-47 -11.5t-45.5 -20t-34.5 -31.5t-14 -47v-30zM11 756q17 44 53.5 69t79.5 25q23 0 40.5 -7.5t31.5 -18.5t27 -24.5t26.5 -24.5t30 -18.5t38.5 -7.5q18 0 34.5 6.5t27.5 20.5q11 12 16.5 20t17.5 8q9 0 24 -6l9 -3q-17 -44 -53.5 -69t-79.5 -25 q-34 0 -56.5 16t-43 34.5t-42 34.5t-52.5 16q-18 0 -34.5 -6.5t-27.5 -20.5q-11 -12 -16.5 -20t-17.5 -8q-9 0 -24 6z" />
<glyph unicode="&#xe4;" horiz-adv-x="478" d="M259 776q0 22 14.5 37.5t35.5 15.5t35.5 -15.5t14.5 -37.5t-14.5 -37.5t-35.5 -15.5t-35.5 15.5t-14.5 37.5zM119 777q0 22 14.5 37.5t35.5 15.5t35.5 -15.5t14.5 -37.5t-14.5 -37.5t-35.5 -15.5t-35.5 15.5t-14.5 37.5zM17 140q0 45 20 84.5t57 71t90.5 55t119.5 37.5 q-8 111 -109 111q-18 0 -29 -5.5t-16 -13t-6.5 -16.5t-1.5 -15q0 -18 16 -31q3 -3 3 -6q0 -8 -15.5 -18t-38.5 -10q-26 0 -42 14.5t-16 41.5q0 14 17.5 33t44.5 36.5t58 29.5t58 12q51 0 85.5 -15.5t55 -39t29 -50t8.5 -48.5v-268q0 -14 0.5 -31.5t4.5 -32.5t12 -26t23 -12 q3 -6 3 -15t-3 -18q-58 0 -87 14t-41 40q-33 -28 -75 -47t-77 -19q-27 0 -53.5 10t-47.5 30t-34 49t-13 68zM103 177q0 -25 7.5 -47t23.5 -38.5t40.5 -26.5t57.5 -10q15 0 28 7.5t23 25.5t16 48.5t6 77.5v115q-5 -3 -22 -5.5t-39 -6.5t-47 -11.5t-45.5 -20t-34.5 -31.5 t-14 -47v-30z" />
<glyph unicode="&#xe5;" horiz-adv-x="478" d="M17 140q0 45 20 84.5t57 71t90.5 55t119.5 37.5q-8 111 -109 111q-18 0 -29 -5.5t-16 -13t-6.5 -16.5t-1.5 -15q0 -18 16 -31q3 -3 3 -6q0 -8 -15.5 -18t-38.5 -10q-26 0 -42 14.5t-16 41.5q0 14 17.5 33t44.5 36.5t58 29.5t58 12q51 0 85.5 -15.5t55 -39t29 -50 t8.5 -48.5v-268q0 -14 0.5 -31.5t4.5 -32.5t12 -26t23 -12q3 -6 3 -15t-3 -18q-58 0 -87 14t-41 40q-33 -28 -75 -47t-77 -19q-27 0 -53.5 10t-47.5 30t-34 49t-13 68zM103 177q0 -25 7.5 -47t23.5 -38.5t40.5 -26.5t57.5 -10q15 0 28 7.5t23 25.5t16 48.5t6 77.5v115 q-5 -3 -22 -5.5t-39 -6.5t-47 -11.5t-45.5 -20t-34.5 -31.5t-14 -47v-30zM166 771q0 30 21 51t51 21t51.5 -21t21.5 -51t-21.5 -51t-51.5 -21t-51 21t-21 51zM195 771q0 -18 12.5 -30.5t30.5 -12.5t31 12.5t13 30.5t-13 30.5t-31 12.5t-30.5 -12.5t-12.5 -30.5z" />
<glyph unicode="&#xe6;" horiz-adv-x="803" d="M30 140q0 45 20 84.5t57 71t90.5 55t119.5 37.5q-8 111 -109 111q-18 0 -29 -5.5t-16 -13t-6.5 -16.5t-1.5 -15q0 -18 16 -31q3 -3 3 -6q0 -8 -15.5 -18t-38.5 -10q-26 0 -42 14.5t-16 41.5q0 14 17.5 33t44.5 36.5t58 29.5t58 12q37 0 65.5 -8.5t49 -22.5t33.5 -32 t20 -37q21 25 44 43.5t45 31t42 19t34 6.5q37 0 72.5 -16t63 -46t45 -73t19.5 -97q-43 0 -88.5 -8.5t-91 -23.5t-88.5 -34.5t-82 -40.5q17 -90 66 -124.5t130 -34.5q10 0 22 7t22.5 16t17.5 19t7 16t-6 9l-7 4v5q0 11 13 21q16 -14 32.5 -21.5t33.5 -11.5q-10 -26 -32 -50 t-50 -43t-59.5 -30t-59.5 -11q-17 0 -38.5 6t-44.5 18.5t-45.5 31t-41.5 43.5q-15 -24 -40.5 -42.5t-54.5 -31t-58 -19t-52 -6.5q-27 0 -53.5 10t-47.5 30t-34 49t-13 68zM116 177q0 -25 7.5 -47t23.5 -38.5t40.5 -26.5t57.5 -10q15 0 28 7.5t23 25.5t16 48.5t6 77.5v115 q-5 -3 -22 -5.5t-39 -6.5t-47 -11.5t-45.5 -20t-34.5 -31.5t-14 -47v-30zM416 301q0 -32 3 -57q57 32 129 60.5t142 42.5q-5 67 -43.5 103t-91.5 36q-17 0 -40.5 -5.5t-45.5 -24t-37.5 -55.5t-15.5 -100z" />
<glyph unicode="&#xe7;" horiz-adv-x="483" d="M219 -168v36h75q23 0 40 5t17 19q0 19 -12 24.5t-30 5.5q-22 0 -40.5 14t-23.5 48q-29 3 -66 20.5t-70 49.5t-56 77.5t-23 105.5q0 78 22 137t57.5 98t79.5 59t88 20q54 0 100 -37t72 -93q3 -6 3 -13q-27 -7 -50 -19.5t-46 -28.5q-5 5 -8.5 10t-3.5 15l11 9q10 9 10 18 q0 8 -1.5 18.5t-8.5 16.5q-18 16 -43.5 27.5t-52.5 11.5q-43 0 -70.5 -5.5t-44 -24t-23 -55.5t-6.5 -100q0 -50 4 -95t24.5 -79t62.5 -54t117 -20q10 0 21.5 7t21 16t15.5 19t6 16t-6 9l-7 4v5q0 11 13 21q16 -14 32.5 -21.5t33.5 -11.5q-9 -23 -27 -45t-41.5 -40 t-50.5 -30.5t-53 -16.5q3 -17 12.5 -27.5t23.5 -10.5q35 0 51 -16t16 -39q0 -18 -7 -29.5t-19 -18.5t-28 -9.5t-34 -2.5h-77z" />
<glyph unicode="&#xe8;" horiz-adv-x="502" d="M122 212q17 -90 66 -124.5t130 -34.5q10 0 22 7t22.5 16t17.5 19t7 16t-6 9l-7 4v5q0 11 13 21q16 -14 32.5 -21.5t33.5 -11.5q-10 -26 -32 -50t-50 -43t-59.5 -30t-59.5 -11q-27 0 -65 16t-73 48t-59.5 79.5t-24.5 110.5q0 78 28.5 137t67.5 98t80 59t66 20 q37 0 72.5 -16t63 -46t45 -73t19.5 -97q-43 0 -88.5 -8.5t-91 -23.5t-88.5 -34.5t-82 -40.5zM115 301q0 -32 3 -57q57 32 129 60.5t142 42.5q-5 67 -43.5 103t-91.5 36q-17 0 -40.5 -5.5t-45.5 -24t-37.5 -55.5t-15.5 -100zM206 866q-7 14 -7 22t5 10.5t13 2.5 q11 0 24.5 -6.5t25.5 -28.5q5 -9 11 -22t11.5 -27.5t9 -27.5t3.5 -20q0 -8 -4 -8q-6 0 -18.5 12.5t-27 29.5t-27.5 34.5t-19 28.5z" />
<glyph unicode="&#xe9;" horiz-adv-x="502" d="M295 866q-6 -11 -20 -28l-27 -35q-14 -17 -26.5 -29.5t-18.5 -12.5q-4 0 -4 8q0 7 3.5 20t8.5 27.5t11.5 27.5t11.5 22q12 22 25.5 28.5t24.5 6.5q8 0 13 -2.5t5 -10.5t-7 -22zM122 212q17 -90 66 -124.5t130 -34.5q10 0 22 7t22.5 16t17.5 19t7 16t-6 9l-7 4v5 q0 11 13 21q16 -14 32.5 -21.5t33.5 -11.5q-10 -26 -32 -50t-50 -43t-59.5 -30t-59.5 -11q-27 0 -65 16t-73 48t-59.5 79.5t-24.5 110.5q0 78 28.5 137t67.5 98t80 59t66 20q37 0 72.5 -16t63 -46t45 -73t19.5 -97q-43 0 -88.5 -8.5t-91 -23.5t-88.5 -34.5t-82 -40.5z M115 301q0 -32 3 -57q57 32 129 60.5t142 42.5q-5 67 -43.5 103t-91.5 36q-17 0 -40.5 -5.5t-45.5 -24t-37.5 -55.5t-15.5 -100z" />
<glyph unicode="&#xea;" horiz-adv-x="502" d="M210 747q-11 -20 -24 -33t-39 -13h-17l76 130q5 8 10 14t15 6h41q12 0 16 -7l7 -13l76 -130h-14q-26 0 -38 9.5t-23 29.5l-45 78zM122 212q17 -90 66 -124.5t130 -34.5q10 0 22 7t22.5 16t17.5 19t7 16t-6 9l-7 4v5q0 11 13 21q16 -14 32.5 -21.5t33.5 -11.5 q-10 -26 -32 -50t-50 -43t-59.5 -30t-59.5 -11q-27 0 -65 16t-73 48t-59.5 79.5t-24.5 110.5q0 78 28.5 137t67.5 98t80 59t66 20q37 0 72.5 -16t63 -46t45 -73t19.5 -97q-43 0 -88.5 -8.5t-91 -23.5t-88.5 -34.5t-82 -40.5zM115 301q0 -32 3 -57q57 32 129 60.5t142 42.5 q-5 67 -43.5 103t-91.5 36q-17 0 -40.5 -5.5t-45.5 -24t-37.5 -55.5t-15.5 -100z" />
<glyph unicode="&#xeb;" horiz-adv-x="502" d="M271 776q0 22 14.5 37.5t35.5 15.5t35.5 -15.5t14.5 -37.5t-14.5 -37.5t-35.5 -15.5t-35.5 15.5t-14.5 37.5zM131 777q0 22 14.5 37.5t35.5 15.5t35.5 -15.5t14.5 -37.5t-14.5 -37.5t-35.5 -15.5t-35.5 15.5t-14.5 37.5zM122 212q17 -90 66 -124.5t130 -34.5q10 0 22 7 t22.5 16t17.5 19t7 16t-6 9l-7 4v5q0 11 13 21q16 -14 32.5 -21.5t33.5 -11.5q-10 -26 -32 -50t-50 -43t-59.5 -30t-59.5 -11q-27 0 -65 16t-73 48t-59.5 79.5t-24.5 110.5q0 78 28.5 137t67.5 98t80 59t66 20q37 0 72.5 -16t63 -46t45 -73t19.5 -97q-43 0 -88.5 -8.5 t-91 -23.5t-88.5 -34.5t-82 -40.5zM115 301q0 -32 3 -57q57 32 129 60.5t142 42.5q-5 67 -43.5 103t-91.5 36q-17 0 -40.5 -5.5t-45.5 -24t-37.5 -55.5t-15.5 -100z" />
<glyph unicode="&#xec;" d="M80 782q0 22 14.5 37.5t35.5 15.5t35.5 -15.5t14.5 -37.5t-14.5 -37.5t-35.5 -15.5t-35.5 15.5t-14.5 37.5zM40 28q15 1 23 12t12 26t4.5 32.5t0.5 31.5v268q0 11 -1 28t-5 33.5t-13.5 28t-25.5 12.5q-5 8 -5 16q0 9 6 17q59 0 86.5 19.5t27.5 45.5q10 0 20 -11t10 -22 v-435q0 -16 1.5 -34t6.5 -33t14 -25t23 -10q5 -8 5 -16q0 -10 -6 -17q-24 3 -46.5 4t-45.5 1t-45.5 -1t-46.5 -4q-3 9 -3 18t3 15zM85 866q-7 14 -7 22t5 10.5t13 2.5q11 0 24.5 -6.5t25.5 -28.5q5 -9 11 -22t11.5 -27.5t9 -27.5t3.5 -20q0 -8 -4 -8q-6 0 -18.5 12.5 t-27 29.5t-27.5 34.5t-19 28.5z" />
<glyph unicode="&#xed;" d="M174 866q-6 -11 -20 -28l-27 -35q-14 -17 -26.5 -29.5t-18.5 -12.5q-4 0 -4 8q0 7 3.5 20t8.5 27.5t11.5 27.5t11.5 22q12 22 25.5 28.5t24.5 6.5q8 0 13 -2.5t5 -10.5t-7 -22zM80 782q0 22 14.5 37.5t35.5 15.5t35.5 -15.5t14.5 -37.5t-14.5 -37.5t-35.5 -15.5 t-35.5 15.5t-14.5 37.5zM40 28q15 1 23 12t12 26t4.5 32.5t0.5 31.5v268q0 11 -1 28t-5 33.5t-13.5 28t-25.5 12.5q-5 8 -5 16q0 9 6 17q59 0 86.5 19.5t27.5 45.5q10 0 20 -11t10 -22v-435q0 -16 1.5 -34t6.5 -33t14 -25t23 -10q5 -8 5 -16q0 -10 -6 -17q-24 3 -46.5 4 t-45.5 1t-45.5 -1t-46.5 -4q-3 9 -3 18t3 15z" />
<glyph unicode="&#xee;" d="M90 747q-11 -20 -24 -33t-39 -13h-17l76 130q5 8 10 14t15 6h41q12 0 16 -7l7 -13l76 -130h-14q-26 0 -38 9.5t-23 29.5l-45 78zM40 28q15 1 23 12t12 26t4.5 32.5t0.5 31.5v268q0 11 -1 28t-5 33.5t-13.5 28t-25.5 12.5q-5 8 -5 16q0 9 6 17q59 0 86.5 19.5t27.5 45.5 q10 0 20 -11t10 -22v-435q0 -16 1.5 -34t6.5 -33t14 -25t23 -10q5 -8 5 -16q0 -10 -6 -17q-24 3 -46.5 4t-45.5 1t-45.5 -1t-46.5 -4q-3 9 -3 18t3 15z" />
<glyph unicode="&#xef;" d="M150 776q0 22 14.5 37.5t35.5 15.5t35.5 -15.5t14.5 -37.5t-14.5 -37.5t-35.5 -15.5t-35.5 15.5t-14.5 37.5zM10 777q0 22 14.5 37.5t35.5 15.5t35.5 -15.5t14.5 -37.5t-14.5 -37.5t-35.5 -15.5t-35.5 15.5t-14.5 37.5zM40 28q15 1 23 12t12 26t4.5 32.5t0.5 31.5v268 q0 11 -1 28t-5 33.5t-13.5 28t-25.5 12.5q-5 8 -5 16q0 9 6 17q59 0 86.5 19.5t27.5 45.5q10 0 20 -11t10 -22v-435q0 -16 1.5 -34t6.5 -33t14 -25t23 -10q5 -8 5 -16q0 -10 -6 -17q-24 3 -46.5 4t-45.5 1t-45.5 -1t-46.5 -4q-3 9 -3 18t3 15z" />
<glyph unicode="&#xf0;" horiz-adv-x="549" d="M187 665q23 11 45 23.5t44 26.5q-26 28 -62 59l-85 70q2 8 12 8q11 0 28 -8q88 -38 151 -98q18 14 36 29.5t35 33.5q3 -21 22 -35q-19 -11 -37 -22.5t-36 -24.5q57 -59 92.5 -128t54.5 -136t25.5 -126.5t6.5 -99.5q0 -39 -16 -83.5t-47 -82.5t-76 -63t-103 -25 q-38 0 -81.5 12t-80 43.5t-61 86.5t-24.5 141q0 54 25 105t61.5 91t76.5 64.5t70 24.5q28 0 45 -1t28.5 -4t20.5 -8l22 -14q-14 53 -32.5 92t-51.5 78l-43 -34l-41 -34q-3 28 -24 39zM434 301q0 63 -16 100t-38 55.5t-46.5 24t-40.5 5.5q-35 0 -67 -8t-57 -31.5t-39.5 -65.5 t-14.5 -109q0 -47 15 -87t36 -69.5t43 -46t37 -16.5q49 0 84.5 11t58.5 39t34 76t11 122z" />
<glyph unicode="&#xf1;" horiz-adv-x="578" d="M396 28q12 1 18.5 12t9.5 26t3.5 32.5t0.5 31.5v169q0 55 -12 91t-33 57.5t-50 30t-64 8.5h-21q-12 0 -23.5 -2t-23 -8.5t-21.5 -18.5v-327q0 -16 1.5 -34t6.5 -33t14 -25t23 -10q5 -8 5 -16q0 -10 -6 -17q-24 3 -46.5 4t-45.5 1t-45.5 -1t-46.5 -4q-3 9 -3 18t3 15 q15 1 23 12t12 26t4.5 32.5t0.5 31.5v268q0 11 -1 28t-5 33.5t-13.5 28t-25.5 12.5q-5 8 -5 16q0 9 6 17q59 0 86.5 19.5t27.5 45.5q10 0 20 -11t10 -22v-53q29 22 61.5 30.5t65.5 8.5q30 0 65 -7t65 -25.5t50.5 -52t20.5 -86.5v-250q0 -16 1.5 -34t5 -33t10.5 -25t19 -10 q2 -4 3 -7.5t1 -8.5q0 -9 -5 -17q-20 3 -38 4t-36 1t-36 -1t-37 -4q-3 9 -3 18t3 15zM61 756q17 44 53.5 69t79.5 25q23 0 40.5 -7.5t31.5 -18.5t27 -24.5t26.5 -24.5t30 -18.5t38.5 -7.5q18 0 34.5 6.5t27.5 20.5q11 12 16.5 20t17.5 8q9 0 24 -6l9 -3q-17 -44 -53.5 -69 t-79.5 -25q-34 0 -56.5 16t-43 34.5t-42 34.5t-52.5 16q-18 0 -34.5 -6.5t-27.5 -20.5q-11 -12 -16.5 -20t-17.5 -8q-9 0 -24 6z" />
<glyph unicode="&#xf2;" horiz-adv-x="502" d="M30 237q0 78 25 137t61.5 98t78.5 59t77 20q30 0 65 -16.5t65 -47t50 -73.5t20 -97q0 -86 -26 -149t-64.5 -104t-83.5 -61t-83 -20q-27 0 -59.5 16t-60 48t-46.5 79.5t-19 110.5zM115 301q0 -74 7.5 -122t26.5 -76t51 -39t81 -11q15 0 33 12.5t33.5 37.5t26.5 61t11 83 q0 67 -10.5 113t-30 74t-47.5 40t-63 12q-17 0 -37.5 -5.5t-38.5 -24t-30.5 -55.5t-12.5 -100zM206 866q-7 14 -7 22t5 10.5t13 2.5q11 0 24.5 -6.5t25.5 -28.5q5 -9 11 -22t11.5 -27.5t9 -27.5t3.5 -20q0 -8 -4 -8q-6 0 -18.5 12.5t-27 29.5t-27.5 34.5t-19 28.5z" />
<glyph unicode="&#xf3;" horiz-adv-x="502" d="M295 866q-6 -11 -20 -28l-27 -35q-14 -17 -26.5 -29.5t-18.5 -12.5q-4 0 -4 8q0 7 3.5 20t8.5 27.5t11.5 27.5t11.5 22q12 22 25.5 28.5t24.5 6.5q8 0 13 -2.5t5 -10.5t-7 -22zM30 237q0 78 25 137t61.5 98t78.5 59t77 20q30 0 65 -16.5t65 -47t50 -73.5t20 -97 q0 -86 -26 -149t-64.5 -104t-83.5 -61t-83 -20q-27 0 -59.5 16t-60 48t-46.5 79.5t-19 110.5zM115 301q0 -74 7.5 -122t26.5 -76t51 -39t81 -11q15 0 33 12.5t33.5 37.5t26.5 61t11 83q0 67 -10.5 113t-30 74t-47.5 40t-63 12q-17 0 -37.5 -5.5t-38.5 -24t-30.5 -55.5 t-12.5 -100z" />
<glyph unicode="&#xf4;" horiz-adv-x="502" d="M210 747q-11 -20 -24 -33t-39 -13h-17l76 130q5 8 10 14t15 6h41q12 0 16 -7l7 -13l76 -130h-14q-26 0 -38 9.5t-23 29.5l-45 78zM30 237q0 78 25 137t61.5 98t78.5 59t77 20q30 0 65 -16.5t65 -47t50 -73.5t20 -97q0 -86 -26 -149t-64.5 -104t-83.5 -61t-83 -20 q-27 0 -59.5 16t-60 48t-46.5 79.5t-19 110.5zM115 301q0 -74 7.5 -122t26.5 -76t51 -39t81 -11q15 0 33 12.5t33.5 37.5t26.5 61t11 83q0 67 -10.5 113t-30 74t-47.5 40t-63 12q-17 0 -37.5 -5.5t-38.5 -24t-30.5 -55.5t-12.5 -100z" />
<glyph unicode="&#xf5;" horiz-adv-x="502" d="M30 237q0 78 25 137t61.5 98t78.5 59t77 20q30 0 65 -16.5t65 -47t50 -73.5t20 -97q0 -86 -26 -149t-64.5 -104t-83.5 -61t-83 -20q-27 0 -59.5 16t-60 48t-46.5 79.5t-19 110.5zM115 301q0 -74 7.5 -122t26.5 -76t51 -39t81 -11q15 0 33 12.5t33.5 37.5t26.5 61t11 83 q0 67 -10.5 113t-30 74t-47.5 40t-63 12q-17 0 -37.5 -5.5t-38.5 -24t-30.5 -55.5t-12.5 -100zM23 756q17 44 53.5 69t79.5 25q23 0 40.5 -7.5t31.5 -18.5t27 -24.5t26.5 -24.5t30 -18.5t38.5 -7.5q18 0 34.5 6.5t27.5 20.5q11 12 16.5 20t17.5 8q9 0 24 -6l9 -3 q-17 -44 -53.5 -69t-79.5 -25q-34 0 -56.5 16t-43 34.5t-42 34.5t-52.5 16q-18 0 -34.5 -6.5t-27.5 -20.5q-11 -12 -16.5 -20t-17.5 -8q-9 0 -24 6z" />
<glyph unicode="&#xf6;" horiz-adv-x="502" d="M271 776q0 22 14.5 37.5t35.5 15.5t35.5 -15.5t14.5 -37.5t-14.5 -37.5t-35.5 -15.5t-35.5 15.5t-14.5 37.5zM131 777q0 22 14.5 37.5t35.5 15.5t35.5 -15.5t14.5 -37.5t-14.5 -37.5t-35.5 -15.5t-35.5 15.5t-14.5 37.5zM30 237q0 78 25 137t61.5 98t78.5 59t77 20 q30 0 65 -16.5t65 -47t50 -73.5t20 -97q0 -86 -26 -149t-64.5 -104t-83.5 -61t-83 -20q-27 0 -59.5 16t-60 48t-46.5 79.5t-19 110.5zM115 301q0 -74 7.5 -122t26.5 -76t51 -39t81 -11q15 0 33 12.5t33.5 37.5t26.5 61t11 83q0 67 -10.5 113t-30 74t-47.5 40t-63 12 q-17 0 -37.5 -5.5t-38.5 -24t-30.5 -55.5t-12.5 -100z" />
<glyph unicode="&#xf7;" horiz-adv-x="533" d="M503 448q-3 -14 -3 -36q0 -19 3 -34q-111 12 -240 12q-54 0 -112 -2.5t-121 -7.5q4 11 4 31q0 22 -4 37q57 -11 113.5 -15.5t112.5 -4.5q63 0 124.5 5t122.5 15zM219 245q0 15 13 26t32 11q20 0 32.5 -11t12.5 -26t-12.5 -26t-32.5 -11q-19 0 -32 11t-13 26zM216 568 q0 15 13 26t33 11q19 0 32 -11t13 -26t-13 -26t-32 -11q-20 0 -33 11t-13 26z" />
<glyph unicode="&#xf8;" horiz-adv-x="502" d="M37 -17l25 37l24 38q-24 32 -40 76.5t-16 102.5q0 78 25 137t61.5 98t78.5 59t77 20q19 0 40.5 -6.5t42.5 -20.5q8 15 15 30.5t15 30.5q7 -4 23 -4q6 0 12.5 1t11.5 3l-25 -40l-24 -40q37 -31 63 -78.5t26 -109.5q0 -86 -26 -149t-64.5 -104t-83.5 -61t-83 -20 q-23 0 -50.5 12t-53.5 36q-7 -12 -13 -24l-12 -24q-7 4 -21 4q-17 0 -28 -4zM385 247q0 70 -11.5 116t-31.5 74l-103 -173l-90 -161q20 -28 51.5 -39t80.5 -11q15 0 33 12.5t33.5 37.5t26.5 61t11 83zM115 301q0 -57 4 -98t15 -70l98 161l90 164q-18 15 -40 21.5t-48 6.5 q-17 0 -37.5 -5.5t-38.5 -24t-30.5 -55.5t-12.5 -100z" />
<glyph unicode="&#xf9;" horiz-adv-x="573" d="M180 177q0 -72 26.5 -114t68.5 -42q27 0 53.5 8t47.5 26t34 46.5t13 69.5v227q0 11 -0.5 28t-4 33.5t-11 28t-20.5 12.5q-2 4 -3 7.5t-1 8.5q0 9 5 17q47 0 69 19.5t22 45.5q8 0 16 -11t8 -22v-435q0 -16 1.5 -34t5.5 -33t11 -25t18 -10q2 -4 3 -7.5t1 -8.5q0 -9 -5 -17 q-48 4 -72 21t-33 40q-29 -29 -76.5 -51t-106.5 -22q-32 0 -62.5 9t-54.5 31.5t-38.5 60.5t-14.5 96v219q0 11 -1 28t-5 33.5t-13.5 28t-25.5 12.5q-5 8 -5 16q0 9 6 17q24 -3 46.5 -4t45.5 -1t45.5 1t46.5 4q3 -9 3 -18t-3 -15q-15 -1 -23 -12t-12 -26t-4.5 -32.5 t-0.5 -31.5v-222zM242 866q-7 14 -7 22t5 10.5t13 2.5q11 0 24.5 -6.5t25.5 -28.5q5 -9 11 -22t11.5 -27.5t9 -27.5t3.5 -20q0 -8 -4 -8q-6 0 -18.5 12.5t-27 29.5t-27.5 34.5t-19 28.5z" />
<glyph unicode="&#xfa;" horiz-adv-x="573" d="M331 866q-6 -11 -20 -28l-27 -35q-14 -17 -26.5 -29.5t-18.5 -12.5q-4 0 -4 8q0 7 3.5 20t8.5 27.5t11.5 27.5t11.5 22q12 22 25.5 28.5t24.5 6.5q8 0 13 -2.5t5 -10.5t-7 -22zM180 177q0 -72 26.5 -114t68.5 -42q27 0 53.5 8t47.5 26t34 46.5t13 69.5v227q0 11 -0.5 28 t-4 33.5t-11 28t-20.5 12.5q-2 4 -3 7.5t-1 8.5q0 9 5 17q47 0 69 19.5t22 45.5q8 0 16 -11t8 -22v-435q0 -16 1.5 -34t5.5 -33t11 -25t18 -10q2 -4 3 -7.5t1 -8.5q0 -9 -5 -17q-48 4 -72 21t-33 40q-29 -29 -76.5 -51t-106.5 -22q-32 0 -62.5 9t-54.5 31.5t-38.5 60.5 t-14.5 96v219q0 11 -1 28t-5 33.5t-13.5 28t-25.5 12.5q-5 8 -5 16q0 9 6 17q24 -3 46.5 -4t45.5 -1t45.5 1t46.5 4q3 -9 3 -18t-3 -15q-15 -1 -23 -12t-12 -26t-4.5 -32.5t-0.5 -31.5v-222z" />
<glyph unicode="&#xfb;" horiz-adv-x="573" d="M246 747q-11 -20 -24 -33t-39 -13h-17l76 130q5 8 10 14t15 6h41q12 0 16 -7l7 -13l76 -130h-14q-26 0 -38 9.5t-23 29.5l-45 78zM180 177q0 -72 26.5 -114t68.5 -42q27 0 53.5 8t47.5 26t34 46.5t13 69.5v227q0 11 -0.5 28t-4 33.5t-11 28t-20.5 12.5q-2 4 -3 7.5 t-1 8.5q0 9 5 17q47 0 69 19.5t22 45.5q8 0 16 -11t8 -22v-435q0 -16 1.5 -34t5.5 -33t11 -25t18 -10q2 -4 3 -7.5t1 -8.5q0 -9 -5 -17q-48 4 -72 21t-33 40q-29 -29 -76.5 -51t-106.5 -22q-32 0 -62.5 9t-54.5 31.5t-38.5 60.5t-14.5 96v219q0 11 -1 28t-5 33.5t-13.5 28 t-25.5 12.5q-5 8 -5 16q0 9 6 17q24 -3 46.5 -4t45.5 -1t45.5 1t46.5 4q3 -9 3 -18t-3 -15q-15 -1 -23 -12t-12 -26t-4.5 -32.5t-0.5 -31.5v-222z" />
<glyph unicode="&#xfc;" horiz-adv-x="573" d="M306 776q0 22 14.5 37.5t35.5 15.5t35.5 -15.5t14.5 -37.5t-14.5 -37.5t-35.5 -15.5t-35.5 15.5t-14.5 37.5zM166 777q0 22 14.5 37.5t35.5 15.5t35.5 -15.5t14.5 -37.5t-14.5 -37.5t-35.5 -15.5t-35.5 15.5t-14.5 37.5zM180 177q0 -72 26.5 -114t68.5 -42q27 0 53.5 8 t47.5 26t34 46.5t13 69.5v227q0 11 -0.5 28t-4 33.5t-11 28t-20.5 12.5q-2 4 -3 7.5t-1 8.5q0 9 5 17q47 0 69 19.5t22 45.5q8 0 16 -11t8 -22v-435q0 -16 1.5 -34t5.5 -33t11 -25t18 -10q2 -4 3 -7.5t1 -8.5q0 -9 -5 -17q-48 4 -72 21t-33 40q-29 -29 -76.5 -51t-106.5 -22 q-32 0 -62.5 9t-54.5 31.5t-38.5 60.5t-14.5 96v219q0 11 -1 28t-5 33.5t-13.5 28t-25.5 12.5q-5 8 -5 16q0 9 6 17q24 -3 46.5 -4t45.5 -1t45.5 1t46.5 4q3 -9 3 -18t-3 -15q-15 -1 -23 -12t-12 -26t-4.5 -32.5t-0.5 -31.5v-222z" />
<glyph unicode="&#xfd;" horiz-adv-x="575" d="M332 866q-6 -11 -20 -28l-27 -35q-14 -17 -26.5 -29.5t-18.5 -12.5q-4 0 -4 8q0 7 3.5 20t8.5 27.5t11.5 27.5t11.5 22q12 22 25.5 28.5t24.5 6.5q8 0 13 -2.5t5 -10.5t-7 -22zM35 -192q0 26 17.5 43.5t43.5 17.5q17 0 30 -8t22 -20q4 -7 14 -7q15 0 33 19q18 23 32 48.5 t22 46.5l18 51l-144 400q-4 11 -12 28t-19.5 33.5t-26 28t-30.5 12.5q-5 8 -5 16q1 5 2 9t5 8q23 -3 45.5 -4t45.5 -1q22 0 44.5 1t47.5 4q1 -5 1.5 -9t0.5 -9q0 -9 -3 -15q-11 -1 -15.5 -7.5t-4.5 -16.5q0 -17 8 -39l15 -39l95 -263l95 262l12 36q8 21 8 39q0 11 -4.5 18.5 t-17.5 8.5q-4 5 -4.5 9.5t-0.5 9.5q0 7 5 14q29 0 49 4t33 11.5t20.5 18t12.5 23.5q10 0 16 -11q4 -7 4 -13q0 -5 -2 -9l-226 -622q-12 -33 -32 -66.5t-48 -60.5t-63 -44t-78 -17q-26 0 -43.5 17.5t-17.5 43.5z" />
<glyph unicode="&#xfe;" horiz-adv-x="562" d="M42 -291q14 1 22 11t11.5 24.5t4 31t0.5 30.5v894q0 11 -1 28t-5 33.5t-13.5 28t-25.5 12.5q-5 8 -5 16q0 9 6 17q59 0 86.5 19.5t27.5 45.5q10 0 20 -11t10 -22v-397l10 9q16 15 31.5 28t33 22.5t37.5 15.5t45 6q30 0 64 -17t63.5 -47.5t48.5 -74t19 -97.5 q0 -86 -24.5 -148.5t-61.5 -103.5t-80.5 -60.5t-81.5 -19.5q-22 0 -49 11t-53 32v-215q0 -13 -5 -33.5t-15.5 -40.5t-26.5 -36t-39 -21q-14 -3 -27 -2.5t-27 -1.5q-3 9 -3 18t3 15zM299 486q-15 0 -33.5 -7.5t-35.5 -26.5t-30 -50.5t-18 -80.5v-116q4 -51 14.5 -81 t30.5 -45.5t50.5 -20.5t72.5 -5q15 0 31.5 12.5t30.5 36.5t23.5 60t9.5 83q0 67 -9.5 113.5t-28.5 74.5t-46 40.5t-62 12.5z" />
<glyph unicode="&#xff;" horiz-adv-x="575" d="M307 776q0 22 14.5 37.5t35.5 15.5t35.5 -15.5t14.5 -37.5t-14.5 -37.5t-35.5 -15.5t-35.5 15.5t-14.5 37.5zM167 777q0 22 14.5 37.5t35.5 15.5t35.5 -15.5t14.5 -37.5t-14.5 -37.5t-35.5 -15.5t-35.5 15.5t-14.5 37.5zM35 -192q0 26 17.5 43.5t43.5 17.5q17 0 30 -8 t22 -20q4 -7 14 -7q15 0 33 19q18 23 32 48.5t22 46.5l18 51l-144 400q-4 11 -12 28t-19.5 33.5t-26 28t-30.5 12.5q-5 8 -5 16q1 5 2 9t5 8q23 -3 45.5 -4t45.5 -1q22 0 44.5 1t47.5 4q1 -5 1.5 -9t0.5 -9q0 -9 -3 -15q-11 -1 -15.5 -7.5t-4.5 -16.5q0 -17 8 -39l15 -39 l95 -263l95 262l12 36q8 21 8 39q0 11 -4.5 18.5t-17.5 8.5q-4 5 -4.5 9.5t-0.5 9.5q0 7 5 14q29 0 49 4t33 11.5t20.5 18t12.5 23.5q10 0 16 -11q4 -7 4 -13q0 -5 -2 -9l-226 -622q-12 -33 -32 -66.5t-48 -60.5t-63 -44t-78 -17q-26 0 -43.5 17.5t-17.5 43.5z" />
<glyph unicode="&#x152;" horiz-adv-x="791" d="M458 534q18 0 35 1.5t31 7.5t22.5 17t8.5 31q7 5 16.5 9t20.5 4v-4q0 -54 17.5 -105t48.5 -85q-5 -8 -15.5 -10.5t-21.5 -2.5q-13 19 -27 37t-32 32.5t-41 23.5t-53 9h-36v-369q0 -34 2 -53.5t7 -29t14.5 -12t23.5 -2.5h79q21 0 47.5 5.5t50 19t39.5 36.5t16 58v17 q10 6 20 6q12 0 23 -6q-4 -17 -4 -36q0 -26 5.5 -50t5.5 -47q0 -19 -7 -36q-11 -2 -26.5 -3.5t-29.5 -1.5q-28 0 -54.5 2.5t-54.5 2.5h-205q-25 0 -51 -2.5t-50 -2.5q-54 0 -100.5 33.5t-80 91.5t-53 134.5t-19.5 162.5t20 162t54.5 132.5t81.5 89.5t101 33q24 0 46 -2 t47 -2h135q21 0 46.5 1.5t50 4.5t45.5 6.5t33 7.5q5 2 10 3t10 1t8.5 -1t7.5 -3q-11 -23 -17 -46.5t-9 -46.5q-11 -5 -22 -5q-10 0 -14 5v11q0 9 -13.5 15.5t-35 10.5t-47 6t-49.5 2h-17q-23 0 -37 -0.5t-21.5 -4.5t-9.5 -12t-2 -23v-228h26zM102 536q0 -45 6 -95.5 t18 -99.5t31 -94.5t44 -81.5t57 -60.5t71 -30.5q2 14 2.5 28.5t0.5 27.5v570v11q0 6 -1 13q-25 21 -53.5 32.5t-60.5 11.5q-20 0 -40.5 -9.5t-37 -35t-27 -70.5t-10.5 -117z" />
<glyph unicode="&#x153;" horiz-adv-x="802" d="M422 212q9 -45 27 -75.5t44 -49t60 -26.5t75 -8q10 0 20.5 7t19 16t14 19t5.5 16t-6 9l-7 4v5q0 11 13 21q16 -14 32.5 -21.5t33.5 -11.5q-10 -26 -30.5 -50t-46.5 -43t-56 -30t-58 -11q-29 0 -73 16t-83 50q-36 -33 -81.5 -49.5t-97.5 -16.5q-27 0 -61 16t-64.5 48 t-51 79.5t-20.5 110.5q0 78 22 137t57 98t78 59t85 20q34 0 73.5 -18t70.5 -53q38 36 80 53.5t76 17.5q37 0 72.5 -16t63 -46t45 -73t19.5 -97q-43 0 -88.5 -8.5t-91 -23.5t-88.5 -34.5t-82 -40.5zM115 301q0 -74 9.5 -122t30.5 -76t55 -39t83 -11q6 0 16.5 2t22 6.5 t22.5 10t19 13.5q-20 26 -31.5 68.5t-11.5 83.5q0 46 7.5 92.5t24.5 78.5q-19 45 -51 61.5t-77 16.5q-17 0 -37.5 -5.5t-38.5 -24t-30.5 -55.5t-12.5 -100zM415 301q0 -32 3 -57q57 32 129 60.5t142 42.5q-5 67 -43.5 103t-91.5 36q-17 0 -40.5 -5.5t-45.5 -24t-37.5 -55.5 t-15.5 -100z" />
<glyph unicode="&#x178;" horiz-adv-x="653" d="M346 1130q0 22 14.5 37.5t35.5 15.5t35.5 -15.5t14.5 -37.5t-14.5 -37.5t-35.5 -15.5t-35.5 15.5t-14.5 37.5zM206 1131q0 22 14.5 37.5t35.5 15.5t35.5 -15.5t14.5 -37.5t-14.5 -37.5t-35.5 -15.5t-35.5 15.5t-14.5 37.5zM252 28q15 1 23 12t12 26t4.5 32.5t0.5 31.5 v208l-159 362q-5 11 -14.5 28t-22.5 33.5t-29 28t-32 12.5q-2 4 -3 7.5t-2 8.5q0 8 7 17q23 -3 46 -4t46 -1t44 1t46 4q1 -5 2 -9t1 -9q-2 -11 -4 -15q-8 -3 -8 -19q0 -17 6.5 -40t15.5 -43l119 -271l165 372q18 39 34.5 65t34.5 41.5t37.5 22t43.5 6.5q2 -5 2 -9v-9v-5 q0 -7 -1 -10q-11 -1 -22.5 -12t-22.5 -26t-20.5 -32.5t-15.5 -31.5l-194 -436v-235q0 -16 1.5 -34t6.5 -33t14 -25t23 -10q5 -8 5 -16q0 -10 -6 -17q-24 3 -46.5 4t-45.5 1t-45.5 -1t-46.5 -4q-3 9 -3 18t3 15z" />
<glyph unicode="&#x2c6;" horiz-adv-x="301" d="M110 747q-11 -20 -24 -33t-39 -13h-17l76 130q5 8 10 14t15 6h41q12 0 16 -7l7 -13l76 -130h-14q-26 0 -38 9.5t-23 29.5l-45 78z" />
<glyph unicode="&#x2dc;" horiz-adv-x="516" d="M30 756q17 44 53.5 69t79.5 25q23 0 40.5 -7.5t31.5 -18.5t27 -24.5t26.5 -24.5t30 -18.5t38.5 -7.5q18 0 34.5 6.5t27.5 20.5q11 12 16.5 20t17.5 8q9 0 24 -6l9 -3q-17 -44 -53.5 -69t-79.5 -25q-34 0 -56.5 16t-43 34.5t-42 34.5t-52.5 16q-18 0 -34.5 -6.5 t-27.5 -20.5q-11 -12 -16.5 -20t-17.5 -8q-9 0 -24 6z" />
<glyph unicode="&#x2000;" horiz-adv-x="627" />
<glyph unicode="&#x2001;" horiz-adv-x="1255" />
<glyph unicode="&#x2002;" horiz-adv-x="627" />
<glyph unicode="&#x2003;" horiz-adv-x="1255" />
<glyph unicode="&#x2004;" horiz-adv-x="418" />
<glyph unicode="&#x2005;" horiz-adv-x="313" />
<glyph unicode="&#x2006;" horiz-adv-x="209" />
<glyph unicode="&#x2007;" horiz-adv-x="209" />
<glyph unicode="&#x2008;" horiz-adv-x="156" />
<glyph unicode="&#x2009;" horiz-adv-x="251" />
<glyph unicode="&#x200a;" horiz-adv-x="69" />
<glyph unicode="&#x2010;" horiz-adv-x="533" d="M503 448q-3 -14 -3 -36q0 -19 3 -34q-111 12 -240 12q-54 0 -112 -2.5t-121 -7.5q4 11 4 31q0 22 -4 37q57 -11 113.5 -15.5t112.5 -4.5q63 0 124.5 5t122.5 15z" />
<glyph unicode="&#x2011;" horiz-adv-x="533" d="M503 448q-3 -14 -3 -36q0 -19 3 -34q-111 12 -240 12q-54 0 -112 -2.5t-121 -7.5q4 11 4 31q0 22 -4 37q57 -11 113.5 -15.5t112.5 -4.5q63 0 124.5 5t122.5 15z" />
<glyph unicode="&#x2013;" horiz-adv-x="533" d="M503 448q-3 -14 -3 -36q0 -19 3 -34q-111 12 -240 12q-54 0 -112 -2.5t-121 -7.5q4 11 4 31q0 22 -4 37q57 -11 113.5 -15.5t112.5 -4.5q63 0 124.5 5t122.5 15z" />
<glyph unicode="&#x2014;" horiz-adv-x="920" d="M890 448q-6 -14 -6 -36q0 -19 6 -34q-204 12 -437 12q-100 0 -204.5 -2.5t-218.5 -7.5q6 12 6 31q0 20 -6 37q104 -11 206 -15.5t204 -4.5q114 0 226 5t224 15z" />
<glyph unicode="&#x2018;" horiz-adv-x="160" d="M130 848q0 -21 -13 -36t-33 -17q2 -11 6.5 -19.5t14.5 -15.5q-7 -2 -11 -6l-10 -10q-18 9 -28.5 21t-16.5 26.5t-7.5 29t-1.5 27.5q0 22 14.5 37.5t35.5 15.5t35.5 -15.5t14.5 -37.5z" />
<glyph unicode="&#x2019;" horiz-adv-x="160" d="M30 848q0 22 14.5 37.5t35.5 15.5t35.5 -15.5t14.5 -37.5q0 -13 -1.5 -27.5t-7.5 -29t-16.5 -26.5t-28.5 -21l-10 10q-4 4 -11 6q10 7 14.5 15.5t6.5 19.5q-20 2 -33 17t-13 36z" />
<glyph unicode="&#x201a;" horiz-adv-x="160" d="M30 50q0 22 14.5 37.5t35.5 15.5t35.5 -15.5t14.5 -37.5q0 -13 -1.5 -27.5t-7.5 -29t-16.5 -26.5t-28.5 -21l-10 10q-4 4 -11 6q10 7 14.5 15.5t6.5 19.5q-20 2 -33 17t-13 36z" />
<glyph unicode="&#x201c;" horiz-adv-x="292" d="M262 848q0 -21 -13 -36t-33 -17q2 -11 6.5 -19.5t14.5 -15.5q-7 -2 -11 -6l-10 -10q-18 9 -28.5 21t-16.5 26.5t-7.5 29t-1.5 27.5q0 22 14.5 37.5t35.5 15.5t35.5 -15.5t14.5 -37.5zM130 848q0 -21 -13 -36t-33 -17q2 -11 6.5 -19.5t14.5 -15.5q-7 -2 -11 -6l-10 -10 q-18 9 -28.5 21t-16.5 26.5t-7.5 29t-1.5 27.5q0 22 14.5 37.5t35.5 15.5t35.5 -15.5t14.5 -37.5z" />
<glyph unicode="&#x201d;" horiz-adv-x="292" d="M30 848q0 22 14.5 37.5t35.5 15.5t35.5 -15.5t14.5 -37.5q0 -13 -1.5 -27.5t-7.5 -29t-16.5 -26.5t-28.5 -21l-10 10q-4 4 -11 6q10 7 14.5 15.5t6.5 19.5q-20 2 -33 17t-13 36zM162 848q0 22 14.5 37.5t35.5 15.5t35.5 -15.5t14.5 -37.5q0 -13 -1.5 -27.5t-7.5 -29 t-16.5 -26.5t-28.5 -21l-10 10q-4 4 -11 6q10 7 14.5 15.5t6.5 19.5q-20 2 -33 17t-13 36z" />
<glyph unicode="&#x201e;" horiz-adv-x="295" d="M165 50q0 22 14.5 37.5t35.5 15.5t35.5 -15.5t14.5 -37.5q0 -13 -1.5 -27.5t-7.5 -29t-16.5 -26.5t-28.5 -21l-10 10q-4 4 -11 6q10 7 14.5 15.5t6.5 19.5q-20 2 -33 17t-13 36zM30 50q0 22 14.5 37.5t35.5 15.5t35.5 -15.5t14.5 -37.5q0 -13 -1.5 -27.5t-7.5 -29 t-16.5 -26.5t-28.5 -21l-10 10q-4 4 -11 6q10 7 14.5 15.5t6.5 19.5q-20 2 -33 17t-13 36z" />
<glyph unicode="&#x2022;" horiz-adv-x="285" d="M30 415q0 24 9 46t24 38t35.5 25.5t44.5 9.5t44.5 -9.5t35.5 -25.5t23.5 -38t8.5 -46t-8.5 -46t-23.5 -38t-35.5 -25.5t-44.5 -9.5t-44.5 9.5t-35.5 25.5t-24 38t-9 46z" />
<glyph unicode="&#x2026;" horiz-adv-x="457" d="M327 36q0 22 14.5 37.5t35.5 15.5t35.5 -15.5t14.5 -37.5t-14.5 -37.5t-35.5 -15.5t-35.5 15.5t-14.5 37.5zM182 36q0 22 14.5 37.5t35.5 15.5t35.5 -15.5t14.5 -37.5t-14.5 -37.5t-35.5 -15.5t-35.5 15.5t-14.5 37.5zM30 36q0 22 14.5 37.5t35.5 15.5t35.5 -15.5 t14.5 -37.5t-14.5 -37.5t-35.5 -15.5t-35.5 15.5t-14.5 37.5z" />
<glyph unicode="&#x202f;" horiz-adv-x="251" />
<glyph unicode="&#x2039;" horiz-adv-x="369" d="M334 164q-9 -10 -13 -30t-8 -34q-45 33 -95 63t-107 68q-45 30 -63 61.5t-18 61.5q0 21 8 41t20.5 37.5t29 31t34.5 22.5q55 29 105.5 65.5t98.5 75.5q1 -22 1.5 -40t11.5 -29q-22 -21 -62 -41t-79 -44t-68 -54.5t-29 -73.5q0 -36 28 -62.5t66.5 -47t77.5 -37t61 -34.5z " />
<glyph unicode="&#x203a;" horiz-adv-x="369" d="M35 164q14 12 37 23l49 23q26 12 52 25.5t47.5 30t34.5 36t13 43.5q0 43 -29 73.5t-68 54.5t-79 44t-62 41q11 11 11.5 29t1.5 40q48 -39 98.5 -75.5t105.5 -65.5q18 -9 34.5 -22.5t29 -31t20.5 -37.5t8 -41q0 -30 -18 -61.5t-63 -61.5q-57 -38 -107 -68t-95 -63 q-4 14 -8 34t-13 30z" />
<glyph unicode="&#x205f;" horiz-adv-x="313" />
<glyph unicode="&#x20ac;" horiz-adv-x="630" d="M410 357q-5 -15 -8 -36q-3 -18 -3 -34q-78 11 -166 12q16 -50 38.5 -94.5t52 -78t64.5 -53.5t77 -20q6 0 15 6.5t17.5 16t15 19.5t6.5 18q0 4 -4 10q-15 18 -15 39q0 22 18 37.5t39 15.5q20 0 31.5 -14.5t11.5 -34.5q0 -33 -17.5 -65.5t-46 -58.5t-64.5 -42.5t-73 -16.5 q-45 0 -87 24t-77 66.5t-62 100t-40 123.5q-25 -2 -50.5 -3.5t-52.5 -4.5q3 6 5 14t4 17l2 20q1 9 0 17q44 -11 85 -15q-2 18 -3 36t-1 37q0 47 6 91l-28 -2q-15 -1 -31 -3q3 6 5 14t4 17l2 20q1 9 0 17q28 -8 57 -12q14 61 39 113.5t60 90.5t78.5 60t94.5 22 q11 0 24.5 -5.5t26.5 -11.5l26 -12q12 -5 21 -5t14.5 5.5t9.5 19.5q9 5 19 5q8 0 15 -5q-16 -63 -16 -129v-19q0 -9 1 -19q-10 -5 -18 -5t-18 5q-16 22 -36.5 42.5t-43.5 36t-48 24.5t-50 9q-20 0 -44 -10.5t-45 -36.5t-36 -70t-17 -111q14 -2 29 -2h30q96 0 196 20 q-2 -7 -4 -16t-4 -20q-3 -18 -3 -34q-86 12 -186 12q-14 0 -28.5 -0.5t-29.5 -0.5q2 -42 8.5 -85.5t18.5 -87.5q92 0 189 20z" />
<glyph unicode="&#x2122;" horiz-adv-x="781" d="M176 799q0 14 -6.5 16t-30.5 2h-27q-13 0 -23 -6.5t-17.5 -15.5t-12.5 -18t-7 -14l-4 -5q0 -3 -5 -3h-3q-6 0 -10 3q2 6 6 16.5t8 22.5l6 23q3 10 3 16q6 2 9 2q17 0 28 -4t37 -4h154q25 0 36 4t28 4q3 0 9 -2q0 -6 2.5 -16.5t6.5 -22.5l7 -23q4 -10 7 -16q-6 -3 -10 -3 h-2q-6 0 -7 3l-3 5q-2 5 -7 14t-12.5 18t-17.5 15.5t-22 6.5h-29q-24 0 -30 -2t-6 -16v-284q0 -14 4.5 -30t18.5 -16l2 -4q1 -2 1 -4q0 -3 -4 -7q-12 2 -23 2h-24h-5h-23q-12 0 -25 -2q-3 3 -3 7q0 3 3 8q15 0 19 16t4 30v284zM478 632q9 6 9 15q0 7 -3 14.5t-6 12.5l-37 96 l-71 -255q-2 -9 -4.5 -18t-2.5 -17v-4q0 -7 3 -7q1 -3 1 -8t-1 -7q-10 2 -18 2h-17h-15q-8 0 -17 -2q-1 3 -1 8t1 7q11 1 20.5 14t14.5 32l71 256q3 12 3 26q0 8 -2 14t-10 6q-1 2 -2 3.5t-1 3.5q0 4 4 8q12 -2 23 -2h23h4h22q11 0 22 2q2 -6 2 -8q0 -3 -2 -7q-10 0 -10 -11 q0 -8 4 -17.5t6 -17.5l27 -64l25 64q2 6 3 12.5t1 12.5q0 8 -3 14.5t-10 6.5q-1 2 -2 3.5t-1 3.5t1 4l2 4q12 -2 24 -2h23h4h22q11 0 22 2q2 -6 2 -8q0 -3 -2 -7q-6 0 -6.5 -3.5t-0.5 -8.5q0 -8 2.5 -17t4.5 -17l70 -237q2 -8 5.5 -18t9.5 -19.5t14.5 -17t20.5 -10.5 q2 -4 2 -7q0 -4 -3 -8q-26 3 -46 3q-13 0 -24 -0.5t-25 -2.5q-1 3 -1 8t1 7q7 6 7 17q0 9 -3.5 19t-5.5 18l-72 247l-40 -94q-2 -5 -3.5 -12.5t-1.5 -14.5q0 -14 8 -17q2 -4 2 -7t-2 -7q-8 1 -15.5 1.5t-15.5 0.5h-4q-7 0 -14 -0.5t-15 -1.5q-1 2 -1 8q0 5 1 6z" />
</font>
</defs>
</svg>
